M48
;DRILL file {KiCad (2016-08-20 BZR 7083)-product} date Fri Jun  8 01:00:14 2018
;FORMAT={3:3/ absolute / metric / suppress leading zeros}
FMAT,2
METRIC,TZ
T1C0.400
T2C0.900
T3C1.000
%
G90
G05
M71
T1
X900Y48900
X900Y17400
X1400Y3400
X1500Y24600
X2000Y23300
X2300Y22300
X2500Y12800
X2700Y8800
X3300Y45800
X3300Y34100
X3900Y13100
X4000Y10900
X4000Y6900
X4200Y37400
X4800Y30900
X4800Y23500
X5100Y29000
X5100Y25000
X5100Y14300
X5200Y22300
X5900Y16200
X6000Y33600
X6100Y20300
X6500Y48900
X6600Y36400
X6800Y32800
X7400Y46900
X7700Y6800
X7900Y34200
X8200Y43400
X8200Y32100
X9100Y3800
X9100Y1500
X9200Y11300
X9300Y21900
X9400Y19900
X10300Y14900
X10500Y20700
X10700Y34000
X10800Y6800
X11000Y26100
X11700Y24300
X11800Y48600
X11900Y41800
X12000Y5900
X12500Y16100
X12700Y9400
X13000Y8000
X13700Y14300
X13800Y39200
X14300Y35100
X14500Y23500
X15100Y48100
X15200Y30500
X15800Y14200
X16500Y45000
X16500Y38800
X17000Y5800
X17000Y3600
X17100Y1500
X17200Y37100
X17200Y15200
X17300Y35200
X17300Y32400
X17500Y28500
X18000Y48600
X18500Y26100
X18700Y12000
X18800Y22100
X18900Y37800
X18900Y16800
X19400Y4700
X19800Y35000
X19900Y31500
X20000Y28200
X20100Y8200
X20400Y25900
X21100Y23700
X21200Y44500
X21700Y30500
X22000Y34900
X22200Y10200
X22200Y7000
X22300Y22500
X22400Y19000
X22900Y30500
X23100Y20600
X23200Y28400
X23300Y39900
X23500Y1700
X23700Y14900
X23800Y18000
X23800Y11400
X23800Y5900
X23900Y26400
X24200Y44400
X24800Y12800
X24900Y28900
X24900Y26000
X25000Y21500
X25100Y23700
X25400Y10200
X25400Y7000
X25700Y30400
X26400Y35900
X26400Y33600
X26400Y32500
X26400Y29600
X26900Y45300
X26900Y43700
X26900Y28700
X26900Y19200
X27000Y13500
X27600Y36600
X27700Y34600
X27800Y33300
X28700Y1000
X28900Y7500
X29000Y20900
X29300Y28100
X29500Y30500
X29500Y25600
X29800Y29100
X30000Y26600
X30100Y24700
X30400Y40900
X30400Y39800
X30550Y30550
X31100Y20500
X31400Y46400
X31400Y15900
X31700Y25500
X31700Y23700
X32200Y6000
X32300Y28100
X32600Y24200
X32700Y31000
X33000Y25700
X33000Y21000
X33200Y44300
X33400Y23500
X33400Y18600
X33800Y29600
X34400Y27800
X34400Y24600
X34800Y36500
X34800Y8500
X35000Y1900
X35100Y11900
X35700Y19100
X35800Y30100
X36000Y44200
X36300Y31700
X36800Y5700
X36900Y38000
X36900Y35100
X37000Y45600
X37100Y42600
X37100Y28600
X37500Y30700
X37800Y46400
X38200Y26300
X38200Y4300
X38300Y31600
X38300Y24600
X38500Y15300
X38500Y11900
X38800Y22000
X38900Y39800
X39000Y45900
X39500Y41200
X39600Y19200
X40700Y40100
X40900Y44000
X40900Y17400
X41700Y900
X41800Y9600
X41800Y7800
X42300Y4100
X42700Y26100
X42700Y23000
X43900Y21100
X45400Y22600
X45800Y42200
X46100Y32200
X46100Y28000
T2
X5900Y45300
X5900Y41700
X20400Y11400
X30600Y6500
T3
X1500Y47390
X1500Y44850
X1500Y42310
X1500Y39770
X1500Y37230
X1500Y34690
X1500Y32150
X1500Y29610
X22570Y48500
X25110Y48500
X27650Y48500
X30190Y48500
X32730Y48500
X35270Y48500
X37810Y48500
X40350Y48500
X42890Y48500
X43200Y41950
X43200Y39410
X43200Y36870
X43200Y34330
X43200Y31790
X43200Y29250
X45000Y19390
X45000Y16850
X45000Y14310
X45000Y11770
X45000Y9230
X45000Y6690
X45000Y4150
X45000Y1610
X45430Y48500
T0
M30
