G04 #@! TF.FileFunction,Legend,Top*
%FSLAX46Y46*%
G04 Gerber Fmt 4.6, Leading zero omitted, Abs format (unit mm)*
G04 Created by KiCad (PCBNEW (2016-08-20 BZR 7083)-product) date Fri Jun  8 01:00:13 2018*
%MOMM*%
%LPD*%
G01*
G04 APERTURE LIST*
%ADD10C,0.100000*%
%ADD11C,0.200000*%
%ADD12C,0.150000*%
%ADD13C,0.120000*%
G04 APERTURE END LIST*
D10*
X43200000Y19183334D02*
X42800000Y19183334D01*
X43000000Y19183334D02*
X43000000Y19883334D01*
X42933333Y19783334D01*
X42866666Y19716667D01*
X42800000Y19683334D01*
X3700000Y29283334D02*
X3300000Y29283334D01*
X3500000Y29283334D02*
X3500000Y29983334D01*
X3433333Y29883334D01*
X3366666Y29816667D01*
X3300000Y29783334D01*
X45500000Y46183334D02*
X45100000Y46183334D01*
X45300000Y46183334D02*
X45300000Y46883334D01*
X45233333Y46783334D01*
X45166666Y46716667D01*
X45100000Y46683334D01*
D11*
X12123809Y27257143D02*
X12457142Y27257143D01*
X12600000Y26471429D02*
X12123809Y26471429D01*
X12123809Y27971429D01*
X12600000Y27971429D01*
X13028571Y26471429D02*
X13028571Y27471429D01*
X13028571Y27185715D02*
X13076190Y27328572D01*
X13123809Y27400000D01*
X13219047Y27471429D01*
X13314285Y27471429D01*
X13647619Y26471429D02*
X13647619Y27471429D01*
X13647619Y27971429D02*
X13600000Y27900000D01*
X13647619Y27828572D01*
X13695238Y27900000D01*
X13647619Y27971429D01*
X13647619Y27828572D01*
X14552380Y26542858D02*
X14457142Y26471429D01*
X14266666Y26471429D01*
X14171428Y26542858D01*
X14123809Y26614286D01*
X14076190Y26757143D01*
X14076190Y27185715D01*
X14123809Y27328572D01*
X14171428Y27400000D01*
X14266666Y27471429D01*
X14457142Y27471429D01*
X14552380Y27400000D01*
X15409523Y26471429D02*
X15409523Y27257143D01*
X15361904Y27400000D01*
X15266666Y27471429D01*
X15076190Y27471429D01*
X14980952Y27400000D01*
X15409523Y26542858D02*
X15314285Y26471429D01*
X15076190Y26471429D01*
X14980952Y26542858D01*
X14933333Y26685715D01*
X14933333Y26828572D01*
X14980952Y26971429D01*
X15076190Y27042858D01*
X15314285Y27042858D01*
X15409523Y27114286D01*
X16600000Y26542858D02*
X16742857Y26471429D01*
X16980952Y26471429D01*
X17076190Y26542858D01*
X17123809Y26614286D01*
X17171428Y26757143D01*
X17171428Y26900000D01*
X17123809Y27042858D01*
X17076190Y27114286D01*
X16980952Y27185715D01*
X16790476Y27257143D01*
X16695238Y27328572D01*
X16647619Y27400000D01*
X16600000Y27542858D01*
X16600000Y27685715D01*
X16647619Y27828572D01*
X16695238Y27900000D01*
X16790476Y27971429D01*
X17028571Y27971429D01*
X17171428Y27900000D01*
X17504761Y27471429D02*
X17742857Y26471429D01*
X17980952Y27471429D02*
X17742857Y26471429D01*
X17647619Y26114286D01*
X17600000Y26042858D01*
X17504761Y25971429D01*
X18361904Y27471429D02*
X18361904Y26471429D01*
X18361904Y27328572D02*
X18409523Y27400000D01*
X18504761Y27471429D01*
X18647619Y27471429D01*
X18742857Y27400000D01*
X18790476Y27257143D01*
X18790476Y26471429D01*
X19123809Y27471429D02*
X19504761Y27471429D01*
X19266666Y27971429D02*
X19266666Y26685715D01*
X19314285Y26542858D01*
X19409523Y26471429D01*
X19504761Y26471429D01*
X19838095Y26471429D02*
X19838095Y27971429D01*
X20266666Y26471429D02*
X20266666Y27257143D01*
X20219047Y27400000D01*
X20123809Y27471429D01*
X19980952Y27471429D01*
X19885714Y27400000D01*
X19838095Y27328572D01*
X20695238Y26542858D02*
X20790476Y26471429D01*
X20980952Y26471429D01*
X21076190Y26542858D01*
X21123809Y26685715D01*
X21123809Y26757143D01*
X21076190Y26900000D01*
X20980952Y26971429D01*
X20838095Y26971429D01*
X20742857Y27042858D01*
X20695238Y27185715D01*
X20695238Y27257143D01*
X20742857Y27400000D01*
X20838095Y27471429D01*
X20980952Y27471429D01*
X21076190Y27400000D01*
X10719047Y24021429D02*
X10719047Y25521429D01*
X10957142Y25521429D01*
X11100000Y25450000D01*
X11195238Y25307143D01*
X11242857Y25164286D01*
X11290476Y24878572D01*
X11290476Y24664286D01*
X11242857Y24378572D01*
X11195238Y24235715D01*
X11100000Y24092858D01*
X10957142Y24021429D01*
X10719047Y24021429D01*
X11719047Y24021429D02*
X11719047Y25521429D01*
X12385714Y24735715D02*
X12385714Y24021429D01*
X12052380Y25521429D02*
X12385714Y24735715D01*
X12719047Y25521429D01*
X13814285Y24021429D02*
X13814285Y25521429D01*
X14052380Y25521429D01*
X14195238Y25450000D01*
X14290476Y25307143D01*
X14338095Y25164286D01*
X14385714Y24878572D01*
X14385714Y24664286D01*
X14338095Y24378572D01*
X14290476Y24235715D01*
X14195238Y24092858D01*
X14052380Y24021429D01*
X13814285Y24021429D01*
X14814285Y24807143D02*
X15147619Y24807143D01*
X15290476Y24021429D02*
X14814285Y24021429D01*
X14814285Y25521429D01*
X15290476Y25521429D01*
X16195238Y24021429D02*
X15719047Y24021429D01*
X15719047Y25521429D01*
X16480952Y24450000D02*
X16957142Y24450000D01*
X16385714Y24021429D02*
X16719047Y25521429D01*
X17052380Y24021429D01*
X17576190Y24735715D02*
X17576190Y24021429D01*
X17242857Y25521429D02*
X17576190Y24735715D01*
X17909523Y25521429D01*
X19004761Y24021429D02*
X19004761Y25521429D01*
X19338095Y24450000D01*
X19671428Y25521429D01*
X19671428Y24021429D01*
X20719047Y24164286D02*
X20671428Y24092858D01*
X20528571Y24021429D01*
X20433333Y24021429D01*
X20290476Y24092858D01*
X20195238Y24235715D01*
X20147619Y24378572D01*
X20100000Y24664286D01*
X20100000Y24878572D01*
X20147619Y25164286D01*
X20195238Y25307143D01*
X20290476Y25450000D01*
X20433333Y25521429D01*
X20528571Y25521429D01*
X20671428Y25450000D01*
X20719047Y25378572D01*
X21147619Y25521429D02*
X21147619Y24307143D01*
X21195238Y24164286D01*
X21242857Y24092858D01*
X21338095Y24021429D01*
X21528571Y24021429D01*
X21623809Y24092858D01*
X21671428Y24164286D01*
X21719047Y24307143D01*
X21719047Y25521429D01*
X10790476Y22571429D02*
X11028571Y21571429D01*
X11266666Y22571429D01*
X12076190Y22571429D02*
X12076190Y21571429D01*
X11838095Y23142858D02*
X11600000Y22071429D01*
X12219047Y22071429D01*
X12600000Y21714286D02*
X12647619Y21642858D01*
X12600000Y21571429D01*
X12552380Y21642858D01*
X12600000Y21714286D01*
X12600000Y21571429D01*
X13266666Y23071429D02*
X13361904Y23071429D01*
X13457142Y23000000D01*
X13504761Y22928572D01*
X13552380Y22785715D01*
X13600000Y22500000D01*
X13600000Y22142858D01*
X13552380Y21857143D01*
X13504761Y21714286D01*
X13457142Y21642858D01*
X13361904Y21571429D01*
X13266666Y21571429D01*
X13171428Y21642858D01*
X13123809Y21714286D01*
X13076190Y21857143D01*
X13028571Y22142858D01*
X13028571Y22500000D01*
X13076190Y22785715D01*
X13123809Y22928572D01*
X13171428Y23000000D01*
X13266666Y23071429D01*
X15076190Y23071429D02*
X15076190Y22000000D01*
X15028571Y21785715D01*
X14933333Y21642858D01*
X14790476Y21571429D01*
X14695238Y21571429D01*
X15980952Y22571429D02*
X15980952Y21571429D01*
X15552380Y22571429D02*
X15552380Y21785715D01*
X15600000Y21642858D01*
X15695238Y21571429D01*
X15838095Y21571429D01*
X15933333Y21642858D01*
X15980952Y21714286D01*
X16457142Y22571429D02*
X16457142Y21571429D01*
X16457142Y22428572D02*
X16504761Y22500000D01*
X16600000Y22571429D01*
X16742857Y22571429D01*
X16838095Y22500000D01*
X16885714Y22357143D01*
X16885714Y21571429D01*
X17742857Y21642858D02*
X17647619Y21571429D01*
X17457142Y21571429D01*
X17361904Y21642858D01*
X17314285Y21785715D01*
X17314285Y22357143D01*
X17361904Y22500000D01*
X17457142Y22571429D01*
X17647619Y22571429D01*
X17742857Y22500000D01*
X17790476Y22357143D01*
X17790476Y22214286D01*
X17314285Y22071429D01*
X18933333Y22928572D02*
X18980952Y23000000D01*
X19076190Y23071429D01*
X19314285Y23071429D01*
X19409523Y23000000D01*
X19457142Y22928572D01*
X19504761Y22785715D01*
X19504761Y22642858D01*
X19457142Y22428572D01*
X18885714Y21571429D01*
X19504761Y21571429D01*
X20123809Y23071429D02*
X20219047Y23071429D01*
X20314285Y23000000D01*
X20361904Y22928572D01*
X20409523Y22785715D01*
X20457142Y22500000D01*
X20457142Y22142858D01*
X20409523Y21857143D01*
X20361904Y21714286D01*
X20314285Y21642858D01*
X20219047Y21571429D01*
X20123809Y21571429D01*
X20028571Y21642858D01*
X19980952Y21714286D01*
X19933333Y21857143D01*
X19885714Y22142858D01*
X19885714Y22500000D01*
X19933333Y22785715D01*
X19980952Y22928572D01*
X20028571Y23000000D01*
X20123809Y23071429D01*
X21409523Y21571429D02*
X20838095Y21571429D01*
X21123809Y21571429D02*
X21123809Y23071429D01*
X21028571Y22857143D01*
X20933333Y22714286D01*
X20838095Y22642858D01*
X21980952Y22428572D02*
X21885714Y22500000D01*
X21838095Y22571429D01*
X21790476Y22714286D01*
X21790476Y22785715D01*
X21838095Y22928572D01*
X21885714Y23000000D01*
X21980952Y23071429D01*
X22171428Y23071429D01*
X22266666Y23000000D01*
X22314285Y22928572D01*
X22361904Y22785715D01*
X22361904Y22714286D01*
X22314285Y22571429D01*
X22266666Y22500000D01*
X22171428Y22428572D01*
X21980952Y22428572D01*
X21885714Y22357143D01*
X21838095Y22285715D01*
X21790476Y22142858D01*
X21790476Y21857143D01*
X21838095Y21714286D01*
X21885714Y21642858D01*
X21980952Y21571429D01*
X22171428Y21571429D01*
X22266666Y21642858D01*
X22314285Y21714286D01*
X22361904Y21857143D01*
X22361904Y22142858D01*
X22314285Y22285715D01*
X22266666Y22357143D01*
X22171428Y22428572D01*
X22409523Y45121429D02*
X22409523Y46621429D01*
X22647619Y46621429D01*
X22790476Y46550000D01*
X22885714Y46407143D01*
X22933333Y46264286D01*
X22980952Y45978572D01*
X22980952Y45764286D01*
X22933333Y45478572D01*
X22885714Y45335715D01*
X22790476Y45192858D01*
X22647619Y45121429D01*
X22409523Y45121429D01*
X23409523Y45121429D02*
X23409523Y46621429D01*
X23647619Y46621429D01*
X23790476Y46550000D01*
X23885714Y46407143D01*
X23933333Y46264286D01*
X23980952Y45978572D01*
X23980952Y45764286D01*
X23933333Y45478572D01*
X23885714Y45335715D01*
X23790476Y45192858D01*
X23647619Y45121429D01*
X23409523Y45121429D01*
X24409523Y45907143D02*
X24742857Y45907143D01*
X24885714Y45121429D02*
X24409523Y45121429D01*
X24409523Y46621429D01*
X24885714Y46621429D01*
X25790476Y45121429D02*
X25314285Y45121429D01*
X25314285Y46621429D01*
X26123809Y45121429D02*
X26123809Y46621429D01*
X26457142Y45550000D01*
X26790476Y46621429D01*
X26790476Y45121429D01*
X27838095Y45264286D02*
X27790476Y45192858D01*
X27647619Y45121429D01*
X27552380Y45121429D01*
X27409523Y45192858D01*
X27314285Y45335715D01*
X27266666Y45478572D01*
X27219047Y45764286D01*
X27219047Y45978572D01*
X27266666Y46264286D01*
X27314285Y46407143D01*
X27409523Y46550000D01*
X27552380Y46621429D01*
X27647619Y46621429D01*
X27790476Y46550000D01*
X27838095Y46478572D01*
X28266666Y46621429D02*
X28266666Y45407143D01*
X28314285Y45264286D01*
X28361904Y45192858D01*
X28457142Y45121429D01*
X28647619Y45121429D01*
X28742857Y45192858D01*
X28790476Y45264286D01*
X28838095Y45407143D01*
X28838095Y46621429D01*
X29742857Y46121429D02*
X29742857Y45121429D01*
X29504761Y46692858D02*
X29266666Y45621429D01*
X29885714Y45621429D01*
D10*
G36*
X13867218Y30973353D02*
X13865400Y30803799D01*
X13856789Y30500886D01*
X13841861Y30280944D01*
X13818401Y30125429D01*
X13784192Y30015795D01*
X13767067Y29980751D01*
X13625096Y29819142D01*
X13416068Y29702781D01*
X13167910Y29640846D01*
X12908549Y29642517D01*
X12803906Y29664144D01*
X12627716Y29737983D01*
X12513744Y29837637D01*
X12478721Y29946498D01*
X12486410Y29979254D01*
X12532030Y30043717D01*
X12613507Y30056413D01*
X12751822Y30017482D01*
X12841853Y29981633D01*
X13002882Y29931146D01*
X13146384Y29936654D01*
X13223031Y29956466D01*
X13392123Y30025683D01*
X13491903Y30124488D01*
X13545688Y30251671D01*
X13561524Y30325415D01*
X13528718Y30341343D01*
X13424397Y30310023D01*
X13421547Y30309030D01*
X13209759Y30270459D01*
X12978460Y30282511D01*
X12767454Y30339427D01*
X12628277Y30423803D01*
X12517583Y30539707D01*
X12447431Y30655741D01*
X12405673Y30803226D01*
X12380163Y31013484D01*
X12375122Y31076596D01*
X12371375Y31347405D01*
X12406856Y31531332D01*
X12480700Y31625303D01*
X12533000Y31637600D01*
X12621884Y31592567D01*
X12679912Y31455903D01*
X12707845Y31225264D01*
X12710800Y31090014D01*
X12717267Y30884762D01*
X12740379Y30754443D01*
X12785700Y30672992D01*
X12803700Y30654874D01*
X12940915Y30589000D01*
X13122839Y30572327D01*
X13305781Y30603978D01*
X13428469Y30667424D01*
X13489434Y30728921D01*
X13527773Y30809807D01*
X13550457Y30935897D01*
X13564458Y31133011D01*
X13566645Y31179148D01*
X13581832Y31401418D01*
X13605316Y31539166D01*
X13640790Y31609364D01*
X13663494Y31624178D01*
X13743504Y31632381D01*
X13801634Y31580530D01*
X13840132Y31459494D01*
X13861244Y31260145D01*
X13867218Y30973353D01*
X13867218Y30973353D01*
X13867218Y30973353D01*
G37*
X13867218Y30973353D02*
X13865400Y30803799D01*
X13856789Y30500886D01*
X13841861Y30280944D01*
X13818401Y30125429D01*
X13784192Y30015795D01*
X13767067Y29980751D01*
X13625096Y29819142D01*
X13416068Y29702781D01*
X13167910Y29640846D01*
X12908549Y29642517D01*
X12803906Y29664144D01*
X12627716Y29737983D01*
X12513744Y29837637D01*
X12478721Y29946498D01*
X12486410Y29979254D01*
X12532030Y30043717D01*
X12613507Y30056413D01*
X12751822Y30017482D01*
X12841853Y29981633D01*
X13002882Y29931146D01*
X13146384Y29936654D01*
X13223031Y29956466D01*
X13392123Y30025683D01*
X13491903Y30124488D01*
X13545688Y30251671D01*
X13561524Y30325415D01*
X13528718Y30341343D01*
X13424397Y30310023D01*
X13421547Y30309030D01*
X13209759Y30270459D01*
X12978460Y30282511D01*
X12767454Y30339427D01*
X12628277Y30423803D01*
X12517583Y30539707D01*
X12447431Y30655741D01*
X12405673Y30803226D01*
X12380163Y31013484D01*
X12375122Y31076596D01*
X12371375Y31347405D01*
X12406856Y31531332D01*
X12480700Y31625303D01*
X12533000Y31637600D01*
X12621884Y31592567D01*
X12679912Y31455903D01*
X12707845Y31225264D01*
X12710800Y31090014D01*
X12717267Y30884762D01*
X12740379Y30754443D01*
X12785700Y30672992D01*
X12803700Y30654874D01*
X12940915Y30589000D01*
X13122839Y30572327D01*
X13305781Y30603978D01*
X13428469Y30667424D01*
X13489434Y30728921D01*
X13527773Y30809807D01*
X13550457Y30935897D01*
X13564458Y31133011D01*
X13566645Y31179148D01*
X13581832Y31401418D01*
X13605316Y31539166D01*
X13640790Y31609364D01*
X13663494Y31624178D01*
X13743504Y31632381D01*
X13801634Y31580530D01*
X13840132Y31459494D01*
X13861244Y31260145D01*
X13867218Y30973353D01*
X13867218Y30973353D01*
G36*
X12303460Y30721686D02*
X12262360Y30544341D01*
X12141543Y30395084D01*
X11948250Y30292140D01*
X11702828Y30240515D01*
X11425625Y30245211D01*
X11215519Y30286904D01*
X11014120Y30362646D01*
X10894862Y30451306D01*
X10864715Y30545506D01*
X10905026Y30615599D01*
X10987277Y30663248D01*
X11094666Y30638054D01*
X11102103Y30634715D01*
X11281940Y30575597D01*
X11480399Y30545455D01*
X11673081Y30543133D01*
X11835589Y30567474D01*
X11943525Y30617321D01*
X11974200Y30676055D01*
X11947329Y30715732D01*
X11856795Y30744497D01*
X11687715Y30765903D01*
X11556429Y30775790D01*
X11247443Y30815048D01*
X11029111Y30888529D01*
X10895357Y30999364D01*
X10840768Y31144812D01*
X10862398Y31332632D01*
X10971398Y31479863D01*
X11159796Y31581024D01*
X11419620Y31630635D01*
X11553468Y31634733D01*
X11792294Y31614999D01*
X11994058Y31566483D01*
X12145458Y31497112D01*
X12233188Y31414808D01*
X12243946Y31327497D01*
X12186177Y31257856D01*
X12106197Y31217173D01*
X12012814Y31226552D01*
X11921108Y31260832D01*
X11743173Y31311308D01*
X11545643Y31331747D01*
X11361803Y31322516D01*
X11224937Y31283980D01*
X11183586Y31252729D01*
X11150175Y31175900D01*
X11201554Y31122798D01*
X11342651Y31091415D01*
X11578392Y31079741D01*
X11608422Y31079578D01*
X11900948Y31054358D01*
X12118039Y30983240D01*
X12254080Y30870818D01*
X12303460Y30721686D01*
X12303460Y30721686D01*
X12303460Y30721686D01*
G37*
X12303460Y30721686D02*
X12262360Y30544341D01*
X12141543Y30395084D01*
X11948250Y30292140D01*
X11702828Y30240515D01*
X11425625Y30245211D01*
X11215519Y30286904D01*
X11014120Y30362646D01*
X10894862Y30451306D01*
X10864715Y30545506D01*
X10905026Y30615599D01*
X10987277Y30663248D01*
X11094666Y30638054D01*
X11102103Y30634715D01*
X11281940Y30575597D01*
X11480399Y30545455D01*
X11673081Y30543133D01*
X11835589Y30567474D01*
X11943525Y30617321D01*
X11974200Y30676055D01*
X11947329Y30715732D01*
X11856795Y30744497D01*
X11687715Y30765903D01*
X11556429Y30775790D01*
X11247443Y30815048D01*
X11029111Y30888529D01*
X10895357Y30999364D01*
X10840768Y31144812D01*
X10862398Y31332632D01*
X10971398Y31479863D01*
X11159796Y31581024D01*
X11419620Y31630635D01*
X11553468Y31634733D01*
X11792294Y31614999D01*
X11994058Y31566483D01*
X12145458Y31497112D01*
X12233188Y31414808D01*
X12243946Y31327497D01*
X12186177Y31257856D01*
X12106197Y31217173D01*
X12012814Y31226552D01*
X11921108Y31260832D01*
X11743173Y31311308D01*
X11545643Y31331747D01*
X11361803Y31322516D01*
X11224937Y31283980D01*
X11183586Y31252729D01*
X11150175Y31175900D01*
X11201554Y31122798D01*
X11342651Y31091415D01*
X11578392Y31079741D01*
X11608422Y31079578D01*
X11900948Y31054358D01*
X12118039Y30983240D01*
X12254080Y30870818D01*
X12303460Y30721686D01*
X12303460Y30721686D01*
G36*
X19567860Y30721686D02*
X19526760Y30544341D01*
X19405572Y30394735D01*
X19210785Y30291782D01*
X18961737Y30241083D01*
X18677766Y30248237D01*
X18567864Y30266639D01*
X18337520Y30329851D01*
X18200136Y30407461D01*
X18147508Y30504468D01*
X18146400Y30523382D01*
X18173176Y30617222D01*
X18260249Y30652602D01*
X18417734Y30631363D01*
X18541160Y30595192D01*
X18729845Y30553482D01*
X18919463Y30543979D01*
X19084456Y30563795D01*
X19199265Y30610042D01*
X19238600Y30674007D01*
X19213828Y30714561D01*
X19128893Y30743481D01*
X18967869Y30764699D01*
X18827854Y30775384D01*
X18528933Y30810924D01*
X18317646Y30875863D01*
X18182944Y30975442D01*
X18113995Y31114023D01*
X18117354Y31290626D01*
X18207179Y31446693D01*
X18368393Y31558300D01*
X18402114Y31571233D01*
X18610787Y31620100D01*
X18829660Y31633485D01*
X19042506Y31616269D01*
X19233098Y31573335D01*
X19385210Y31509563D01*
X19482614Y31429837D01*
X19509084Y31339037D01*
X19459954Y31252983D01*
X19395020Y31202304D01*
X19325634Y31204372D01*
X19222038Y31252030D01*
X19053032Y31307418D01*
X18850025Y31329884D01*
X18652779Y31319134D01*
X18501057Y31274875D01*
X18473609Y31257566D01*
X18414830Y31184056D01*
X18454524Y31129525D01*
X18591234Y31094623D01*
X18823500Y31080001D01*
X18872822Y31079578D01*
X19165348Y31054358D01*
X19382439Y30983240D01*
X19518480Y30870818D01*
X19567860Y30721686D01*
X19567860Y30721686D01*
X19567860Y30721686D01*
G37*
X19567860Y30721686D02*
X19526760Y30544341D01*
X19405572Y30394735D01*
X19210785Y30291782D01*
X18961737Y30241083D01*
X18677766Y30248237D01*
X18567864Y30266639D01*
X18337520Y30329851D01*
X18200136Y30407461D01*
X18147508Y30504468D01*
X18146400Y30523382D01*
X18173176Y30617222D01*
X18260249Y30652602D01*
X18417734Y30631363D01*
X18541160Y30595192D01*
X18729845Y30553482D01*
X18919463Y30543979D01*
X19084456Y30563795D01*
X19199265Y30610042D01*
X19238600Y30674007D01*
X19213828Y30714561D01*
X19128893Y30743481D01*
X18967869Y30764699D01*
X18827854Y30775384D01*
X18528933Y30810924D01*
X18317646Y30875863D01*
X18182944Y30975442D01*
X18113995Y31114023D01*
X18117354Y31290626D01*
X18207179Y31446693D01*
X18368393Y31558300D01*
X18402114Y31571233D01*
X18610787Y31620100D01*
X18829660Y31633485D01*
X19042506Y31616269D01*
X19233098Y31573335D01*
X19385210Y31509563D01*
X19482614Y31429837D01*
X19509084Y31339037D01*
X19459954Y31252983D01*
X19395020Y31202304D01*
X19325634Y31204372D01*
X19222038Y31252030D01*
X19053032Y31307418D01*
X18850025Y31329884D01*
X18652779Y31319134D01*
X18501057Y31274875D01*
X18473609Y31257566D01*
X18414830Y31184056D01*
X18454524Y31129525D01*
X18591234Y31094623D01*
X18823500Y31080001D01*
X18872822Y31079578D01*
X19165348Y31054358D01*
X19382439Y30983240D01*
X19518480Y30870818D01*
X19567860Y30721686D01*
X19567860Y30721686D01*
G36*
X15503259Y30582829D02*
X15484798Y30400841D01*
X15434348Y30300598D01*
X15349781Y30274102D01*
X15337904Y30275403D01*
X15282243Y30291586D01*
X15246265Y30334773D01*
X15223356Y30425801D01*
X15206899Y30585511D01*
X15197770Y30716794D01*
X15167616Y30983589D01*
X15111093Y31164242D01*
X15017808Y31272947D01*
X14877370Y31323897D01*
X14746751Y31332800D01*
X14560048Y31307450D01*
X14435240Y31223669D01*
X14363777Y31069859D01*
X14337110Y30834426D01*
X14336400Y30776176D01*
X14331260Y30540709D01*
X14311728Y30389331D01*
X14271633Y30304864D01*
X14204807Y30270131D01*
X14153164Y30266000D01*
X14031600Y30266000D01*
X14031600Y30927995D01*
X14033540Y31207121D01*
X14040514Y31400277D01*
X14054254Y31523037D01*
X14076490Y31590976D01*
X14108446Y31619478D01*
X14209539Y31615543D01*
X14257599Y31588959D01*
X14351712Y31555478D01*
X14431413Y31583275D01*
X14601416Y31630462D01*
X14813651Y31631260D01*
X15021551Y31588658D01*
X15133739Y31538236D01*
X15305592Y31401124D01*
X15415796Y31226064D01*
X15476915Y30989069D01*
X15491854Y30854559D01*
X15503259Y30582829D01*
X15503259Y30582829D01*
X15503259Y30582829D01*
G37*
X15503259Y30582829D02*
X15484798Y30400841D01*
X15434348Y30300598D01*
X15349781Y30274102D01*
X15337904Y30275403D01*
X15282243Y30291586D01*
X15246265Y30334773D01*
X15223356Y30425801D01*
X15206899Y30585511D01*
X15197770Y30716794D01*
X15167616Y30983589D01*
X15111093Y31164242D01*
X15017808Y31272947D01*
X14877370Y31323897D01*
X14746751Y31332800D01*
X14560048Y31307450D01*
X14435240Y31223669D01*
X14363777Y31069859D01*
X14337110Y30834426D01*
X14336400Y30776176D01*
X14331260Y30540709D01*
X14311728Y30389331D01*
X14271633Y30304864D01*
X14204807Y30270131D01*
X14153164Y30266000D01*
X14031600Y30266000D01*
X14031600Y30927995D01*
X14033540Y31207121D01*
X14040514Y31400277D01*
X14054254Y31523037D01*
X14076490Y31590976D01*
X14108446Y31619478D01*
X14209539Y31615543D01*
X14257599Y31588959D01*
X14351712Y31555478D01*
X14431413Y31583275D01*
X14601416Y31630462D01*
X14813651Y31631260D01*
X15021551Y31588658D01*
X15133739Y31538236D01*
X15305592Y31401124D01*
X15415796Y31226064D01*
X15476915Y30989069D01*
X15491854Y30854559D01*
X15503259Y30582829D01*
X15503259Y30582829D01*
G36*
X16444012Y30443561D02*
X16440041Y30348639D01*
X16368047Y30287297D01*
X16237902Y30265348D01*
X16084705Y30281853D01*
X15943556Y30335874D01*
X15904127Y30362960D01*
X15843025Y30424791D01*
X15803675Y30507014D01*
X15778986Y30635044D01*
X15761864Y30834296D01*
X15758800Y30883660D01*
X15743135Y31094122D01*
X15723981Y31220868D01*
X15696655Y31281779D01*
X15656471Y31294731D01*
X15651276Y31294030D01*
X15547784Y31319834D01*
X15482418Y31406483D01*
X15482818Y31501191D01*
X15553235Y31572212D01*
X15623395Y31596530D01*
X15686496Y31618513D01*
X15724418Y31678196D01*
X15747491Y31799999D01*
X15758800Y31916554D01*
X15779630Y32093331D01*
X15810504Y32191440D01*
X15860014Y32233802D01*
X15879712Y32239052D01*
X15973854Y32228072D01*
X16031995Y32144823D01*
X16059210Y31978718D01*
X16062822Y31857034D01*
X16068284Y31700704D01*
X16090855Y31618915D01*
X16141604Y31584790D01*
X16177900Y31577634D01*
X16275273Y31529873D01*
X16313501Y31446874D01*
X16288447Y31365559D01*
X16206318Y31324029D01*
X16144810Y31307882D01*
X16109636Y31265873D01*
X16093501Y31174865D01*
X16089116Y31011720D01*
X16089000Y30951800D01*
X16090860Y30765770D01*
X16102098Y30658169D01*
X16131198Y30605831D01*
X16186643Y30585589D01*
X16224982Y30580485D01*
X16369441Y30533158D01*
X16444012Y30443561D01*
X16444012Y30443561D01*
X16444012Y30443561D01*
G37*
X16444012Y30443561D02*
X16440041Y30348639D01*
X16368047Y30287297D01*
X16237902Y30265348D01*
X16084705Y30281853D01*
X15943556Y30335874D01*
X15904127Y30362960D01*
X15843025Y30424791D01*
X15803675Y30507014D01*
X15778986Y30635044D01*
X15761864Y30834296D01*
X15758800Y30883660D01*
X15743135Y31094122D01*
X15723981Y31220868D01*
X15696655Y31281779D01*
X15656471Y31294731D01*
X15651276Y31294030D01*
X15547784Y31319834D01*
X15482418Y31406483D01*
X15482818Y31501191D01*
X15553235Y31572212D01*
X15623395Y31596530D01*
X15686496Y31618513D01*
X15724418Y31678196D01*
X15747491Y31799999D01*
X15758800Y31916554D01*
X15779630Y32093331D01*
X15810504Y32191440D01*
X15860014Y32233802D01*
X15879712Y32239052D01*
X15973854Y32228072D01*
X16031995Y32144823D01*
X16059210Y31978718D01*
X16062822Y31857034D01*
X16068284Y31700704D01*
X16090855Y31618915D01*
X16141604Y31584790D01*
X16177900Y31577634D01*
X16275273Y31529873D01*
X16313501Y31446874D01*
X16288447Y31365559D01*
X16206318Y31324029D01*
X16144810Y31307882D01*
X16109636Y31265873D01*
X16093501Y31174865D01*
X16089116Y31011720D01*
X16089000Y30951800D01*
X16090860Y30765770D01*
X16102098Y30658169D01*
X16131198Y30605831D01*
X16186643Y30585589D01*
X16224982Y30580485D01*
X16369441Y30533158D01*
X16444012Y30443561D01*
X16444012Y30443561D01*
G36*
X18023494Y30563459D02*
X17993866Y30386294D01*
X17929060Y30290098D01*
X17845737Y30266000D01*
X17773334Y30292366D01*
X17725680Y30380015D01*
X17699115Y30541779D01*
X17689976Y30790487D01*
X17689893Y30812100D01*
X17669736Y31055294D01*
X17604469Y31215272D01*
X17485008Y31303815D01*
X17302270Y31332706D01*
X17288427Y31332800D01*
X17105575Y31314480D01*
X16978431Y31249877D01*
X16896181Y31124530D01*
X16848012Y30923976D01*
X16827829Y30716794D01*
X16811880Y30507570D01*
X16793118Y30379180D01*
X16765179Y30310920D01*
X16721699Y30282086D01*
X16692365Y30276015D01*
X16588932Y30297937D01*
X16552665Y30343669D01*
X16541863Y30420870D01*
X16532628Y30580442D01*
X16525637Y30803160D01*
X16521563Y31069798D01*
X16520800Y31251046D01*
X16524253Y31610880D01*
X16536125Y31879356D01*
X16558685Y32066529D01*
X16594202Y32182453D01*
X16644944Y32237185D01*
X16713181Y32240779D01*
X16742053Y32231649D01*
X16789090Y32191153D01*
X16815100Y32100554D01*
X16825017Y31938040D01*
X16825600Y31862360D01*
X16828264Y31683521D01*
X16840075Y31587075D01*
X16866756Y31553874D01*
X16914032Y31564767D01*
X16914500Y31564976D01*
X17113995Y31615911D01*
X17346909Y31620971D01*
X17561598Y31581168D01*
X17634788Y31550858D01*
X17808734Y31435816D01*
X17922561Y31292579D01*
X17988956Y31097421D01*
X18020430Y30829612D01*
X18023494Y30563459D01*
X18023494Y30563459D01*
X18023494Y30563459D01*
G37*
X18023494Y30563459D02*
X17993866Y30386294D01*
X17929060Y30290098D01*
X17845737Y30266000D01*
X17773334Y30292366D01*
X17725680Y30380015D01*
X17699115Y30541779D01*
X17689976Y30790487D01*
X17689893Y30812100D01*
X17669736Y31055294D01*
X17604469Y31215272D01*
X17485008Y31303815D01*
X17302270Y31332706D01*
X17288427Y31332800D01*
X17105575Y31314480D01*
X16978431Y31249877D01*
X16896181Y31124530D01*
X16848012Y30923976D01*
X16827829Y30716794D01*
X16811880Y30507570D01*
X16793118Y30379180D01*
X16765179Y30310920D01*
X16721699Y30282086D01*
X16692365Y30276015D01*
X16588932Y30297937D01*
X16552665Y30343669D01*
X16541863Y30420870D01*
X16532628Y30580442D01*
X16525637Y30803160D01*
X16521563Y31069798D01*
X16520800Y31251046D01*
X16524253Y31610880D01*
X16536125Y31879356D01*
X16558685Y32066529D01*
X16594202Y32182453D01*
X16644944Y32237185D01*
X16713181Y32240779D01*
X16742053Y32231649D01*
X16789090Y32191153D01*
X16815100Y32100554D01*
X16825017Y31938040D01*
X16825600Y31862360D01*
X16828264Y31683521D01*
X16840075Y31587075D01*
X16866756Y31553874D01*
X16914032Y31564767D01*
X16914500Y31564976D01*
X17113995Y31615911D01*
X17346909Y31620971D01*
X17561598Y31581168D01*
X17634788Y31550858D01*
X17808734Y31435816D01*
X17922561Y31292579D01*
X17988956Y31097421D01*
X18020430Y30829612D01*
X18023494Y30563459D01*
X18023494Y30563459D01*
G36*
X13349639Y33620121D02*
X13346759Y33470767D01*
X13285647Y33322795D01*
X13169472Y33220890D01*
X13048277Y33179969D01*
X13048277Y33492447D01*
X13045498Y33593005D01*
X12966786Y33668017D01*
X12835504Y33713455D01*
X12675014Y33725292D01*
X12508678Y33699501D01*
X12359860Y33632056D01*
X12336650Y33615113D01*
X12245229Y33530422D01*
X12203116Y33466207D01*
X12202800Y33462713D01*
X12249585Y33440874D01*
X12373950Y33424411D01*
X12551908Y33416093D01*
X12610794Y33415600D01*
X12826896Y33420074D01*
X12960289Y33435672D01*
X13029558Y33465659D01*
X13048277Y33492447D01*
X13048277Y33179969D01*
X12984865Y33158558D01*
X12718459Y33129303D01*
X12638117Y33126411D01*
X12402375Y33113083D01*
X12263350Y33085862D01*
X12216799Y33042248D01*
X12258479Y32979742D01*
X12316601Y32936977D01*
X12558734Y32834621D01*
X12820422Y32831933D01*
X12989944Y32879403D01*
X13165957Y32932506D01*
X13270558Y32925031D01*
X13315993Y32854051D01*
X13320400Y32800410D01*
X13274135Y32705726D01*
X13150802Y32631024D01*
X12973592Y32579836D01*
X12765696Y32555696D01*
X12550304Y32562134D01*
X12350609Y32602684D01*
X12259771Y32638864D01*
X12073619Y32781435D01*
X11953882Y32977481D01*
X11900818Y33203569D01*
X11914682Y33436267D01*
X11995732Y33652141D01*
X12144224Y33827759D01*
X12246020Y33894281D01*
X12483573Y33980675D01*
X12722709Y34005372D01*
X12946156Y33975020D01*
X13136641Y33896264D01*
X13276893Y33775749D01*
X13349639Y33620121D01*
X13349639Y33620121D01*
X13349639Y33620121D01*
G37*
X13349639Y33620121D02*
X13346759Y33470767D01*
X13285647Y33322795D01*
X13169472Y33220890D01*
X13048277Y33179969D01*
X13048277Y33492447D01*
X13045498Y33593005D01*
X12966786Y33668017D01*
X12835504Y33713455D01*
X12675014Y33725292D01*
X12508678Y33699501D01*
X12359860Y33632056D01*
X12336650Y33615113D01*
X12245229Y33530422D01*
X12203116Y33466207D01*
X12202800Y33462713D01*
X12249585Y33440874D01*
X12373950Y33424411D01*
X12551908Y33416093D01*
X12610794Y33415600D01*
X12826896Y33420074D01*
X12960289Y33435672D01*
X13029558Y33465659D01*
X13048277Y33492447D01*
X13048277Y33179969D01*
X12984865Y33158558D01*
X12718459Y33129303D01*
X12638117Y33126411D01*
X12402375Y33113083D01*
X12263350Y33085862D01*
X12216799Y33042248D01*
X12258479Y32979742D01*
X12316601Y32936977D01*
X12558734Y32834621D01*
X12820422Y32831933D01*
X12989944Y32879403D01*
X13165957Y32932506D01*
X13270558Y32925031D01*
X13315993Y32854051D01*
X13320400Y32800410D01*
X13274135Y32705726D01*
X13150802Y32631024D01*
X12973592Y32579836D01*
X12765696Y32555696D01*
X12550304Y32562134D01*
X12350609Y32602684D01*
X12259771Y32638864D01*
X12073619Y32781435D01*
X11953882Y32977481D01*
X11900818Y33203569D01*
X11914682Y33436267D01*
X11995732Y33652141D01*
X12144224Y33827759D01*
X12246020Y33894281D01*
X12483573Y33980675D01*
X12722709Y34005372D01*
X12946156Y33975020D01*
X13136641Y33896264D01*
X13276893Y33775749D01*
X13349639Y33620121D01*
X13349639Y33620121D01*
G36*
X14935365Y33734090D02*
X14919009Y33674541D01*
X14885419Y33638049D01*
X14821421Y33589333D01*
X14750725Y33593125D01*
X14650038Y33639630D01*
X14458211Y33701601D01*
X14248950Y33711565D01*
X14051213Y33674693D01*
X13893962Y33596154D01*
X13809156Y33489525D01*
X13792165Y33396590D01*
X13780434Y33239898D01*
X13776906Y33093946D01*
X13771634Y32906253D01*
X13758718Y32745216D01*
X13745581Y32666300D01*
X13681934Y32577337D01*
X13582829Y32550528D01*
X13506666Y32585867D01*
X13494103Y32646633D01*
X13483649Y32789016D01*
X13476263Y32993040D01*
X13472904Y33238728D01*
X13472800Y33291632D01*
X13474232Y33568090D01*
X13479896Y33759488D01*
X13491842Y33882342D01*
X13512119Y33953167D01*
X13542777Y33988481D01*
X13560359Y33997130D01*
X13663427Y33989033D01*
X13708596Y33947750D01*
X13785919Y33892734D01*
X13862336Y33913686D01*
X14074542Y33984266D01*
X14317805Y34003054D01*
X14559003Y33973345D01*
X14765016Y33898434D01*
X14878286Y33812623D01*
X14935365Y33734090D01*
X14935365Y33734090D01*
X14935365Y33734090D01*
G37*
X14935365Y33734090D02*
X14919009Y33674541D01*
X14885419Y33638049D01*
X14821421Y33589333D01*
X14750725Y33593125D01*
X14650038Y33639630D01*
X14458211Y33701601D01*
X14248950Y33711565D01*
X14051213Y33674693D01*
X13893962Y33596154D01*
X13809156Y33489525D01*
X13792165Y33396590D01*
X13780434Y33239898D01*
X13776906Y33093946D01*
X13771634Y32906253D01*
X13758718Y32745216D01*
X13745581Y32666300D01*
X13681934Y32577337D01*
X13582829Y32550528D01*
X13506666Y32585867D01*
X13494103Y32646633D01*
X13483649Y32789016D01*
X13476263Y32993040D01*
X13472904Y33238728D01*
X13472800Y33291632D01*
X13474232Y33568090D01*
X13479896Y33759488D01*
X13491842Y33882342D01*
X13512119Y33953167D01*
X13542777Y33988481D01*
X13560359Y33997130D01*
X13663427Y33989033D01*
X13708596Y33947750D01*
X13785919Y33892734D01*
X13862336Y33913686D01*
X14074542Y33984266D01*
X14317805Y34003054D01*
X14559003Y33973345D01*
X14765016Y33898434D01*
X14878286Y33812623D01*
X14935365Y33734090D01*
X14935365Y33734090D01*
G36*
X15294819Y33689917D02*
X15293850Y33469225D01*
X15290294Y33269930D01*
X15283855Y32992636D01*
X15275924Y32800726D01*
X15263714Y32677992D01*
X15244435Y32608228D01*
X15215301Y32575225D01*
X15173522Y32562776D01*
X15168521Y32562035D01*
X15072529Y32582538D01*
X15029515Y32663635D01*
X15016328Y32762255D01*
X15005735Y32935003D01*
X14999081Y33154418D01*
X14997493Y33316991D01*
X15004382Y33618682D01*
X15027813Y33828400D01*
X15070573Y33954834D01*
X15135450Y34006677D01*
X15215434Y33996595D01*
X15251151Y33973509D01*
X15275160Y33925644D01*
X15289152Y33836584D01*
X15294819Y33689917D01*
X15294819Y33689917D01*
X15294819Y33689917D01*
G37*
X15294819Y33689917D02*
X15293850Y33469225D01*
X15290294Y33269930D01*
X15283855Y32992636D01*
X15275924Y32800726D01*
X15263714Y32677992D01*
X15244435Y32608228D01*
X15215301Y32575225D01*
X15173522Y32562776D01*
X15168521Y32562035D01*
X15072529Y32582538D01*
X15029515Y32663635D01*
X15016328Y32762255D01*
X15005735Y32935003D01*
X14999081Y33154418D01*
X14997493Y33316991D01*
X15004382Y33618682D01*
X15027813Y33828400D01*
X15070573Y33954834D01*
X15135450Y34006677D01*
X15215434Y33996595D01*
X15251151Y33973509D01*
X15275160Y33925644D01*
X15289152Y33836584D01*
X15294819Y33689917D01*
X15294819Y33689917D01*
G36*
X16825600Y32800410D02*
X16779466Y32705315D01*
X16657067Y32630166D01*
X16482405Y32578512D01*
X16279482Y32553897D01*
X16072301Y32559870D01*
X15884863Y32599978D01*
X15784200Y32646517D01*
X15590076Y32792469D01*
X15476431Y32953491D01*
X15423445Y33160870D01*
X15417186Y33225888D01*
X15438243Y33501065D01*
X15542107Y33720844D01*
X15723104Y33879760D01*
X15975558Y33972349D01*
X16216000Y33995008D01*
X16455666Y33974044D01*
X16649473Y33915801D01*
X16777301Y33828391D01*
X16817042Y33752718D01*
X16809895Y33638118D01*
X16735841Y33595897D01*
X16602453Y33629327D01*
X16569024Y33645532D01*
X16389142Y33699999D01*
X16177629Y33709569D01*
X15975273Y33676939D01*
X15822861Y33604799D01*
X15811964Y33595541D01*
X15699813Y33435789D01*
X15672830Y33256685D01*
X15724333Y33082314D01*
X15847644Y32936762D01*
X16019025Y32848933D01*
X16165953Y32815590D01*
X16295413Y32821186D01*
X16459425Y32868659D01*
X16476863Y32874804D01*
X16658905Y32928234D01*
X16767632Y32927636D01*
X16817650Y32869895D01*
X16825600Y32800410D01*
X16825600Y32800410D01*
X16825600Y32800410D01*
G37*
X16825600Y32800410D02*
X16779466Y32705315D01*
X16657067Y32630166D01*
X16482405Y32578512D01*
X16279482Y32553897D01*
X16072301Y32559870D01*
X15884863Y32599978D01*
X15784200Y32646517D01*
X15590076Y32792469D01*
X15476431Y32953491D01*
X15423445Y33160870D01*
X15417186Y33225888D01*
X15438243Y33501065D01*
X15542107Y33720844D01*
X15723104Y33879760D01*
X15975558Y33972349D01*
X16216000Y33995008D01*
X16455666Y33974044D01*
X16649473Y33915801D01*
X16777301Y33828391D01*
X16817042Y33752718D01*
X16809895Y33638118D01*
X16735841Y33595897D01*
X16602453Y33629327D01*
X16569024Y33645532D01*
X16389142Y33699999D01*
X16177629Y33709569D01*
X15975273Y33676939D01*
X15822861Y33604799D01*
X15811964Y33595541D01*
X15699813Y33435789D01*
X15672830Y33256685D01*
X15724333Y33082314D01*
X15847644Y32936762D01*
X16019025Y32848933D01*
X16165953Y32815590D01*
X16295413Y32821186D01*
X16459425Y32868659D01*
X16476863Y32874804D01*
X16658905Y32928234D01*
X16767632Y32927636D01*
X16817650Y32869895D01*
X16825600Y32800410D01*
X16825600Y32800410D01*
G36*
X18509824Y33370202D02*
X18508400Y33135073D01*
X18498220Y32914329D01*
X18479318Y32731090D01*
X18451729Y32608474D01*
X18425153Y32570123D01*
X18325353Y32574666D01*
X18271248Y32604586D01*
X18220663Y32626790D01*
X18220663Y33326940D01*
X18163512Y33497334D01*
X18033390Y33632094D01*
X17994000Y33654665D01*
X17786282Y33717857D01*
X17574679Y33713185D01*
X17381836Y33650071D01*
X17230397Y33537935D01*
X17143011Y33386198D01*
X17130400Y33295388D01*
X17173323Y33087032D01*
X17291147Y32931435D01*
X17467446Y32836828D01*
X17685800Y32811442D01*
X17929784Y32863507D01*
X17964669Y32877284D01*
X18120202Y32989381D01*
X18205879Y33148444D01*
X18220663Y33326940D01*
X18220663Y32626790D01*
X18184411Y32642701D01*
X18069273Y32611615D01*
X18066305Y32610269D01*
X17915398Y32572197D01*
X17710408Y32557273D01*
X17496194Y32565566D01*
X17317618Y32597144D01*
X17282826Y32609072D01*
X17065649Y32747798D01*
X16915650Y32956089D01*
X16872726Y33073643D01*
X16843988Y33331729D01*
X16909434Y33563846D01*
X17035595Y33745778D01*
X17224491Y33890365D01*
X17468692Y33977642D01*
X17736415Y34002631D01*
X17995877Y33960352D01*
X18109499Y33914016D01*
X18216171Y33902957D01*
X18276069Y33944413D01*
X18369503Y33994537D01*
X18427270Y33992207D01*
X18461215Y33930720D01*
X18486266Y33791144D01*
X18502457Y33596599D01*
X18509824Y33370202D01*
X18509824Y33370202D01*
X18509824Y33370202D01*
G37*
X18509824Y33370202D02*
X18508400Y33135073D01*
X18498220Y32914329D01*
X18479318Y32731090D01*
X18451729Y32608474D01*
X18425153Y32570123D01*
X18325353Y32574666D01*
X18271248Y32604586D01*
X18220663Y32626790D01*
X18220663Y33326940D01*
X18163512Y33497334D01*
X18033390Y33632094D01*
X17994000Y33654665D01*
X17786282Y33717857D01*
X17574679Y33713185D01*
X17381836Y33650071D01*
X17230397Y33537935D01*
X17143011Y33386198D01*
X17130400Y33295388D01*
X17173323Y33087032D01*
X17291147Y32931435D01*
X17467446Y32836828D01*
X17685800Y32811442D01*
X17929784Y32863507D01*
X17964669Y32877284D01*
X18120202Y32989381D01*
X18205879Y33148444D01*
X18220663Y33326940D01*
X18220663Y32626790D01*
X18184411Y32642701D01*
X18069273Y32611615D01*
X18066305Y32610269D01*
X17915398Y32572197D01*
X17710408Y32557273D01*
X17496194Y32565566D01*
X17317618Y32597144D01*
X17282826Y32609072D01*
X17065649Y32747798D01*
X16915650Y32956089D01*
X16872726Y33073643D01*
X16843988Y33331729D01*
X16909434Y33563846D01*
X17035595Y33745778D01*
X17224491Y33890365D01*
X17468692Y33977642D01*
X17736415Y34002631D01*
X17995877Y33960352D01*
X18109499Y33914016D01*
X18216171Y33902957D01*
X18276069Y33944413D01*
X18369503Y33994537D01*
X18427270Y33992207D01*
X18461215Y33930720D01*
X18486266Y33791144D01*
X18502457Y33596599D01*
X18509824Y33370202D01*
X18509824Y33370202D01*
G36*
X15297689Y34428262D02*
X15258054Y34335025D01*
X15221245Y34310036D01*
X15142918Y34283474D01*
X15098167Y34300578D01*
X15057760Y34340160D01*
X15007177Y34443711D01*
X15030902Y34543901D01*
X15109071Y34608110D01*
X15218961Y34604842D01*
X15284529Y34534809D01*
X15297689Y34428262D01*
X15297689Y34428262D01*
X15297689Y34428262D01*
G37*
X15297689Y34428262D02*
X15258054Y34335025D01*
X15221245Y34310036D01*
X15142918Y34283474D01*
X15098167Y34300578D01*
X15057760Y34340160D01*
X15007177Y34443711D01*
X15030902Y34543901D01*
X15109071Y34608110D01*
X15218961Y34604842D01*
X15284529Y34534809D01*
X15297689Y34428262D01*
X15297689Y34428262D01*
G36*
X17563510Y39703810D02*
X17553688Y39264971D01*
X17536517Y39154440D01*
X17416045Y38742098D01*
X17217571Y38374293D01*
X17109283Y38248480D01*
X17109283Y39379063D01*
X17056680Y39713784D01*
X16936473Y40037085D01*
X16753548Y40325283D01*
X16647088Y40442078D01*
X16338902Y40673805D01*
X15970437Y40839732D01*
X15560576Y40937747D01*
X15128203Y40965733D01*
X14692201Y40921577D01*
X14271455Y40803165D01*
X14097232Y40727582D01*
X13775268Y40521709D01*
X13523859Y40260538D01*
X13346026Y39958744D01*
X13244792Y39631000D01*
X13223177Y39291981D01*
X13284203Y38956360D01*
X13430891Y38638811D01*
X13618225Y38401161D01*
X13982641Y38088418D01*
X14374751Y37864787D01*
X14784802Y37732435D01*
X15203037Y37693527D01*
X15619701Y37750230D01*
X15972074Y37878422D01*
X16249490Y38037683D01*
X16520863Y38240432D01*
X16759989Y38463762D01*
X16940664Y38684767D01*
X16992129Y38770083D01*
X17089395Y39056602D01*
X17109283Y39379063D01*
X17109283Y38248480D01*
X16951679Y38065368D01*
X16628954Y37829665D01*
X16516884Y37772724D01*
X16378464Y37704883D01*
X16287645Y37652051D01*
X16266800Y37632211D01*
X16307695Y37596068D01*
X16412675Y37531019D01*
X16503331Y37480946D01*
X16689342Y37374286D01*
X16876366Y37255010D01*
X16935131Y37214015D01*
X17058577Y37111917D01*
X17115796Y37016826D01*
X17130367Y36888234D01*
X17130400Y36878537D01*
X17088611Y36683668D01*
X16975322Y36540683D01*
X16808649Y36469100D01*
X16746125Y36464467D01*
X16619268Y36490804D01*
X16453173Y36557534D01*
X16343000Y36616000D01*
X16198302Y36697752D01*
X16087676Y36752826D01*
X16044686Y36767534D01*
X16027415Y36721097D01*
X16018801Y36596180D01*
X16019917Y36415619D01*
X16023796Y36323900D01*
X16048487Y36041882D01*
X16092846Y35826739D01*
X16163961Y35644530D01*
X16166949Y35638478D01*
X16244635Y35421952D01*
X16235047Y35246087D01*
X16135270Y35094923D01*
X16055322Y35027073D01*
X15910192Y34963371D01*
X15910192Y36746794D01*
X15907976Y36947996D01*
X15894215Y37127920D01*
X15868641Y37255981D01*
X15858612Y37279740D01*
X15827650Y37321192D01*
X15775271Y37349094D01*
X15683396Y37366074D01*
X15533946Y37374762D01*
X15308843Y37377786D01*
X15182972Y37378000D01*
X14861545Y37372639D01*
X14640376Y37356509D01*
X14518689Y37329541D01*
X14498959Y37317040D01*
X14472345Y37241588D01*
X14452450Y37094308D01*
X14440188Y36904805D01*
X14436472Y36702686D01*
X14442217Y36517557D01*
X14458335Y36379024D01*
X14468835Y36340755D01*
X14496618Y36306812D01*
X14560085Y36283738D01*
X14675479Y36269600D01*
X14859047Y36262466D01*
X15127034Y36260405D01*
X15144475Y36260400D01*
X15469351Y36265400D01*
X15694961Y36280506D01*
X15823151Y36305877D01*
X15850239Y36321360D01*
X15881056Y36402892D01*
X15901130Y36554898D01*
X15910192Y36746794D01*
X15910192Y34963371D01*
X15888429Y34953818D01*
X15723164Y34976485D01*
X15566746Y35089548D01*
X15426391Y35287483D01*
X15309319Y35564765D01*
X15295475Y35608688D01*
X15229419Y35799141D01*
X15171123Y35918097D01*
X15126540Y35958086D01*
X15101625Y35911639D01*
X15098400Y35855906D01*
X15069714Y35689286D01*
X14995847Y35484545D01*
X14895087Y35281409D01*
X14785718Y35119604D01*
X14736041Y35068709D01*
X14586268Y34969116D01*
X14446542Y34949329D01*
X14301620Y34990755D01*
X14160003Y35095778D01*
X14093553Y35257900D01*
X14104633Y35463353D01*
X14184000Y35676200D01*
X14238676Y35811482D01*
X14270468Y35971963D01*
X14284108Y36187939D01*
X14285600Y36326791D01*
X14285600Y36778099D01*
X14006969Y36620850D01*
X13746294Y36502220D01*
X13535396Y36469788D01*
X13370748Y36523262D01*
X13321692Y36563908D01*
X13203981Y36724887D01*
X13179216Y36883367D01*
X13249271Y37043336D01*
X13416020Y37208783D01*
X13681337Y37383699D01*
X13716104Y37403400D01*
X13883409Y37499914D01*
X14009851Y37578398D01*
X14074526Y37625676D01*
X14078766Y37632000D01*
X14036430Y37665419D01*
X13927420Y37725679D01*
X13813617Y37781512D01*
X13467343Y37997537D01*
X13183719Y38283990D01*
X12968879Y38626868D01*
X12828957Y39012169D01*
X12770086Y39425890D01*
X12798401Y39854029D01*
X12833592Y40018746D01*
X12987723Y40422779D01*
X13225958Y40776435D01*
X13539676Y41070867D01*
X13920257Y41297232D01*
X14176151Y41396391D01*
X14519064Y41477088D01*
X14912000Y41523593D01*
X15314926Y41534094D01*
X15687807Y41506778D01*
X15873100Y41473232D01*
X16334363Y41321185D01*
X16731476Y41101316D01*
X17058692Y40821636D01*
X17310267Y40490152D01*
X17480454Y40114874D01*
X17563510Y39703810D01*
X17563510Y39703810D01*
X17563510Y39703810D01*
G37*
X17563510Y39703810D02*
X17553688Y39264971D01*
X17536517Y39154440D01*
X17416045Y38742098D01*
X17217571Y38374293D01*
X17109283Y38248480D01*
X17109283Y39379063D01*
X17056680Y39713784D01*
X16936473Y40037085D01*
X16753548Y40325283D01*
X16647088Y40442078D01*
X16338902Y40673805D01*
X15970437Y40839732D01*
X15560576Y40937747D01*
X15128203Y40965733D01*
X14692201Y40921577D01*
X14271455Y40803165D01*
X14097232Y40727582D01*
X13775268Y40521709D01*
X13523859Y40260538D01*
X13346026Y39958744D01*
X13244792Y39631000D01*
X13223177Y39291981D01*
X13284203Y38956360D01*
X13430891Y38638811D01*
X13618225Y38401161D01*
X13982641Y38088418D01*
X14374751Y37864787D01*
X14784802Y37732435D01*
X15203037Y37693527D01*
X15619701Y37750230D01*
X15972074Y37878422D01*
X16249490Y38037683D01*
X16520863Y38240432D01*
X16759989Y38463762D01*
X16940664Y38684767D01*
X16992129Y38770083D01*
X17089395Y39056602D01*
X17109283Y39379063D01*
X17109283Y38248480D01*
X16951679Y38065368D01*
X16628954Y37829665D01*
X16516884Y37772724D01*
X16378464Y37704883D01*
X16287645Y37652051D01*
X16266800Y37632211D01*
X16307695Y37596068D01*
X16412675Y37531019D01*
X16503331Y37480946D01*
X16689342Y37374286D01*
X16876366Y37255010D01*
X16935131Y37214015D01*
X17058577Y37111917D01*
X17115796Y37016826D01*
X17130367Y36888234D01*
X17130400Y36878537D01*
X17088611Y36683668D01*
X16975322Y36540683D01*
X16808649Y36469100D01*
X16746125Y36464467D01*
X16619268Y36490804D01*
X16453173Y36557534D01*
X16343000Y36616000D01*
X16198302Y36697752D01*
X16087676Y36752826D01*
X16044686Y36767534D01*
X16027415Y36721097D01*
X16018801Y36596180D01*
X16019917Y36415619D01*
X16023796Y36323900D01*
X16048487Y36041882D01*
X16092846Y35826739D01*
X16163961Y35644530D01*
X16166949Y35638478D01*
X16244635Y35421952D01*
X16235047Y35246087D01*
X16135270Y35094923D01*
X16055322Y35027073D01*
X15910192Y34963371D01*
X15910192Y36746794D01*
X15907976Y36947996D01*
X15894215Y37127920D01*
X15868641Y37255981D01*
X15858612Y37279740D01*
X15827650Y37321192D01*
X15775271Y37349094D01*
X15683396Y37366074D01*
X15533946Y37374762D01*
X15308843Y37377786D01*
X15182972Y37378000D01*
X14861545Y37372639D01*
X14640376Y37356509D01*
X14518689Y37329541D01*
X14498959Y37317040D01*
X14472345Y37241588D01*
X14452450Y37094308D01*
X14440188Y36904805D01*
X14436472Y36702686D01*
X14442217Y36517557D01*
X14458335Y36379024D01*
X14468835Y36340755D01*
X14496618Y36306812D01*
X14560085Y36283738D01*
X14675479Y36269600D01*
X14859047Y36262466D01*
X15127034Y36260405D01*
X15144475Y36260400D01*
X15469351Y36265400D01*
X15694961Y36280506D01*
X15823151Y36305877D01*
X15850239Y36321360D01*
X15881056Y36402892D01*
X15901130Y36554898D01*
X15910192Y36746794D01*
X15910192Y34963371D01*
X15888429Y34953818D01*
X15723164Y34976485D01*
X15566746Y35089548D01*
X15426391Y35287483D01*
X15309319Y35564765D01*
X15295475Y35608688D01*
X15229419Y35799141D01*
X15171123Y35918097D01*
X15126540Y35958086D01*
X15101625Y35911639D01*
X15098400Y35855906D01*
X15069714Y35689286D01*
X14995847Y35484545D01*
X14895087Y35281409D01*
X14785718Y35119604D01*
X14736041Y35068709D01*
X14586268Y34969116D01*
X14446542Y34949329D01*
X14301620Y34990755D01*
X14160003Y35095778D01*
X14093553Y35257900D01*
X14104633Y35463353D01*
X14184000Y35676200D01*
X14238676Y35811482D01*
X14270468Y35971963D01*
X14284108Y36187939D01*
X14285600Y36326791D01*
X14285600Y36778099D01*
X14006969Y36620850D01*
X13746294Y36502220D01*
X13535396Y36469788D01*
X13370748Y36523262D01*
X13321692Y36563908D01*
X13203981Y36724887D01*
X13179216Y36883367D01*
X13249271Y37043336D01*
X13416020Y37208783D01*
X13681337Y37383699D01*
X13716104Y37403400D01*
X13883409Y37499914D01*
X14009851Y37578398D01*
X14074526Y37625676D01*
X14078766Y37632000D01*
X14036430Y37665419D01*
X13927420Y37725679D01*
X13813617Y37781512D01*
X13467343Y37997537D01*
X13183719Y38283990D01*
X12968879Y38626868D01*
X12828957Y39012169D01*
X12770086Y39425890D01*
X12798401Y39854029D01*
X12833592Y40018746D01*
X12987723Y40422779D01*
X13225958Y40776435D01*
X13539676Y41070867D01*
X13920257Y41297232D01*
X14176151Y41396391D01*
X14519064Y41477088D01*
X14912000Y41523593D01*
X15314926Y41534094D01*
X15687807Y41506778D01*
X15873100Y41473232D01*
X16334363Y41321185D01*
X16731476Y41101316D01*
X17058692Y40821636D01*
X17310267Y40490152D01*
X17480454Y40114874D01*
X17563510Y39703810D01*
X17563510Y39703810D01*
G36*
X15326580Y38095116D02*
X15319583Y38062791D01*
X15243573Y37978765D01*
X15130832Y37976683D01*
X15069683Y38009144D01*
X15010758Y38101206D01*
X15034426Y38202686D01*
X15129993Y38276407D01*
X15221640Y38266443D01*
X15298163Y38193624D01*
X15326580Y38095116D01*
X15326580Y38095116D01*
X15326580Y38095116D01*
G37*
X15326580Y38095116D02*
X15319583Y38062791D01*
X15243573Y37978765D01*
X15130832Y37976683D01*
X15069683Y38009144D01*
X15010758Y38101206D01*
X15034426Y38202686D01*
X15129993Y38276407D01*
X15221640Y38266443D01*
X15298163Y38193624D01*
X15326580Y38095116D01*
X15326580Y38095116D01*
G36*
X14751019Y38969528D02*
X14695692Y38766707D01*
X14672686Y38726360D01*
X14550850Y38617743D01*
X14398423Y38596641D01*
X14234944Y38662197D01*
X14132817Y38750010D01*
X13970678Y38986780D01*
X13870010Y39267506D01*
X13837341Y39560234D01*
X13879203Y39833014D01*
X13899962Y39889337D01*
X13999715Y40041779D01*
X14133247Y40098627D01*
X14303384Y40060878D01*
X14338325Y40044005D01*
X14488851Y39915340D01*
X14612561Y39715277D01*
X14702277Y39472097D01*
X14750822Y39214086D01*
X14751019Y38969528D01*
X14751019Y38969528D01*
X14751019Y38969528D01*
G37*
X14751019Y38969528D02*
X14695692Y38766707D01*
X14672686Y38726360D01*
X14550850Y38617743D01*
X14398423Y38596641D01*
X14234944Y38662197D01*
X14132817Y38750010D01*
X13970678Y38986780D01*
X13870010Y39267506D01*
X13837341Y39560234D01*
X13879203Y39833014D01*
X13899962Y39889337D01*
X13999715Y40041779D01*
X14133247Y40098627D01*
X14303384Y40060878D01*
X14338325Y40044005D01*
X14488851Y39915340D01*
X14612561Y39715277D01*
X14702277Y39472097D01*
X14750822Y39214086D01*
X14751019Y38969528D01*
X14751019Y38969528D01*
G36*
X16490465Y39606460D02*
X16450162Y39246549D01*
X16330830Y38944748D01*
X16205359Y38770643D01*
X16045099Y38638632D01*
X15884168Y38597294D01*
X15737061Y38648745D01*
X15686168Y38694858D01*
X15597337Y38862826D01*
X15568688Y39082160D01*
X15592987Y39328211D01*
X15663000Y39576333D01*
X15771492Y39801880D01*
X15911231Y39980205D01*
X16074981Y40086661D01*
X16096723Y40093671D01*
X16224943Y40083121D01*
X16348909Y40002003D01*
X16434807Y39913692D01*
X16477185Y39815725D01*
X16490188Y39668577D01*
X16490465Y39606460D01*
X16490465Y39606460D01*
X16490465Y39606460D01*
G37*
X16490465Y39606460D02*
X16450162Y39246549D01*
X16330830Y38944748D01*
X16205359Y38770643D01*
X16045099Y38638632D01*
X15884168Y38597294D01*
X15737061Y38648745D01*
X15686168Y38694858D01*
X15597337Y38862826D01*
X15568688Y39082160D01*
X15592987Y39328211D01*
X15663000Y39576333D01*
X15771492Y39801880D01*
X15911231Y39980205D01*
X16074981Y40086661D01*
X16096723Y40093671D01*
X16224943Y40083121D01*
X16348909Y40002003D01*
X16434807Y39913692D01*
X16477185Y39815725D01*
X16490188Y39668577D01*
X16490465Y39606460D01*
X16490465Y39606460D01*
D12*
X6900000Y45300000D02*
G75*
G03X6900000Y45300000I-1000000J0D01*
G01*
X6900000Y41700000D02*
G75*
G03X6900000Y41700000I-1000000J0D01*
G01*
X31600000Y6500000D02*
G75*
G03X31600000Y6500000I-1000000J0D01*
G01*
X21400000Y11400000D02*
G75*
G03X21400000Y11400000I-1000000J0D01*
G01*
X103000Y48787000D02*
X103000Y28213000D01*
X103000Y28213000D02*
X2262000Y28213000D01*
X2262000Y28213000D02*
X2897000Y28848000D01*
X2897000Y28848000D02*
X2897000Y48787000D01*
X2897000Y48787000D02*
X103000Y48787000D01*
D13*
X21200000Y47100000D02*
X46800000Y47100000D01*
X46800000Y47100000D02*
X46800000Y49300000D01*
X46800000Y49300000D02*
X46200000Y49900000D01*
X46200000Y49900000D02*
X21200000Y49900000D01*
X21200000Y49900000D02*
X21200000Y47100000D01*
D12*
X46397000Y213000D02*
X46397000Y20787000D01*
X46397000Y20787000D02*
X44238000Y20787000D01*
X44238000Y20787000D02*
X43603000Y20152000D01*
X43603000Y20152000D02*
X43603000Y213000D01*
X43603000Y213000D02*
X46397000Y213000D01*
D10*
X5016666Y44133334D02*
X5416666Y44133334D01*
X5216666Y43433334D02*
X5216666Y44133334D01*
X5650000Y43433334D02*
X5650000Y44133334D01*
X5916666Y44133334D01*
X5983333Y44100000D01*
X6016666Y44066667D01*
X6050000Y44000000D01*
X6050000Y43900000D01*
X6016666Y43833334D01*
X5983333Y43800000D01*
X5916666Y43766667D01*
X5650000Y43766667D01*
X6716666Y43433334D02*
X6316666Y43433334D01*
X6516666Y43433334D02*
X6516666Y44133334D01*
X6450000Y44033334D01*
X6383333Y43966667D01*
X6316666Y43933334D01*
X4983333Y40483334D02*
X5383333Y40483334D01*
X5183333Y39783334D02*
X5183333Y40483334D01*
X5616666Y39783334D02*
X5616666Y40483334D01*
X5883333Y40483334D01*
X5950000Y40450000D01*
X5983333Y40416667D01*
X6016666Y40350000D01*
X6016666Y40250000D01*
X5983333Y40183334D01*
X5950000Y40150000D01*
X5883333Y40116667D01*
X5616666Y40116667D01*
X6683333Y39783334D02*
X6283333Y39783334D01*
X6483333Y39783334D02*
X6483333Y40483334D01*
X6416666Y40383334D01*
X6350000Y40316667D01*
X6283333Y40283334D01*
X6916666Y40483334D02*
X7350000Y40483334D01*
X7116666Y40216667D01*
X7216666Y40216667D01*
X7283333Y40183334D01*
X7316666Y40150000D01*
X7350000Y40083334D01*
X7350000Y39916667D01*
X7316666Y39850000D01*
X7283333Y39816667D01*
X7216666Y39783334D01*
X7016666Y39783334D01*
X6950000Y39816667D01*
X6916666Y39850000D01*
X29383333Y5283334D02*
X29783333Y5283334D01*
X29583333Y4583334D02*
X29583333Y5283334D01*
X30016666Y4583334D02*
X30016666Y5283334D01*
X30283333Y5283334D01*
X30350000Y5250000D01*
X30383333Y5216667D01*
X30416666Y5150000D01*
X30416666Y5050000D01*
X30383333Y4983334D01*
X30350000Y4950000D01*
X30283333Y4916667D01*
X30016666Y4916667D01*
X30683333Y5216667D02*
X30716666Y5250000D01*
X30783333Y5283334D01*
X30950000Y5283334D01*
X31016666Y5250000D01*
X31050000Y5216667D01*
X31083333Y5150000D01*
X31083333Y5083334D01*
X31050000Y4983334D01*
X30650000Y4583334D01*
X31083333Y4583334D01*
X31350000Y5216667D02*
X31383333Y5250000D01*
X31450000Y5283334D01*
X31616666Y5283334D01*
X31683333Y5250000D01*
X31716666Y5216667D01*
X31750000Y5150000D01*
X31750000Y5083334D01*
X31716666Y4983334D01*
X31316666Y4583334D01*
X31750000Y4583334D01*
X19183333Y10233334D02*
X19583333Y10233334D01*
X19383333Y9533334D02*
X19383333Y10233334D01*
X19816666Y9533334D02*
X19816666Y10233334D01*
X20083333Y10233334D01*
X20150000Y10200000D01*
X20183333Y10166667D01*
X20216666Y10100000D01*
X20216666Y10000000D01*
X20183333Y9933334D01*
X20150000Y9900000D01*
X20083333Y9866667D01*
X19816666Y9866667D01*
X20483333Y10166667D02*
X20516666Y10200000D01*
X20583333Y10233334D01*
X20750000Y10233334D01*
X20816666Y10200000D01*
X20850000Y10166667D01*
X20883333Y10100000D01*
X20883333Y10033334D01*
X20850000Y9933334D01*
X20450000Y9533334D01*
X20883333Y9533334D01*
X21116666Y10233334D02*
X21550000Y10233334D01*
X21316666Y9966667D01*
X21416666Y9966667D01*
X21483333Y9933334D01*
X21516666Y9900000D01*
X21550000Y9833334D01*
X21550000Y9666667D01*
X21516666Y9600000D01*
X21483333Y9566667D01*
X21416666Y9533334D01*
X21216666Y9533334D01*
X21150000Y9566667D01*
X21116666Y9600000D01*
X3283333Y38883334D02*
X3750000Y38183334D01*
X3750000Y38883334D02*
X3283333Y38183334D01*
X4016666Y38183334D02*
X4016666Y38883334D01*
X4283333Y38883334D01*
X4350000Y38850000D01*
X4383333Y38816667D01*
X4416666Y38750000D01*
X4416666Y38650000D01*
X4383333Y38583334D01*
X4350000Y38550000D01*
X4283333Y38516667D01*
X4016666Y38516667D01*
X4650000Y38883334D02*
X5083333Y38883334D01*
X4850000Y38616667D01*
X4950000Y38616667D01*
X5016666Y38583334D01*
X5050000Y38550000D01*
X5083333Y38483334D01*
X5083333Y38316667D01*
X5050000Y38250000D01*
X5016666Y38216667D01*
X4950000Y38183334D01*
X4750000Y38183334D01*
X4683333Y38216667D01*
X4650000Y38250000D01*
X34183333Y46783334D02*
X34650000Y46083334D01*
X34650000Y46783334D02*
X34183333Y46083334D01*
X34916666Y46083334D02*
X34916666Y46783334D01*
X35183333Y46783334D01*
X35250000Y46750000D01*
X35283333Y46716667D01*
X35316666Y46650000D01*
X35316666Y46550000D01*
X35283333Y46483334D01*
X35250000Y46450000D01*
X35183333Y46416667D01*
X34916666Y46416667D01*
X35916666Y46550000D02*
X35916666Y46083334D01*
X35750000Y46816667D02*
X35583333Y46316667D01*
X36016666Y46316667D01*
X41383333Y10983334D02*
X41850000Y10283334D01*
X41850000Y10983334D02*
X41383333Y10283334D01*
X42116666Y10283334D02*
X42116666Y10983334D01*
X42383333Y10983334D01*
X42450000Y10950000D01*
X42483333Y10916667D01*
X42516666Y10850000D01*
X42516666Y10750000D01*
X42483333Y10683334D01*
X42450000Y10650000D01*
X42383333Y10616667D01*
X42116666Y10616667D01*
X43150000Y10983334D02*
X42816666Y10983334D01*
X42783333Y10650000D01*
X42816666Y10683334D01*
X42883333Y10716667D01*
X43050000Y10716667D01*
X43116666Y10683334D01*
X43150000Y10650000D01*
X43183333Y10583334D01*
X43183333Y10416667D01*
X43150000Y10350000D01*
X43116666Y10316667D01*
X43050000Y10283334D01*
X42883333Y10283334D01*
X42816666Y10316667D01*
X42783333Y10350000D01*
M02*
