%FSLAX45Y45*%
G04 Gerber Fmt 4.5, Leading zero omitted, Abs format (unit mm)*
G04 Created by KiCad (PCBNEW (5.0.0-rc2)) date Wed Jul  8 18:21:42 2020*
%MOMM*%
%LPD*%
G01*
G04 APERTURE LIST*
%ADD10C,0.120000*%
%ADD11C,0.200000*%
%ADD12C,0.300000*%
G04 APERTURE END LIST*
D10*
X0Y12850000D02*
X0Y0D01*
X7080000Y12850000D02*
X0Y12850000D01*
X7080000Y0D02*
X7080000Y12850000D01*
X0Y0D02*
X7080000Y0D01*
D11*
X4130000Y5160000D02*
X4450000Y4840000D01*
X4450000Y5160000D02*
X4130000Y4840000D01*
X2630000Y5160000D02*
X2950000Y4840000D01*
X2950000Y5160000D02*
X2630000Y4840000D01*
X6180000Y12710000D02*
X6500000Y12390000D01*
X6500000Y12710000D02*
X6180000Y12390000D01*
X6250000Y12400000D02*
X6430000Y12400000D01*
X6250000Y12700000D02*
X6430000Y12700000D01*
X6430000Y12400000D02*
G75*
G03X6430000Y12700000I0J150000D01*
G01*
X6250000Y12700000D02*
G75*
G03X6250000Y12400000I0J-150000D01*
G01*
X590000Y460000D02*
X910000Y140000D01*
X910000Y460000D02*
X590000Y140000D01*
X660000Y150000D02*
X840000Y150000D01*
X660000Y450000D02*
X840000Y450000D01*
X840000Y150000D02*
G75*
G03X840000Y450000I0J150000D01*
G01*
X660000Y450000D02*
G75*
G03X660000Y150000I0J-150000D01*
G01*
X6180000Y460000D02*
X6500000Y140000D01*
X6500000Y460000D02*
X6180000Y140000D01*
X6250000Y150000D02*
X6430000Y150000D01*
X6250000Y450000D02*
X6430000Y450000D01*
X6430000Y150000D02*
G75*
G03X6430000Y450000I0J150000D01*
G01*
X6250000Y450000D02*
G75*
G03X6250000Y150000I0J-150000D01*
G01*
X1130000Y5160000D02*
X1450000Y4840000D01*
X1450000Y5160000D02*
X1130000Y4840000D01*
X5630000Y5160000D02*
X5950000Y4840000D01*
X5950000Y5160000D02*
X5630000Y4840000D01*
X590000Y12710000D02*
X910000Y12390000D01*
X910000Y12710000D02*
X590000Y12390000D01*
X660000Y12400000D02*
X840000Y12400000D01*
X660000Y12700000D02*
X840000Y12700000D01*
X840000Y12400000D02*
G75*
G03X840000Y12700000I0J150000D01*
G01*
X660000Y12700000D02*
G75*
G03X660000Y12400000I0J-150000D01*
G01*
X1115000Y1900000D02*
G75*
G03X1115000Y1900000I-325000J0D01*
G01*
X6615000Y1900000D02*
G75*
G03X6615000Y1900000I-325000J0D01*
G01*
X3315000Y1900000D02*
G75*
G03X3315000Y1900000I-325000J0D01*
G01*
X5515000Y1900000D02*
G75*
G03X5515000Y1900000I-325000J0D01*
G01*
X2215000Y1900000D02*
G75*
G03X2215000Y1900000I-325000J0D01*
G01*
X6115000Y9600000D02*
G75*
G03X6115000Y9600000I-325000J0D01*
G01*
X4415000Y1900000D02*
G75*
G03X4415000Y1900000I-325000J0D01*
G01*
X1290000Y8075000D02*
X1290000Y7325000D01*
X915000Y7700000D02*
X1665000Y7700000D01*
X3540000Y10875000D02*
X3540000Y10125000D01*
X3165000Y10500000D02*
X3915000Y10500000D01*
X3540000Y6825000D02*
X3540000Y6075000D01*
X3165000Y6450000D02*
X3915000Y6450000D01*
X5790000Y8075000D02*
X5790000Y7325000D01*
X5415000Y7700000D02*
X6165000Y7700000D01*
X3143557Y3546443D02*
X3143557Y4253557D01*
X2436443Y4253557D01*
X2436443Y3546443D01*
X3143557Y3546443D01*
X1643557Y3546443D02*
X1643557Y4253557D01*
X936443Y4253557D01*
X936443Y3546443D01*
X1643557Y3546443D01*
X4643557Y3546443D02*
X4643557Y4253557D01*
X3936443Y4253557D01*
X3936443Y3546443D01*
X4643557Y3546443D01*
X6143557Y3546443D02*
X6143557Y4253557D01*
X5436443Y4253557D01*
X5436443Y3546443D01*
X6143557Y3546443D01*
D12*
X280428Y-471714D02*
X280428Y-171714D01*
X351857Y-171714D01*
X394714Y-186000D01*
X423286Y-214571D01*
X437571Y-243143D01*
X451857Y-300286D01*
X451857Y-343143D01*
X437571Y-400286D01*
X423286Y-428857D01*
X394714Y-457429D01*
X351857Y-471714D01*
X280428Y-471714D01*
X580428Y-471714D02*
X580428Y-271714D01*
X580428Y-328857D02*
X594714Y-300286D01*
X609000Y-286000D01*
X637571Y-271714D01*
X666143Y-271714D01*
X766143Y-471714D02*
X766143Y-271714D01*
X766143Y-171714D02*
X751857Y-186000D01*
X766143Y-200286D01*
X780428Y-186000D01*
X766143Y-171714D01*
X766143Y-200286D01*
X951857Y-471714D02*
X923286Y-457429D01*
X909000Y-428857D01*
X909000Y-171714D01*
X1109000Y-471714D02*
X1080428Y-457429D01*
X1066143Y-428857D01*
X1066143Y-171714D01*
X1451857Y-471714D02*
X1451857Y-171714D01*
X1551857Y-386000D01*
X1651857Y-171714D01*
X1651857Y-471714D01*
X1923286Y-471714D02*
X1923286Y-314572D01*
X1909000Y-286000D01*
X1880428Y-271714D01*
X1823286Y-271714D01*
X1794714Y-286000D01*
X1923286Y-457429D02*
X1894714Y-471714D01*
X1823286Y-471714D01*
X1794714Y-457429D01*
X1780428Y-428857D01*
X1780428Y-400286D01*
X1794714Y-371714D01*
X1823286Y-357429D01*
X1894714Y-357429D01*
X1923286Y-343143D01*
X2066143Y-271714D02*
X2066143Y-571714D01*
X2066143Y-286000D02*
X2094714Y-271714D01*
X2151857Y-271714D01*
X2180428Y-286000D01*
X2194714Y-300286D01*
X2209000Y-328857D01*
X2209000Y-414571D01*
X2194714Y-443143D01*
X2180428Y-457429D01*
X2151857Y-471714D01*
X2094714Y-471714D01*
X2066143Y-457429D01*
X2337571Y-443143D02*
X2351857Y-457429D01*
X2337571Y-471714D01*
X2323286Y-457429D01*
X2337571Y-443143D01*
X2337571Y-471714D01*
X2337571Y-286000D02*
X2351857Y-300286D01*
X2337571Y-314572D01*
X2323286Y-300286D01*
X2337571Y-286000D01*
X2337571Y-314572D01*
X-326000Y-806000D02*
X-6000Y-1126000D01*
X-6000Y-806000D02*
X-326000Y-1126000D01*
X251857Y-801714D02*
X437571Y-801714D01*
X337571Y-916000D01*
X380428Y-916000D01*
X409000Y-930286D01*
X423286Y-944571D01*
X437571Y-973143D01*
X437571Y-1044571D01*
X423286Y-1073143D01*
X409000Y-1087429D01*
X380428Y-1101714D01*
X294714Y-1101714D01*
X266143Y-1087429D01*
X251857Y-1073143D01*
X566143Y-1073143D02*
X580428Y-1087429D01*
X566143Y-1101714D01*
X551857Y-1087429D01*
X566143Y-1073143D01*
X566143Y-1101714D01*
X694714Y-830286D02*
X709000Y-816000D01*
X737571Y-801714D01*
X809000Y-801714D01*
X837571Y-816000D01*
X851857Y-830286D01*
X866143Y-858857D01*
X866143Y-887429D01*
X851857Y-930286D01*
X680428Y-1101714D01*
X866143Y-1101714D01*
X1051857Y-801714D02*
X1080428Y-801714D01*
X1109000Y-816000D01*
X1123286Y-830286D01*
X1137571Y-858857D01*
X1151857Y-916000D01*
X1151857Y-987429D01*
X1137571Y-1044571D01*
X1123286Y-1073143D01*
X1109000Y-1087429D01*
X1080428Y-1101714D01*
X1051857Y-1101714D01*
X1023286Y-1087429D01*
X1009000Y-1073143D01*
X994714Y-1044571D01*
X980428Y-987429D01*
X980428Y-916000D01*
X994714Y-858857D01*
X1009000Y-830286D01*
X1023286Y-816000D01*
X1051857Y-801714D01*
X1280428Y-1101714D02*
X1280428Y-901714D01*
X1280428Y-930286D02*
X1294714Y-916000D01*
X1323286Y-901714D01*
X1366143Y-901714D01*
X1394714Y-916000D01*
X1409000Y-944571D01*
X1409000Y-1101714D01*
X1409000Y-944571D02*
X1423286Y-916000D01*
X1451857Y-901714D01*
X1494714Y-901714D01*
X1523286Y-916000D01*
X1537571Y-944571D01*
X1537571Y-1101714D01*
X1680428Y-1101714D02*
X1680428Y-901714D01*
X1680428Y-930286D02*
X1694714Y-916000D01*
X1723286Y-901714D01*
X1766143Y-901714D01*
X1794714Y-916000D01*
X1809000Y-944571D01*
X1809000Y-1101714D01*
X1809000Y-944571D02*
X1823286Y-916000D01*
X1851857Y-901714D01*
X1894714Y-901714D01*
X1923286Y-916000D01*
X1937571Y-944571D01*
X1937571Y-1101714D01*
X2523286Y-787429D02*
X2266143Y-1173143D01*
X2909000Y-801714D02*
X2937571Y-801714D01*
X2966143Y-816000D01*
X2980428Y-830286D01*
X2994714Y-858857D01*
X3009000Y-916000D01*
X3009000Y-987429D01*
X2994714Y-1044571D01*
X2980428Y-1073143D01*
X2966143Y-1087429D01*
X2937571Y-1101714D01*
X2909000Y-1101714D01*
X2880428Y-1087429D01*
X2866143Y-1073143D01*
X2851857Y-1044571D01*
X2837571Y-987429D01*
X2837571Y-916000D01*
X2851857Y-858857D01*
X2866143Y-830286D01*
X2880428Y-816000D01*
X2909000Y-801714D01*
X3137571Y-1073143D02*
X3151857Y-1087429D01*
X3137571Y-1101714D01*
X3123286Y-1087429D01*
X3137571Y-1073143D01*
X3137571Y-1101714D01*
X3437571Y-1101714D02*
X3266143Y-1101714D01*
X3351857Y-1101714D02*
X3351857Y-801714D01*
X3323286Y-844571D01*
X3294714Y-873143D01*
X3266143Y-887429D01*
X3551857Y-830286D02*
X3566143Y-816000D01*
X3594714Y-801714D01*
X3666143Y-801714D01*
X3694714Y-816000D01*
X3709000Y-830286D01*
X3723286Y-858857D01*
X3723286Y-887429D01*
X3709000Y-930286D01*
X3537571Y-1101714D01*
X3723286Y-1101714D01*
X3980428Y-801714D02*
X3923286Y-801714D01*
X3894714Y-816000D01*
X3880428Y-830286D01*
X3851857Y-873143D01*
X3837571Y-930286D01*
X3837571Y-1044571D01*
X3851857Y-1073143D01*
X3866143Y-1087429D01*
X3894714Y-1101714D01*
X3951857Y-1101714D01*
X3980428Y-1087429D01*
X3994714Y-1073143D01*
X4009000Y-1044571D01*
X4009000Y-973143D01*
X3994714Y-944571D01*
X3980428Y-930286D01*
X3951857Y-916000D01*
X3894714Y-916000D01*
X3866143Y-930286D01*
X3851857Y-944571D01*
X3837571Y-973143D01*
X4123286Y-801714D02*
X4123286Y-858857D01*
X4237571Y-801714D02*
X4237571Y-858857D01*
X4680428Y-1216000D02*
X4666143Y-1201714D01*
X4637571Y-1158857D01*
X4623286Y-1130286D01*
X4609000Y-1087429D01*
X4594714Y-1016000D01*
X4594714Y-958857D01*
X4609000Y-887429D01*
X4623286Y-844571D01*
X4637571Y-816000D01*
X4666143Y-773143D01*
X4680428Y-758857D01*
X4923286Y-901714D02*
X4923286Y-1101714D01*
X4851857Y-787429D02*
X4780428Y-1001714D01*
X4966143Y-1001714D01*
X5309000Y-1101714D02*
X5309000Y-801714D01*
X5437571Y-1101714D02*
X5437571Y-944571D01*
X5423286Y-916000D01*
X5394714Y-901714D01*
X5351857Y-901714D01*
X5323286Y-916000D01*
X5309000Y-930286D01*
X5623286Y-1101714D02*
X5594714Y-1087429D01*
X5580428Y-1073143D01*
X5566143Y-1044571D01*
X5566143Y-958857D01*
X5580428Y-930286D01*
X5594714Y-916000D01*
X5623286Y-901714D01*
X5666143Y-901714D01*
X5694714Y-916000D01*
X5709000Y-930286D01*
X5723286Y-958857D01*
X5723286Y-1044571D01*
X5709000Y-1073143D01*
X5694714Y-1087429D01*
X5666143Y-1101714D01*
X5623286Y-1101714D01*
X5894714Y-1101714D02*
X5866143Y-1087429D01*
X5851857Y-1058857D01*
X5851857Y-801714D01*
X6123286Y-1087429D02*
X6094714Y-1101714D01*
X6037571Y-1101714D01*
X6009000Y-1087429D01*
X5994714Y-1058857D01*
X5994714Y-944571D01*
X6009000Y-916000D01*
X6037571Y-901714D01*
X6094714Y-901714D01*
X6123286Y-916000D01*
X6137571Y-944571D01*
X6137571Y-973143D01*
X5994714Y-1001714D01*
X6251857Y-1087429D02*
X6280428Y-1101714D01*
X6337571Y-1101714D01*
X6366143Y-1087429D01*
X6380428Y-1058857D01*
X6380428Y-1044571D01*
X6366143Y-1016000D01*
X6337571Y-1001714D01*
X6294714Y-1001714D01*
X6266143Y-987429D01*
X6251857Y-958857D01*
X6251857Y-944571D01*
X6266143Y-916000D01*
X6294714Y-901714D01*
X6337571Y-901714D01*
X6366143Y-916000D01*
X6737571Y-987429D02*
X6966143Y-987429D01*
X6851857Y-1101714D02*
X6851857Y-873143D01*
X7466143Y-901714D02*
X7466143Y-1101714D01*
X7394714Y-787429D02*
X7323286Y-1001714D01*
X7509000Y-1001714D01*
X7837571Y-1087429D02*
X7866143Y-1101714D01*
X7923286Y-1101714D01*
X7951857Y-1087429D01*
X7966143Y-1058857D01*
X7966143Y-1044571D01*
X7951857Y-1016000D01*
X7923286Y-1001714D01*
X7880428Y-1001714D01*
X7851857Y-987429D01*
X7837571Y-958857D01*
X7837571Y-944571D01*
X7851857Y-916000D01*
X7880428Y-901714D01*
X7923286Y-901714D01*
X7951857Y-916000D01*
X8137571Y-1101714D02*
X8109000Y-1087429D01*
X8094714Y-1058857D01*
X8094714Y-801714D01*
X8294714Y-1101714D02*
X8266143Y-1087429D01*
X8251857Y-1073143D01*
X8237571Y-1044571D01*
X8237571Y-958857D01*
X8251857Y-930286D01*
X8266143Y-916000D01*
X8294714Y-901714D01*
X8337571Y-901714D01*
X8366143Y-916000D01*
X8380428Y-930286D01*
X8394714Y-958857D01*
X8394714Y-1044571D01*
X8380428Y-1073143D01*
X8366143Y-1087429D01*
X8337571Y-1101714D01*
X8294714Y-1101714D01*
X8480428Y-901714D02*
X8594714Y-901714D01*
X8523286Y-801714D02*
X8523286Y-1058857D01*
X8537571Y-1087429D01*
X8566143Y-1101714D01*
X8594714Y-1101714D01*
X8680428Y-1087429D02*
X8709000Y-1101714D01*
X8766143Y-1101714D01*
X8794714Y-1087429D01*
X8809000Y-1058857D01*
X8809000Y-1044571D01*
X8794714Y-1016000D01*
X8766143Y-1001714D01*
X8723286Y-1001714D01*
X8694714Y-987429D01*
X8680428Y-958857D01*
X8680428Y-944571D01*
X8694714Y-916000D01*
X8723286Y-901714D01*
X8766143Y-901714D01*
X8794714Y-916000D01*
X8909000Y-1216000D02*
X8923286Y-1201714D01*
X8951857Y-1158857D01*
X8966143Y-1130286D01*
X8980428Y-1087429D01*
X8994714Y-1016000D01*
X8994714Y-958857D01*
X8980428Y-887429D01*
X8966143Y-844571D01*
X8951857Y-816000D01*
X8923286Y-773143D01*
X8909000Y-758857D01*
X9451857Y-1216000D02*
X9437571Y-1201714D01*
X9409000Y-1158857D01*
X9394714Y-1130286D01*
X9380428Y-1087429D01*
X9366143Y-1016000D01*
X9366143Y-958857D01*
X9380428Y-887429D01*
X9394714Y-844571D01*
X9409000Y-816000D01*
X9437571Y-773143D01*
X9451857Y-758857D01*
X9566143Y-901714D02*
X9566143Y-1101714D01*
X9566143Y-930286D02*
X9580428Y-916000D01*
X9609000Y-901714D01*
X9651857Y-901714D01*
X9680428Y-916000D01*
X9694714Y-944571D01*
X9694714Y-1101714D01*
X9880428Y-1101714D02*
X9851857Y-1087429D01*
X9837571Y-1073143D01*
X9823286Y-1044571D01*
X9823286Y-958857D01*
X9837571Y-930286D01*
X9851857Y-916000D01*
X9880428Y-901714D01*
X9923286Y-901714D01*
X9951857Y-916000D01*
X9966143Y-930286D01*
X9980428Y-958857D01*
X9980428Y-1044571D01*
X9966143Y-1073143D01*
X9951857Y-1087429D01*
X9923286Y-1101714D01*
X9880428Y-1101714D01*
X10066143Y-901714D02*
X10180428Y-901714D01*
X10109000Y-801714D02*
X10109000Y-1058857D01*
X10123286Y-1087429D01*
X10151857Y-1101714D01*
X10180428Y-1101714D01*
X10509000Y-901714D02*
X10509000Y-1201714D01*
X10509000Y-916000D02*
X10537571Y-901714D01*
X10594714Y-901714D01*
X10623286Y-916000D01*
X10637571Y-930286D01*
X10651857Y-958857D01*
X10651857Y-1044571D01*
X10637571Y-1073143D01*
X10623286Y-1087429D01*
X10594714Y-1101714D01*
X10537571Y-1101714D01*
X10509000Y-1087429D01*
X10823286Y-1101714D02*
X10794714Y-1087429D01*
X10780428Y-1058857D01*
X10780428Y-801714D01*
X11066143Y-1101714D02*
X11066143Y-944571D01*
X11051857Y-916000D01*
X11023286Y-901714D01*
X10966143Y-901714D01*
X10937571Y-916000D01*
X11066143Y-1087429D02*
X11037571Y-1101714D01*
X10966143Y-1101714D01*
X10937571Y-1087429D01*
X10923286Y-1058857D01*
X10923286Y-1030286D01*
X10937571Y-1001714D01*
X10966143Y-987429D01*
X11037571Y-987429D01*
X11066143Y-973143D01*
X11166143Y-901714D02*
X11280428Y-901714D01*
X11209000Y-801714D02*
X11209000Y-1058857D01*
X11223286Y-1087429D01*
X11251857Y-1101714D01*
X11280428Y-1101714D01*
X11494714Y-1087429D02*
X11466143Y-1101714D01*
X11409000Y-1101714D01*
X11380428Y-1087429D01*
X11366143Y-1058857D01*
X11366143Y-944571D01*
X11380428Y-916000D01*
X11409000Y-901714D01*
X11466143Y-901714D01*
X11494714Y-916000D01*
X11509000Y-944571D01*
X11509000Y-973143D01*
X11366143Y-1001714D01*
X11766143Y-1101714D02*
X11766143Y-801714D01*
X11766143Y-1087429D02*
X11737571Y-1101714D01*
X11680428Y-1101714D01*
X11651857Y-1087429D01*
X11637571Y-1073143D01*
X11623286Y-1044571D01*
X11623286Y-958857D01*
X11637571Y-930286D01*
X11651857Y-916000D01*
X11680428Y-901714D01*
X11737571Y-901714D01*
X11766143Y-916000D01*
X11880428Y-1216000D02*
X11894714Y-1201714D01*
X11923286Y-1158857D01*
X11937571Y-1130286D01*
X11951857Y-1087429D01*
X11966143Y-1016000D01*
X11966143Y-958857D01*
X11951857Y-887429D01*
X11937571Y-844571D01*
X11923286Y-816000D01*
X11894714Y-773143D01*
X11880428Y-758857D01*
X-6000Y-1416000D02*
G75*
G03X-6000Y-1416000I-325000J0D01*
G01*
X409000Y-1251714D02*
X351857Y-1251714D01*
X323286Y-1266000D01*
X309000Y-1280286D01*
X280428Y-1323143D01*
X266143Y-1380286D01*
X266143Y-1494571D01*
X280428Y-1523143D01*
X294714Y-1537429D01*
X323286Y-1551714D01*
X380428Y-1551714D01*
X409000Y-1537429D01*
X423286Y-1523143D01*
X437571Y-1494571D01*
X437571Y-1423143D01*
X423286Y-1394572D01*
X409000Y-1380286D01*
X380428Y-1366000D01*
X323286Y-1366000D01*
X294714Y-1380286D01*
X280428Y-1394572D01*
X266143Y-1423143D01*
X566143Y-1523143D02*
X580428Y-1537429D01*
X566143Y-1551714D01*
X551857Y-1537429D01*
X566143Y-1523143D01*
X566143Y-1551714D01*
X851857Y-1251714D02*
X709000Y-1251714D01*
X694714Y-1394572D01*
X709000Y-1380286D01*
X737571Y-1366000D01*
X809000Y-1366000D01*
X837571Y-1380286D01*
X851857Y-1394572D01*
X866143Y-1423143D01*
X866143Y-1494571D01*
X851857Y-1523143D01*
X837571Y-1537429D01*
X809000Y-1551714D01*
X737571Y-1551714D01*
X709000Y-1537429D01*
X694714Y-1523143D01*
X1051857Y-1251714D02*
X1080428Y-1251714D01*
X1109000Y-1266000D01*
X1123286Y-1280286D01*
X1137571Y-1308857D01*
X1151857Y-1366000D01*
X1151857Y-1437429D01*
X1137571Y-1494571D01*
X1123286Y-1523143D01*
X1109000Y-1537429D01*
X1080428Y-1551714D01*
X1051857Y-1551714D01*
X1023286Y-1537429D01*
X1009000Y-1523143D01*
X994714Y-1494571D01*
X980428Y-1437429D01*
X980428Y-1366000D01*
X994714Y-1308857D01*
X1009000Y-1280286D01*
X1023286Y-1266000D01*
X1051857Y-1251714D01*
X1280428Y-1551714D02*
X1280428Y-1351714D01*
X1280428Y-1380286D02*
X1294714Y-1366000D01*
X1323286Y-1351714D01*
X1366143Y-1351714D01*
X1394714Y-1366000D01*
X1409000Y-1394572D01*
X1409000Y-1551714D01*
X1409000Y-1394572D02*
X1423286Y-1366000D01*
X1451857Y-1351714D01*
X1494714Y-1351714D01*
X1523286Y-1366000D01*
X1537571Y-1394572D01*
X1537571Y-1551714D01*
X1680428Y-1551714D02*
X1680428Y-1351714D01*
X1680428Y-1380286D02*
X1694714Y-1366000D01*
X1723286Y-1351714D01*
X1766143Y-1351714D01*
X1794714Y-1366000D01*
X1809000Y-1394572D01*
X1809000Y-1551714D01*
X1809000Y-1394572D02*
X1823286Y-1366000D01*
X1851857Y-1351714D01*
X1894714Y-1351714D01*
X1923286Y-1366000D01*
X1937571Y-1394572D01*
X1937571Y-1551714D01*
X2523286Y-1237429D02*
X2266143Y-1623143D01*
X2909000Y-1251714D02*
X2937571Y-1251714D01*
X2966143Y-1266000D01*
X2980428Y-1280286D01*
X2994714Y-1308857D01*
X3009000Y-1366000D01*
X3009000Y-1437429D01*
X2994714Y-1494571D01*
X2980428Y-1523143D01*
X2966143Y-1537429D01*
X2937571Y-1551714D01*
X2909000Y-1551714D01*
X2880428Y-1537429D01*
X2866143Y-1523143D01*
X2851857Y-1494571D01*
X2837571Y-1437429D01*
X2837571Y-1366000D01*
X2851857Y-1308857D01*
X2866143Y-1280286D01*
X2880428Y-1266000D01*
X2909000Y-1251714D01*
X3137571Y-1523143D02*
X3151857Y-1537429D01*
X3137571Y-1551714D01*
X3123286Y-1537429D01*
X3137571Y-1523143D01*
X3137571Y-1551714D01*
X3266143Y-1280286D02*
X3280428Y-1266000D01*
X3309000Y-1251714D01*
X3380428Y-1251714D01*
X3409000Y-1266000D01*
X3423286Y-1280286D01*
X3437571Y-1308857D01*
X3437571Y-1337429D01*
X3423286Y-1380286D01*
X3251857Y-1551714D01*
X3437571Y-1551714D01*
X3709000Y-1251714D02*
X3566143Y-1251714D01*
X3551857Y-1394572D01*
X3566143Y-1380286D01*
X3594714Y-1366000D01*
X3666143Y-1366000D01*
X3694714Y-1380286D01*
X3709000Y-1394572D01*
X3723286Y-1423143D01*
X3723286Y-1494571D01*
X3709000Y-1523143D01*
X3694714Y-1537429D01*
X3666143Y-1551714D01*
X3594714Y-1551714D01*
X3566143Y-1537429D01*
X3551857Y-1523143D01*
X3980428Y-1251714D02*
X3923286Y-1251714D01*
X3894714Y-1266000D01*
X3880428Y-1280286D01*
X3851857Y-1323143D01*
X3837571Y-1380286D01*
X3837571Y-1494571D01*
X3851857Y-1523143D01*
X3866143Y-1537429D01*
X3894714Y-1551714D01*
X3951857Y-1551714D01*
X3980428Y-1537429D01*
X3994714Y-1523143D01*
X4009000Y-1494571D01*
X4009000Y-1423143D01*
X3994714Y-1394572D01*
X3980428Y-1380286D01*
X3951857Y-1366000D01*
X3894714Y-1366000D01*
X3866143Y-1380286D01*
X3851857Y-1394572D01*
X3837571Y-1423143D01*
X4123286Y-1251714D02*
X4123286Y-1308857D01*
X4237571Y-1251714D02*
X4237571Y-1308857D01*
X4680428Y-1666000D02*
X4666143Y-1651714D01*
X4637571Y-1608857D01*
X4623286Y-1580286D01*
X4609000Y-1537429D01*
X4594714Y-1466000D01*
X4594714Y-1408857D01*
X4609000Y-1337429D01*
X4623286Y-1294572D01*
X4637571Y-1266000D01*
X4666143Y-1223143D01*
X4680428Y-1208857D01*
X4766143Y-1251714D02*
X4966143Y-1251714D01*
X4837571Y-1551714D01*
X5309000Y-1551714D02*
X5309000Y-1251714D01*
X5437571Y-1551714D02*
X5437571Y-1394572D01*
X5423286Y-1366000D01*
X5394714Y-1351714D01*
X5351857Y-1351714D01*
X5323286Y-1366000D01*
X5309000Y-1380286D01*
X5623286Y-1551714D02*
X5594714Y-1537429D01*
X5580428Y-1523143D01*
X5566143Y-1494571D01*
X5566143Y-1408857D01*
X5580428Y-1380286D01*
X5594714Y-1366000D01*
X5623286Y-1351714D01*
X5666143Y-1351714D01*
X5694714Y-1366000D01*
X5709000Y-1380286D01*
X5723286Y-1408857D01*
X5723286Y-1494571D01*
X5709000Y-1523143D01*
X5694714Y-1537429D01*
X5666143Y-1551714D01*
X5623286Y-1551714D01*
X5894714Y-1551714D02*
X5866143Y-1537429D01*
X5851857Y-1508857D01*
X5851857Y-1251714D01*
X6123286Y-1537429D02*
X6094714Y-1551714D01*
X6037571Y-1551714D01*
X6009000Y-1537429D01*
X5994714Y-1508857D01*
X5994714Y-1394572D01*
X6009000Y-1366000D01*
X6037571Y-1351714D01*
X6094714Y-1351714D01*
X6123286Y-1366000D01*
X6137571Y-1394572D01*
X6137571Y-1423143D01*
X5994714Y-1451714D01*
X6251857Y-1537429D02*
X6280428Y-1551714D01*
X6337571Y-1551714D01*
X6366143Y-1537429D01*
X6380428Y-1508857D01*
X6380428Y-1494571D01*
X6366143Y-1466000D01*
X6337571Y-1451714D01*
X6294714Y-1451714D01*
X6266143Y-1437429D01*
X6251857Y-1408857D01*
X6251857Y-1394572D01*
X6266143Y-1366000D01*
X6294714Y-1351714D01*
X6337571Y-1351714D01*
X6366143Y-1366000D01*
X6480428Y-1666000D02*
X6494714Y-1651714D01*
X6523286Y-1608857D01*
X6537571Y-1580286D01*
X6551857Y-1537429D01*
X6566143Y-1466000D01*
X6566143Y-1408857D01*
X6551857Y-1337429D01*
X6537571Y-1294572D01*
X6523286Y-1266000D01*
X6494714Y-1223143D01*
X6480428Y-1208857D01*
X7023286Y-1666000D02*
X7009000Y-1651714D01*
X6980428Y-1608857D01*
X6966143Y-1580286D01*
X6951857Y-1537429D01*
X6937571Y-1466000D01*
X6937571Y-1408857D01*
X6951857Y-1337429D01*
X6966143Y-1294572D01*
X6980428Y-1266000D01*
X7009000Y-1223143D01*
X7023286Y-1208857D01*
X7137571Y-1351714D02*
X7137571Y-1551714D01*
X7137571Y-1380286D02*
X7151857Y-1366000D01*
X7180428Y-1351714D01*
X7223286Y-1351714D01*
X7251857Y-1366000D01*
X7266143Y-1394572D01*
X7266143Y-1551714D01*
X7451857Y-1551714D02*
X7423286Y-1537429D01*
X7409000Y-1523143D01*
X7394714Y-1494571D01*
X7394714Y-1408857D01*
X7409000Y-1380286D01*
X7423286Y-1366000D01*
X7451857Y-1351714D01*
X7494714Y-1351714D01*
X7523286Y-1366000D01*
X7537571Y-1380286D01*
X7551857Y-1408857D01*
X7551857Y-1494571D01*
X7537571Y-1523143D01*
X7523286Y-1537429D01*
X7494714Y-1551714D01*
X7451857Y-1551714D01*
X7637571Y-1351714D02*
X7751857Y-1351714D01*
X7680428Y-1251714D02*
X7680428Y-1508857D01*
X7694714Y-1537429D01*
X7723286Y-1551714D01*
X7751857Y-1551714D01*
X8080428Y-1351714D02*
X8080428Y-1651714D01*
X8080428Y-1366000D02*
X8109000Y-1351714D01*
X8166143Y-1351714D01*
X8194714Y-1366000D01*
X8209000Y-1380286D01*
X8223286Y-1408857D01*
X8223286Y-1494571D01*
X8209000Y-1523143D01*
X8194714Y-1537429D01*
X8166143Y-1551714D01*
X8109000Y-1551714D01*
X8080428Y-1537429D01*
X8394714Y-1551714D02*
X8366143Y-1537429D01*
X8351857Y-1508857D01*
X8351857Y-1251714D01*
X8637571Y-1551714D02*
X8637571Y-1394572D01*
X8623286Y-1366000D01*
X8594714Y-1351714D01*
X8537571Y-1351714D01*
X8509000Y-1366000D01*
X8637571Y-1537429D02*
X8609000Y-1551714D01*
X8537571Y-1551714D01*
X8509000Y-1537429D01*
X8494714Y-1508857D01*
X8494714Y-1480286D01*
X8509000Y-1451714D01*
X8537571Y-1437429D01*
X8609000Y-1437429D01*
X8637571Y-1423143D01*
X8737571Y-1351714D02*
X8851857Y-1351714D01*
X8780428Y-1251714D02*
X8780428Y-1508857D01*
X8794714Y-1537429D01*
X8823286Y-1551714D01*
X8851857Y-1551714D01*
X9066143Y-1537429D02*
X9037571Y-1551714D01*
X8980428Y-1551714D01*
X8951857Y-1537429D01*
X8937571Y-1508857D01*
X8937571Y-1394572D01*
X8951857Y-1366000D01*
X8980428Y-1351714D01*
X9037571Y-1351714D01*
X9066143Y-1366000D01*
X9080428Y-1394572D01*
X9080428Y-1423143D01*
X8937571Y-1451714D01*
X9337571Y-1551714D02*
X9337571Y-1251714D01*
X9337571Y-1537429D02*
X9309000Y-1551714D01*
X9251857Y-1551714D01*
X9223286Y-1537429D01*
X9209000Y-1523143D01*
X9194714Y-1494571D01*
X9194714Y-1408857D01*
X9209000Y-1380286D01*
X9223286Y-1366000D01*
X9251857Y-1351714D01*
X9309000Y-1351714D01*
X9337571Y-1366000D01*
X9451857Y-1666000D02*
X9466143Y-1651714D01*
X9494714Y-1608857D01*
X9509000Y-1580286D01*
X9523286Y-1537429D01*
X9537571Y-1466000D01*
X9537571Y-1408857D01*
X9523286Y-1337429D01*
X9509000Y-1294572D01*
X9494714Y-1266000D01*
X9466143Y-1223143D01*
X9451857Y-1208857D01*
X-381000Y-1821000D02*
X-381000Y-2571000D01*
X-756000Y-2196000D02*
X-6000Y-2196000D01*
X251857Y-2031714D02*
X451857Y-2031714D01*
X323286Y-2331714D01*
X566143Y-2303143D02*
X580428Y-2317429D01*
X566143Y-2331714D01*
X551857Y-2317429D01*
X566143Y-2303143D01*
X566143Y-2331714D01*
X851857Y-2031714D02*
X709000Y-2031714D01*
X694714Y-2174572D01*
X709000Y-2160286D01*
X737571Y-2146000D01*
X809000Y-2146000D01*
X837571Y-2160286D01*
X851857Y-2174572D01*
X866143Y-2203143D01*
X866143Y-2274572D01*
X851857Y-2303143D01*
X837571Y-2317429D01*
X809000Y-2331714D01*
X737571Y-2331714D01*
X709000Y-2317429D01*
X694714Y-2303143D01*
X1051857Y-2031714D02*
X1080428Y-2031714D01*
X1109000Y-2046000D01*
X1123286Y-2060286D01*
X1137571Y-2088857D01*
X1151857Y-2146000D01*
X1151857Y-2217429D01*
X1137571Y-2274572D01*
X1123286Y-2303143D01*
X1109000Y-2317429D01*
X1080428Y-2331714D01*
X1051857Y-2331714D01*
X1023286Y-2317429D01*
X1009000Y-2303143D01*
X994714Y-2274572D01*
X980428Y-2217429D01*
X980428Y-2146000D01*
X994714Y-2088857D01*
X1009000Y-2060286D01*
X1023286Y-2046000D01*
X1051857Y-2031714D01*
X1280428Y-2331714D02*
X1280428Y-2131714D01*
X1280428Y-2160286D02*
X1294714Y-2146000D01*
X1323286Y-2131714D01*
X1366143Y-2131714D01*
X1394714Y-2146000D01*
X1409000Y-2174572D01*
X1409000Y-2331714D01*
X1409000Y-2174572D02*
X1423286Y-2146000D01*
X1451857Y-2131714D01*
X1494714Y-2131714D01*
X1523286Y-2146000D01*
X1537571Y-2174572D01*
X1537571Y-2331714D01*
X1680428Y-2331714D02*
X1680428Y-2131714D01*
X1680428Y-2160286D02*
X1694714Y-2146000D01*
X1723286Y-2131714D01*
X1766143Y-2131714D01*
X1794714Y-2146000D01*
X1809000Y-2174572D01*
X1809000Y-2331714D01*
X1809000Y-2174572D02*
X1823286Y-2146000D01*
X1851857Y-2131714D01*
X1894714Y-2131714D01*
X1923286Y-2146000D01*
X1937571Y-2174572D01*
X1937571Y-2331714D01*
X2523286Y-2017429D02*
X2266143Y-2403143D01*
X2909000Y-2031714D02*
X2937571Y-2031714D01*
X2966143Y-2046000D01*
X2980428Y-2060286D01*
X2994714Y-2088857D01*
X3009000Y-2146000D01*
X3009000Y-2217429D01*
X2994714Y-2274572D01*
X2980428Y-2303143D01*
X2966143Y-2317429D01*
X2937571Y-2331714D01*
X2909000Y-2331714D01*
X2880428Y-2317429D01*
X2866143Y-2303143D01*
X2851857Y-2274572D01*
X2837571Y-2217429D01*
X2837571Y-2146000D01*
X2851857Y-2088857D01*
X2866143Y-2060286D01*
X2880428Y-2046000D01*
X2909000Y-2031714D01*
X3137571Y-2303143D02*
X3151857Y-2317429D01*
X3137571Y-2331714D01*
X3123286Y-2317429D01*
X3137571Y-2303143D01*
X3137571Y-2331714D01*
X3266143Y-2060286D02*
X3280428Y-2046000D01*
X3309000Y-2031714D01*
X3380428Y-2031714D01*
X3409000Y-2046000D01*
X3423286Y-2060286D01*
X3437571Y-2088857D01*
X3437571Y-2117429D01*
X3423286Y-2160286D01*
X3251857Y-2331714D01*
X3437571Y-2331714D01*
X3580428Y-2331714D02*
X3637571Y-2331714D01*
X3666143Y-2317429D01*
X3680428Y-2303143D01*
X3709000Y-2260286D01*
X3723286Y-2203143D01*
X3723286Y-2088857D01*
X3709000Y-2060286D01*
X3694714Y-2046000D01*
X3666143Y-2031714D01*
X3609000Y-2031714D01*
X3580428Y-2046000D01*
X3566143Y-2060286D01*
X3551857Y-2088857D01*
X3551857Y-2160286D01*
X3566143Y-2188857D01*
X3580428Y-2203143D01*
X3609000Y-2217429D01*
X3666143Y-2217429D01*
X3694714Y-2203143D01*
X3709000Y-2188857D01*
X3723286Y-2160286D01*
X3994714Y-2031714D02*
X3851857Y-2031714D01*
X3837571Y-2174572D01*
X3851857Y-2160286D01*
X3880428Y-2146000D01*
X3951857Y-2146000D01*
X3980428Y-2160286D01*
X3994714Y-2174572D01*
X4009000Y-2203143D01*
X4009000Y-2274572D01*
X3994714Y-2303143D01*
X3980428Y-2317429D01*
X3951857Y-2331714D01*
X3880428Y-2331714D01*
X3851857Y-2317429D01*
X3837571Y-2303143D01*
X4123286Y-2031714D02*
X4123286Y-2088857D01*
X4237571Y-2031714D02*
X4237571Y-2088857D01*
X4680428Y-2446000D02*
X4666143Y-2431714D01*
X4637571Y-2388857D01*
X4623286Y-2360286D01*
X4609000Y-2317429D01*
X4594714Y-2246000D01*
X4594714Y-2188857D01*
X4609000Y-2117429D01*
X4623286Y-2074571D01*
X4637571Y-2046000D01*
X4666143Y-2003143D01*
X4680428Y-1988857D01*
X4923286Y-2131714D02*
X4923286Y-2331714D01*
X4851857Y-2017429D02*
X4780428Y-2231714D01*
X4966143Y-2231714D01*
X5309000Y-2331714D02*
X5309000Y-2031714D01*
X5437571Y-2331714D02*
X5437571Y-2174572D01*
X5423286Y-2146000D01*
X5394714Y-2131714D01*
X5351857Y-2131714D01*
X5323286Y-2146000D01*
X5309000Y-2160286D01*
X5623286Y-2331714D02*
X5594714Y-2317429D01*
X5580428Y-2303143D01*
X5566143Y-2274572D01*
X5566143Y-2188857D01*
X5580428Y-2160286D01*
X5594714Y-2146000D01*
X5623286Y-2131714D01*
X5666143Y-2131714D01*
X5694714Y-2146000D01*
X5709000Y-2160286D01*
X5723286Y-2188857D01*
X5723286Y-2274572D01*
X5709000Y-2303143D01*
X5694714Y-2317429D01*
X5666143Y-2331714D01*
X5623286Y-2331714D01*
X5894714Y-2331714D02*
X5866143Y-2317429D01*
X5851857Y-2288857D01*
X5851857Y-2031714D01*
X6123286Y-2317429D02*
X6094714Y-2331714D01*
X6037571Y-2331714D01*
X6009000Y-2317429D01*
X5994714Y-2288857D01*
X5994714Y-2174572D01*
X6009000Y-2146000D01*
X6037571Y-2131714D01*
X6094714Y-2131714D01*
X6123286Y-2146000D01*
X6137571Y-2174572D01*
X6137571Y-2203143D01*
X5994714Y-2231714D01*
X6251857Y-2317429D02*
X6280428Y-2331714D01*
X6337571Y-2331714D01*
X6366143Y-2317429D01*
X6380428Y-2288857D01*
X6380428Y-2274572D01*
X6366143Y-2246000D01*
X6337571Y-2231714D01*
X6294714Y-2231714D01*
X6266143Y-2217429D01*
X6251857Y-2188857D01*
X6251857Y-2174572D01*
X6266143Y-2146000D01*
X6294714Y-2131714D01*
X6337571Y-2131714D01*
X6366143Y-2146000D01*
X6480428Y-2446000D02*
X6494714Y-2431714D01*
X6523286Y-2388857D01*
X6537571Y-2360286D01*
X6551857Y-2317429D01*
X6566143Y-2246000D01*
X6566143Y-2188857D01*
X6551857Y-2117429D01*
X6537571Y-2074571D01*
X6523286Y-2046000D01*
X6494714Y-2003143D01*
X6480428Y-1988857D01*
X7023286Y-2446000D02*
X7009000Y-2431714D01*
X6980428Y-2388857D01*
X6966143Y-2360286D01*
X6951857Y-2317429D01*
X6937571Y-2246000D01*
X6937571Y-2188857D01*
X6951857Y-2117429D01*
X6966143Y-2074571D01*
X6980428Y-2046000D01*
X7009000Y-2003143D01*
X7023286Y-1988857D01*
X7137571Y-2131714D02*
X7137571Y-2331714D01*
X7137571Y-2160286D02*
X7151857Y-2146000D01*
X7180428Y-2131714D01*
X7223286Y-2131714D01*
X7251857Y-2146000D01*
X7266143Y-2174572D01*
X7266143Y-2331714D01*
X7451857Y-2331714D02*
X7423286Y-2317429D01*
X7409000Y-2303143D01*
X7394714Y-2274572D01*
X7394714Y-2188857D01*
X7409000Y-2160286D01*
X7423286Y-2146000D01*
X7451857Y-2131714D01*
X7494714Y-2131714D01*
X7523286Y-2146000D01*
X7537571Y-2160286D01*
X7551857Y-2188857D01*
X7551857Y-2274572D01*
X7537571Y-2303143D01*
X7523286Y-2317429D01*
X7494714Y-2331714D01*
X7451857Y-2331714D01*
X7637571Y-2131714D02*
X7751857Y-2131714D01*
X7680428Y-2031714D02*
X7680428Y-2288857D01*
X7694714Y-2317429D01*
X7723286Y-2331714D01*
X7751857Y-2331714D01*
X8080428Y-2131714D02*
X8080428Y-2431714D01*
X8080428Y-2146000D02*
X8109000Y-2131714D01*
X8166143Y-2131714D01*
X8194714Y-2146000D01*
X8209000Y-2160286D01*
X8223286Y-2188857D01*
X8223286Y-2274572D01*
X8209000Y-2303143D01*
X8194714Y-2317429D01*
X8166143Y-2331714D01*
X8109000Y-2331714D01*
X8080428Y-2317429D01*
X8394714Y-2331714D02*
X8366143Y-2317429D01*
X8351857Y-2288857D01*
X8351857Y-2031714D01*
X8637571Y-2331714D02*
X8637571Y-2174572D01*
X8623286Y-2146000D01*
X8594714Y-2131714D01*
X8537571Y-2131714D01*
X8509000Y-2146000D01*
X8637571Y-2317429D02*
X8609000Y-2331714D01*
X8537571Y-2331714D01*
X8509000Y-2317429D01*
X8494714Y-2288857D01*
X8494714Y-2260286D01*
X8509000Y-2231714D01*
X8537571Y-2217429D01*
X8609000Y-2217429D01*
X8637571Y-2203143D01*
X8737571Y-2131714D02*
X8851857Y-2131714D01*
X8780428Y-2031714D02*
X8780428Y-2288857D01*
X8794714Y-2317429D01*
X8823286Y-2331714D01*
X8851857Y-2331714D01*
X9066143Y-2317429D02*
X9037571Y-2331714D01*
X8980428Y-2331714D01*
X8951857Y-2317429D01*
X8937571Y-2288857D01*
X8937571Y-2174572D01*
X8951857Y-2146000D01*
X8980428Y-2131714D01*
X9037571Y-2131714D01*
X9066143Y-2146000D01*
X9080428Y-2174572D01*
X9080428Y-2203143D01*
X8937571Y-2231714D01*
X9337571Y-2331714D02*
X9337571Y-2031714D01*
X9337571Y-2317429D02*
X9309000Y-2331714D01*
X9251857Y-2331714D01*
X9223286Y-2317429D01*
X9209000Y-2303143D01*
X9194714Y-2274572D01*
X9194714Y-2188857D01*
X9209000Y-2160286D01*
X9223286Y-2146000D01*
X9251857Y-2131714D01*
X9309000Y-2131714D01*
X9337571Y-2146000D01*
X9451857Y-2446000D02*
X9466143Y-2431714D01*
X9494714Y-2388857D01*
X9509000Y-2360286D01*
X9523286Y-2317429D01*
X9537571Y-2246000D01*
X9537571Y-2188857D01*
X9523286Y-2117429D01*
X9509000Y-2074571D01*
X9494714Y-2046000D01*
X9466143Y-2003143D01*
X9451857Y-1988857D01*
X-152443Y-3429557D02*
X-152443Y-2722443D01*
X-859557Y-2722443D01*
X-859557Y-3429557D01*
X-152443Y-3429557D01*
X437571Y-3211714D02*
X266143Y-3211714D01*
X351857Y-3211714D02*
X351857Y-2911714D01*
X323286Y-2954571D01*
X294714Y-2983143D01*
X266143Y-2997429D01*
X623286Y-2911714D02*
X651857Y-2911714D01*
X680428Y-2926000D01*
X694714Y-2940286D01*
X709000Y-2968857D01*
X723286Y-3026000D01*
X723286Y-3097429D01*
X709000Y-3154571D01*
X694714Y-3183143D01*
X680428Y-3197429D01*
X651857Y-3211714D01*
X623286Y-3211714D01*
X594714Y-3197429D01*
X580428Y-3183143D01*
X566143Y-3154571D01*
X551857Y-3097429D01*
X551857Y-3026000D01*
X566143Y-2968857D01*
X580428Y-2940286D01*
X594714Y-2926000D01*
X623286Y-2911714D01*
X851857Y-3183143D02*
X866143Y-3197429D01*
X851857Y-3211714D01*
X837571Y-3197429D01*
X851857Y-3183143D01*
X851857Y-3211714D01*
X1051857Y-2911714D02*
X1080428Y-2911714D01*
X1109000Y-2926000D01*
X1123286Y-2940286D01*
X1137571Y-2968857D01*
X1151857Y-3026000D01*
X1151857Y-3097429D01*
X1137571Y-3154571D01*
X1123286Y-3183143D01*
X1109000Y-3197429D01*
X1080428Y-3211714D01*
X1051857Y-3211714D01*
X1023286Y-3197429D01*
X1009000Y-3183143D01*
X994714Y-3154571D01*
X980428Y-3097429D01*
X980428Y-3026000D01*
X994714Y-2968857D01*
X1009000Y-2940286D01*
X1023286Y-2926000D01*
X1051857Y-2911714D01*
X1337571Y-2911714D02*
X1366143Y-2911714D01*
X1394714Y-2926000D01*
X1409000Y-2940286D01*
X1423286Y-2968857D01*
X1437571Y-3026000D01*
X1437571Y-3097429D01*
X1423286Y-3154571D01*
X1409000Y-3183143D01*
X1394714Y-3197429D01*
X1366143Y-3211714D01*
X1337571Y-3211714D01*
X1309000Y-3197429D01*
X1294714Y-3183143D01*
X1280428Y-3154571D01*
X1266143Y-3097429D01*
X1266143Y-3026000D01*
X1280428Y-2968857D01*
X1294714Y-2940286D01*
X1309000Y-2926000D01*
X1337571Y-2911714D01*
X1566143Y-3211714D02*
X1566143Y-3011714D01*
X1566143Y-3040286D02*
X1580428Y-3026000D01*
X1609000Y-3011714D01*
X1651857Y-3011714D01*
X1680428Y-3026000D01*
X1694714Y-3054571D01*
X1694714Y-3211714D01*
X1694714Y-3054571D02*
X1709000Y-3026000D01*
X1737571Y-3011714D01*
X1780428Y-3011714D01*
X1809000Y-3026000D01*
X1823286Y-3054571D01*
X1823286Y-3211714D01*
X1966143Y-3211714D02*
X1966143Y-3011714D01*
X1966143Y-3040286D02*
X1980428Y-3026000D01*
X2009000Y-3011714D01*
X2051857Y-3011714D01*
X2080428Y-3026000D01*
X2094714Y-3054571D01*
X2094714Y-3211714D01*
X2094714Y-3054571D02*
X2109000Y-3026000D01*
X2137571Y-3011714D01*
X2180428Y-3011714D01*
X2209000Y-3026000D01*
X2223286Y-3054571D01*
X2223286Y-3211714D01*
X2809000Y-2897429D02*
X2551857Y-3283143D01*
X3194714Y-2911714D02*
X3223286Y-2911714D01*
X3251857Y-2926000D01*
X3266143Y-2940286D01*
X3280428Y-2968857D01*
X3294714Y-3026000D01*
X3294714Y-3097429D01*
X3280428Y-3154571D01*
X3266143Y-3183143D01*
X3251857Y-3197429D01*
X3223286Y-3211714D01*
X3194714Y-3211714D01*
X3166143Y-3197429D01*
X3151857Y-3183143D01*
X3137571Y-3154571D01*
X3123286Y-3097429D01*
X3123286Y-3026000D01*
X3137571Y-2968857D01*
X3151857Y-2940286D01*
X3166143Y-2926000D01*
X3194714Y-2911714D01*
X3423286Y-3183143D02*
X3437571Y-3197429D01*
X3423286Y-3211714D01*
X3409000Y-3197429D01*
X3423286Y-3183143D01*
X3423286Y-3211714D01*
X3537571Y-2911714D02*
X3723286Y-2911714D01*
X3623286Y-3026000D01*
X3666143Y-3026000D01*
X3694714Y-3040286D01*
X3709000Y-3054571D01*
X3723286Y-3083143D01*
X3723286Y-3154571D01*
X3709000Y-3183143D01*
X3694714Y-3197429D01*
X3666143Y-3211714D01*
X3580428Y-3211714D01*
X3551857Y-3197429D01*
X3537571Y-3183143D01*
X3866143Y-3211714D02*
X3923286Y-3211714D01*
X3951857Y-3197429D01*
X3966143Y-3183143D01*
X3994714Y-3140286D01*
X4009000Y-3083143D01*
X4009000Y-2968857D01*
X3994714Y-2940286D01*
X3980428Y-2926000D01*
X3951857Y-2911714D01*
X3894714Y-2911714D01*
X3866143Y-2926000D01*
X3851857Y-2940286D01*
X3837571Y-2968857D01*
X3837571Y-3040286D01*
X3851857Y-3068857D01*
X3866143Y-3083143D01*
X3894714Y-3097429D01*
X3951857Y-3097429D01*
X3980428Y-3083143D01*
X3994714Y-3068857D01*
X4009000Y-3040286D01*
X4266143Y-3011714D02*
X4266143Y-3211714D01*
X4194714Y-2897429D02*
X4123286Y-3111714D01*
X4309000Y-3111714D01*
X4409000Y-2911714D02*
X4409000Y-2968857D01*
X4523286Y-2911714D02*
X4523286Y-2968857D01*
X4966143Y-3326000D02*
X4951857Y-3311714D01*
X4923286Y-3268857D01*
X4909000Y-3240286D01*
X4894714Y-3197429D01*
X4880428Y-3126000D01*
X4880428Y-3068857D01*
X4894714Y-2997429D01*
X4909000Y-2954571D01*
X4923286Y-2926000D01*
X4951857Y-2883143D01*
X4966143Y-2868857D01*
X5209000Y-3011714D02*
X5209000Y-3211714D01*
X5137571Y-2897429D02*
X5066143Y-3111714D01*
X5251857Y-3111714D01*
X5594714Y-3211714D02*
X5594714Y-2911714D01*
X5723286Y-3211714D02*
X5723286Y-3054571D01*
X5709000Y-3026000D01*
X5680428Y-3011714D01*
X5637571Y-3011714D01*
X5609000Y-3026000D01*
X5594714Y-3040286D01*
X5909000Y-3211714D02*
X5880428Y-3197429D01*
X5866143Y-3183143D01*
X5851857Y-3154571D01*
X5851857Y-3068857D01*
X5866143Y-3040286D01*
X5880428Y-3026000D01*
X5909000Y-3011714D01*
X5951857Y-3011714D01*
X5980428Y-3026000D01*
X5994714Y-3040286D01*
X6009000Y-3068857D01*
X6009000Y-3154571D01*
X5994714Y-3183143D01*
X5980428Y-3197429D01*
X5951857Y-3211714D01*
X5909000Y-3211714D01*
X6180428Y-3211714D02*
X6151857Y-3197429D01*
X6137571Y-3168857D01*
X6137571Y-2911714D01*
X6409000Y-3197429D02*
X6380428Y-3211714D01*
X6323286Y-3211714D01*
X6294714Y-3197429D01*
X6280428Y-3168857D01*
X6280428Y-3054571D01*
X6294714Y-3026000D01*
X6323286Y-3011714D01*
X6380428Y-3011714D01*
X6409000Y-3026000D01*
X6423286Y-3054571D01*
X6423286Y-3083143D01*
X6280428Y-3111714D01*
X6537571Y-3197429D02*
X6566143Y-3211714D01*
X6623286Y-3211714D01*
X6651857Y-3197429D01*
X6666143Y-3168857D01*
X6666143Y-3154571D01*
X6651857Y-3126000D01*
X6623286Y-3111714D01*
X6580428Y-3111714D01*
X6551857Y-3097429D01*
X6537571Y-3068857D01*
X6537571Y-3054571D01*
X6551857Y-3026000D01*
X6580428Y-3011714D01*
X6623286Y-3011714D01*
X6651857Y-3026000D01*
X6766143Y-3326000D02*
X6780428Y-3311714D01*
X6809000Y-3268857D01*
X6823286Y-3240286D01*
X6837571Y-3197429D01*
X6851857Y-3126000D01*
X6851857Y-3068857D01*
X6837571Y-2997429D01*
X6823286Y-2954571D01*
X6809000Y-2926000D01*
X6780428Y-2883143D01*
X6766143Y-2868857D01*
X7309000Y-3326000D02*
X7294714Y-3311714D01*
X7266143Y-3268857D01*
X7251857Y-3240286D01*
X7237571Y-3197429D01*
X7223286Y-3126000D01*
X7223286Y-3068857D01*
X7237571Y-2997429D01*
X7251857Y-2954571D01*
X7266143Y-2926000D01*
X7294714Y-2883143D01*
X7309000Y-2868857D01*
X7423286Y-3011714D02*
X7423286Y-3211714D01*
X7423286Y-3040286D02*
X7437571Y-3026000D01*
X7466143Y-3011714D01*
X7509000Y-3011714D01*
X7537571Y-3026000D01*
X7551857Y-3054571D01*
X7551857Y-3211714D01*
X7737571Y-3211714D02*
X7709000Y-3197429D01*
X7694714Y-3183143D01*
X7680428Y-3154571D01*
X7680428Y-3068857D01*
X7694714Y-3040286D01*
X7709000Y-3026000D01*
X7737571Y-3011714D01*
X7780428Y-3011714D01*
X7809000Y-3026000D01*
X7823286Y-3040286D01*
X7837571Y-3068857D01*
X7837571Y-3154571D01*
X7823286Y-3183143D01*
X7809000Y-3197429D01*
X7780428Y-3211714D01*
X7737571Y-3211714D01*
X7923286Y-3011714D02*
X8037571Y-3011714D01*
X7966143Y-2911714D02*
X7966143Y-3168857D01*
X7980428Y-3197429D01*
X8009000Y-3211714D01*
X8037571Y-3211714D01*
X8366143Y-3011714D02*
X8366143Y-3311714D01*
X8366143Y-3026000D02*
X8394714Y-3011714D01*
X8451857Y-3011714D01*
X8480428Y-3026000D01*
X8494714Y-3040286D01*
X8509000Y-3068857D01*
X8509000Y-3154571D01*
X8494714Y-3183143D01*
X8480428Y-3197429D01*
X8451857Y-3211714D01*
X8394714Y-3211714D01*
X8366143Y-3197429D01*
X8680428Y-3211714D02*
X8651857Y-3197429D01*
X8637571Y-3168857D01*
X8637571Y-2911714D01*
X8923286Y-3211714D02*
X8923286Y-3054571D01*
X8909000Y-3026000D01*
X8880428Y-3011714D01*
X8823286Y-3011714D01*
X8794714Y-3026000D01*
X8923286Y-3197429D02*
X8894714Y-3211714D01*
X8823286Y-3211714D01*
X8794714Y-3197429D01*
X8780428Y-3168857D01*
X8780428Y-3140286D01*
X8794714Y-3111714D01*
X8823286Y-3097429D01*
X8894714Y-3097429D01*
X8923286Y-3083143D01*
X9023286Y-3011714D02*
X9137571Y-3011714D01*
X9066143Y-2911714D02*
X9066143Y-3168857D01*
X9080428Y-3197429D01*
X9109000Y-3211714D01*
X9137571Y-3211714D01*
X9351857Y-3197429D02*
X9323286Y-3211714D01*
X9266143Y-3211714D01*
X9237571Y-3197429D01*
X9223286Y-3168857D01*
X9223286Y-3054571D01*
X9237571Y-3026000D01*
X9266143Y-3011714D01*
X9323286Y-3011714D01*
X9351857Y-3026000D01*
X9366143Y-3054571D01*
X9366143Y-3083143D01*
X9223286Y-3111714D01*
X9623286Y-3211714D02*
X9623286Y-2911714D01*
X9623286Y-3197429D02*
X9594714Y-3211714D01*
X9537571Y-3211714D01*
X9509000Y-3197429D01*
X9494714Y-3183143D01*
X9480428Y-3154571D01*
X9480428Y-3068857D01*
X9494714Y-3040286D01*
X9509000Y-3026000D01*
X9537571Y-3011714D01*
X9594714Y-3011714D01*
X9623286Y-3026000D01*
X9737571Y-3326000D02*
X9751857Y-3311714D01*
X9780428Y-3268857D01*
X9794714Y-3240286D01*
X9809000Y-3197429D01*
X9823286Y-3126000D01*
X9823286Y-3068857D01*
X9809000Y-2997429D01*
X9794714Y-2954571D01*
X9780428Y-2926000D01*
X9751857Y-2883143D01*
X9737571Y-2868857D01*
M02*
