M48
;DRILL file {KiCad (5.0.0-rc2)} date Wed Jul  8 18:21:42 2020
;FORMAT={3:3/ absolute / metric / suppress leading zeros}
FMAT,2
METRIC,TZ
T1C3.200
T2C6.500
T3C7.500
T4C10.000
%
G90
G05
M71
T1
X42900Y50000
X27900Y50000
X12900Y50000
X57900Y50000
T2
X7900Y19000
X62900Y19000
X29900Y19000
X51900Y19000
X18900Y19000
X57900Y96000
X40900Y19000
T3
X12900Y77000
X35400Y105000
X35400Y64500
X57900Y77000
T4
X27900Y39000
X12900Y39000
X42900Y39000
X57900Y39000
T1
X62500Y125500G85X64300Y125500
G05
X6600Y3000G85X8400Y3000
G05
X62500Y3000G85X64300Y3000
G05
X6600Y125500G85X8400Y125500
G05
T0
M30
