M48
;DRILL file {KiCad (2016-08-20 BZR 7083)-product} date Wed Jun 27 19:48:59 2018
;FORMAT={3:3/ absolute / metric / suppress leading zeros}
FMAT,2
METRIC,TZ
T1C0.400
T2C0.700
T3C0.800
T4C0.900
T5C1.000
T6C1.100
T7C1.400
%
G90
G05
M71
T1
X1000Y30300
X1600Y104700
X1600Y80700
X1600Y74800
X1600Y62100
X1600Y57200
X1800Y52900
X1800Y36800
X1900Y69900
X1900Y67000
X1900Y43200
X1900Y8600
X2400Y58200
X3100Y50000
X3400Y24500
X3800Y28200
X3900Y73600
X4100Y69800
X4100Y11000
X4700Y43400
X5500Y29500
X5600Y51800
X6100Y101000
X6300Y28300
X6400Y69800
X6500Y53200
X6700Y39500
X7500Y16100
X8400Y40400
X8500Y63700
X8600Y53800
X8600Y51700
X8600Y29100
X8600Y21700
X8800Y95800
X9000Y84400
X9100Y78500
X9500Y66500
X9500Y36300
X10000Y63300
X11000Y36300
X11000Y30500
X11100Y95700
X11300Y54900
X11300Y27700
X11400Y38500
X11700Y34900
X11700Y32600
X11900Y18600
X12000Y75500
X12000Y55700
X12300Y69900
X12500Y4100
X13000Y96500
X14300Y43200
X14400Y61800
X14700Y54900
X15700Y29500
X15800Y71600
X16000Y40400
X16400Y88600
X16400Y60200
X16800Y33900
X16800Y30300
X17500Y78800
X17700Y15700
X18000Y75600
X18300Y7700
X18600Y37800
X18800Y53800
X18900Y103400
X19700Y43600
X19900Y72300
X20000Y61800
X20300Y98800
X20300Y96500
X20600Y82700
X20700Y69200
X21200Y61800
X21800Y95300
X22500Y46600
X23100Y53500
X23200Y78900
X23600Y72800
X23700Y1600
X23900Y15100
X24400Y85600
X24700Y96300
X25800Y44000
X26400Y53500
X26600Y55900
X27300Y45400
X27800Y10900
X28600Y24600
X28900Y82200
X29100Y69600
X29900Y61000
X30000Y17400
X30700Y71700
X30700Y69700
X30800Y100300
X31100Y46300
X31700Y70700
X32300Y13700
X33000Y78300
X33000Y62300
X33400Y81100
X33600Y68100
X34400Y96700
X34700Y4300
X35300Y14900
X35700Y21900
X35800Y49100
X36000Y51400
X36300Y61000
X36600Y41700
X36800Y29300
X36900Y33000
X37200Y37500
X37900Y46000
X38100Y62300
X38100Y61100
X38100Y60000
X38300Y11000
X38600Y89000
X38700Y44100
X38800Y69600
X38800Y50500
X39000Y80000
X39300Y91200
X39500Y71800
X39600Y90100
X40000Y57400
X40300Y99400
X40400Y75100
X40900Y91800
X41200Y34900
X41500Y60100
X41700Y90900
X41800Y67000
X41900Y61100
X41900Y38700
X42000Y63400
X42100Y15200
X42600Y90300
X42900Y66000
X43100Y62300
X43300Y87500
X43400Y25000
X43700Y41700
X43900Y47400
X44300Y48700
X45600Y85200
X45600Y38300
X46000Y4500
X46500Y29400
X47000Y13700
X47100Y92900
X47500Y29000
X47700Y86500
X47800Y70000
X47800Y65000
X48100Y67100
X48200Y27600
X48300Y57900
X48700Y10100
X49100Y13100
X49200Y27900
X50000Y97400
X50400Y70000
X51200Y46900
X51300Y76900
X51800Y81000
X52100Y33600
X52100Y22000
X52500Y8900
X52600Y88100
X52600Y47200
X52900Y34400
X54300Y82000
X54300Y38500
X54400Y14200
X55000Y49000
X55300Y33500
X56300Y33100
X56900Y4700
X57100Y46200
X57400Y90300
X57400Y32700
X57500Y18300
X57600Y67000
X57700Y48400
X58400Y25000
X58700Y14800
X59300Y99100
X60000Y13100
X60900Y25000
X61000Y36300
X61100Y19200
X61300Y56900
X62000Y87000
X63900Y15200
X64200Y29800
X64500Y92100
X64600Y98700
X64700Y59800
X65000Y47600
X65200Y43400
X65600Y26800
X65700Y22300
X67200Y4900
X67700Y34100
X68100Y30100
T2
X5530Y86235
X5530Y82335
X6800Y84965
X6800Y81065
X8070Y86235
X8070Y82335
X18230Y33035
X19065Y85470
X19065Y82930
X19500Y31765
X20335Y84200
X20770Y33035
X22965Y85470
X22965Y82930
X24235Y84200
X36465Y20300
X37735Y21570
X37735Y19030
X63065Y59270
X63065Y56730
X64335Y58000
T3
X2000Y54600
X2000Y47000
X2700Y72200
X2700Y64600
X4100Y54600
X4100Y47000
X4800Y72200
X4800Y64600
X5400Y97040
X5400Y91960
X6060Y47400
X7700Y37600
X8200Y42000
X10460Y103600
X10730Y40000
X11140Y47400
X11760Y90400
X13060Y47400
X13270Y40000
X15300Y37600
X15540Y103600
X15800Y42000
X16840Y90400
X18060Y60500
X18140Y47400
X18300Y23540
X18300Y18460
X18860Y90400
X20060Y47400
X20500Y23540
X20500Y18460
X23140Y60500
X23940Y90400
X25140Y47400
X25730Y40000
X26000Y97540
X26000Y92460
X27100Y48240
X27100Y43160
X28270Y40000
X29760Y77400
X31060Y39000
X31260Y64000
X34840Y77400
X36140Y39000
X36340Y64000
X39400Y46840
X39400Y41760
X40730Y40000
X40860Y16600
X42960Y54400
X43270Y40000
X45760Y91300
X45900Y101340
X45900Y96260
X45940Y16600
X47560Y41000
X48040Y54400
X49850Y87750
X50000Y37140
X50000Y32060
X50060Y55700
X50060Y53600
X50750Y82650
X50840Y91300
X51000Y64640
X51000Y59560
X52640Y41000
X55140Y55700
X55140Y53600
X55730Y40000
X56400Y19900
X57060Y53600
X58270Y40000
X59260Y37800
X61500Y100490
X61500Y95410
X62140Y53600
X63950Y87750
X64000Y31540
X64000Y26460
X64000Y19900
X64340Y37800
X64700Y54840
X64700Y49760
X64850Y82650
T4
X2000Y45000
X2850Y40800
X3300Y30000
X3900Y22750
X3900Y20250
X4000Y56900
X4500Y31800
X4600Y45000
X5350Y40800
X6580Y57510
X6580Y49890
X7880Y100510
X7880Y92890
X9120Y57510
X9120Y49890
X10420Y100510
X10420Y92890
X11660Y57510
X11660Y49890
X12960Y100510
X12960Y92890
X14200Y57510
X14200Y49890
X15500Y100510
X15500Y92890
X16740Y57510
X16740Y49890
X18040Y100510
X18040Y92890
X19280Y57510
X19280Y49890
X19710Y74410
X19710Y66790
X20580Y100510
X20580Y92890
X21820Y57510
X21820Y49890
X22250Y74410
X22250Y66790
X23120Y100510
X23120Y92890
X23700Y87900
X24500Y49700
X24790Y74410
X24790Y66790
X27330Y74410
X27330Y66790
X29870Y74410
X29870Y66790
X32410Y74410
X32410Y66790
X34950Y74410
X34950Y66790
X35000Y45000
X35000Y42700
X37490Y74410
X37490Y66790
X44980Y51110
X44980Y43490
X47520Y51110
X47520Y43490
X48330Y24510
X48330Y16890
X50060Y51110
X50060Y43490
X50870Y24510
X50870Y16890
X52450Y94800
X52600Y51110
X52600Y43490
X54950Y94800
X55140Y51110
X55140Y43490
X55750Y100500
X57680Y51110
X57680Y43490
X58000Y55600
X58250Y100500
X60220Y51110
X60220Y43490
X62600Y51100
X62700Y42700
T5
X2000Y102890
X2000Y100350
X2000Y97810
X2000Y95270
X2000Y92730
X2000Y90190
X2000Y87650
X2000Y85110
X2600Y16900
X2900Y35100
X4000Y62200
X4000Y59200
X4900Y78800
X4900Y75800
X5600Y16900
X5900Y35100
X6200Y90000
X7100Y44600
X7800Y77000
X7800Y74000
X9200Y90000
X9500Y60000
X9500Y31500
X9500Y26500
X10100Y44600
X10300Y83200
X10500Y77000
X10500Y74000
X10700Y21000
X12000Y60000
X12500Y45000
X12700Y79700
X12800Y88200
X13500Y77000
X13500Y74000
X13700Y21000
X14500Y60000
X14500Y31500
X14500Y26500
X15300Y83200
X15500Y45000
X15700Y79700
X15900Y22500
X15900Y19500
X16500Y77000
X16500Y74000
X17400Y39300
X17400Y36300
X18400Y45000
X18400Y42000
X18500Y87900
X18500Y63600
X19000Y80400
X19000Y77400
X19800Y28900
X19800Y25900
X20500Y39300
X20500Y36200
X21100Y45000
X21100Y42300
X21500Y87900
X21500Y63600
X22000Y80400
X22000Y77400
X23000Y22500
X23000Y19500
X23070Y104000
X23500Y39300
X23500Y36200
X24100Y45000
X24100Y42300
X24300Y63600
X24500Y52000
X24500Y31500
X24500Y26500
X24800Y80400
X24800Y77400
X24900Y57600
X24900Y54600
X25610Y104000
X26300Y36500
X26600Y87200
X26600Y84200
X27300Y63600
X27500Y80400
X27500Y77400
X27500Y52000
X27900Y60600
X27900Y57600
X28150Y104000
X29300Y36500
X29500Y31500
X29500Y26500
X29700Y45400
X29700Y42300
X30100Y80600
X30690Y104000
X31100Y20300
X32000Y88000
X32000Y47500
X32100Y36500
X32600Y85600
X32700Y45400
X32700Y42300
X33230Y104000
X34100Y20300
X34500Y88000
X34500Y47500
X34800Y33700
X34800Y30700
X35100Y80600
X35100Y36500
X35600Y16800
X35770Y104000
X37000Y88000
X37000Y47500
X37500Y80600
X37500Y77600
X38310Y104000
X38500Y86200
X38500Y83200
X38600Y16800
X38700Y39000
X38700Y36000
X39500Y31500
X39500Y26500
X40500Y80600
X40500Y77600
X40850Y104000
X40900Y19100
X41700Y36600
X42100Y52100
X42100Y49100
X42100Y46500
X42100Y43500
X42700Y21500
X43390Y104000
X43400Y93180
X43400Y83020
X43900Y19100
X44500Y31500
X44500Y26500
X44700Y36600
X45500Y74890
X45500Y72350
X45500Y69810
X45500Y67270
X45500Y64730
X45500Y62190
X45500Y59650
X45500Y57110
X45700Y21500
X45930Y104000
X46400Y88180
X46400Y78020
X47500Y36700
X47500Y33700
X49000Y104000
X49000Y94000
X53000Y36600
X53220Y77870
X53220Y75330
X53800Y19900
X53800Y16900
X54500Y60000
X54500Y31500
X54500Y26500
X55760Y77870
X55760Y75330
X56000Y36600
X56700Y57600
X57000Y60000
X58300Y77870
X58300Y75330
X59000Y16900
X59500Y60000
X59500Y31500
X59500Y26500
X59700Y57600
X60700Y40500
X60840Y77870
X60840Y75330
X61250Y92930
X61250Y82770
X62000Y16900
X63000Y48200
X63000Y45200
X63380Y77870
X63380Y75330
X63700Y40500
X64000Y100480
X64000Y90320
X64600Y67200
X64600Y64200
X66600Y31500
X66600Y28500
T6
X7000Y13800
X7000Y5700
X7000Y2700
X18000Y13800
X18000Y5700
X18000Y2700
X29000Y13800
X29000Y5700
X29000Y2700
X40000Y13800
X40000Y5700
X40000Y2700
X51000Y13800
X51000Y5700
X51000Y2700
X62000Y13800
X62000Y5700
X62000Y2700
T7
X7000Y67000
X17000Y67000
X29500Y95000
X29500Y54500
X39500Y95000
X39500Y54500
X52000Y67000
X62000Y67000
T4
X57400Y88540G85X56600Y88540
G05
X57400Y86000G85X56600Y86000
G05
X57400Y83460G85X56600Y83460
G05
T0
M30
