G04 #@! TF.FileFunction,Legend,Top*
%FSLAX46Y46*%
G04 Gerber Fmt 4.6, Leading zero omitted, Abs format (unit mm)*
G04 Created by KiCad (PCBNEW (2016-08-20 BZR 7083)-product) date Wed Jun 27 19:48:58 2018*
%MOMM*%
%LPD*%
G01*
G04 APERTURE LIST*
%ADD10C,0.100000*%
%ADD11C,0.150000*%
%ADD12C,0.200000*%
G04 APERTURE END LIST*
D10*
D11*
X67192857Y59047620D02*
X67192857Y59380953D01*
X67978571Y59523810D02*
X67978571Y59047620D01*
X66478571Y59047620D01*
X66478571Y59523810D01*
X67978571Y59952381D02*
X66978571Y59952381D01*
X67264285Y59952381D02*
X67121428Y60000000D01*
X67050000Y60047620D01*
X66978571Y60142858D01*
X66978571Y60238096D01*
X67978571Y60571429D02*
X66978571Y60571429D01*
X66478571Y60571429D02*
X66550000Y60523810D01*
X66621428Y60571429D01*
X66550000Y60619048D01*
X66478571Y60571429D01*
X66621428Y60571429D01*
X67907142Y61476191D02*
X67978571Y61380953D01*
X67978571Y61190477D01*
X67907142Y61095239D01*
X67835714Y61047620D01*
X67692857Y61000000D01*
X67264285Y61000000D01*
X67121428Y61047620D01*
X67050000Y61095239D01*
X66978571Y61190477D01*
X66978571Y61380953D01*
X67050000Y61476191D01*
X67978571Y62333334D02*
X67192857Y62333334D01*
X67050000Y62285715D01*
X66978571Y62190477D01*
X66978571Y62000000D01*
X67050000Y61904762D01*
X67907142Y62333334D02*
X67978571Y62238096D01*
X67978571Y62000000D01*
X67907142Y61904762D01*
X67764285Y61857143D01*
X67621428Y61857143D01*
X67478571Y61904762D01*
X67407142Y62000000D01*
X67407142Y62238096D01*
X67335714Y62333334D01*
X67907142Y63523810D02*
X67978571Y63666667D01*
X67978571Y63904762D01*
X67907142Y64000000D01*
X67835714Y64047620D01*
X67692857Y64095239D01*
X67550000Y64095239D01*
X67407142Y64047620D01*
X67335714Y64000000D01*
X67264285Y63904762D01*
X67192857Y63714286D01*
X67121428Y63619048D01*
X67050000Y63571429D01*
X66907142Y63523810D01*
X66764285Y63523810D01*
X66621428Y63571429D01*
X66550000Y63619048D01*
X66478571Y63714286D01*
X66478571Y63952381D01*
X66550000Y64095239D01*
X66978571Y64428572D02*
X67978571Y64666667D01*
X66978571Y64904762D02*
X67978571Y64666667D01*
X68335714Y64571429D01*
X68407142Y64523810D01*
X68478571Y64428572D01*
X66978571Y65285715D02*
X67978571Y65285715D01*
X67121428Y65285715D02*
X67050000Y65333334D01*
X66978571Y65428572D01*
X66978571Y65571429D01*
X67050000Y65666667D01*
X67192857Y65714286D01*
X67978571Y65714286D01*
X66978571Y66047620D02*
X66978571Y66428572D01*
X66478571Y66190477D02*
X67764285Y66190477D01*
X67907142Y66238096D01*
X67978571Y66333334D01*
X67978571Y66428572D01*
X67978571Y66761905D02*
X66478571Y66761905D01*
X67978571Y67190477D02*
X67192857Y67190477D01*
X67050000Y67142858D01*
X66978571Y67047620D01*
X66978571Y66904762D01*
X67050000Y66809524D01*
X67121428Y66761905D01*
X67907142Y67619048D02*
X67978571Y67714286D01*
X67978571Y67904762D01*
X67907142Y68000000D01*
X67764285Y68047620D01*
X67692857Y68047620D01*
X67550000Y68000000D01*
X67478571Y67904762D01*
X67478571Y67761905D01*
X67407142Y67666667D01*
X67264285Y67619048D01*
X67192857Y67619048D01*
X67050000Y67666667D01*
X66978571Y67761905D01*
X66978571Y67904762D01*
X67050000Y68000000D01*
X67978571Y69238096D02*
X66478571Y69238096D01*
X66478571Y69476191D01*
X66550000Y69619048D01*
X66692857Y69714286D01*
X66835714Y69761905D01*
X67121428Y69809524D01*
X67335714Y69809524D01*
X67621428Y69761905D01*
X67764285Y69714286D01*
X67907142Y69619048D01*
X67978571Y69476191D01*
X67978571Y69238096D01*
X67978571Y70238096D02*
X66478571Y70238096D01*
X67264285Y70904762D02*
X67978571Y70904762D01*
X66478571Y70571429D02*
X67264285Y70904762D01*
X66478571Y71238096D01*
X67978571Y72333334D02*
X66478571Y72333334D01*
X66478571Y72571429D01*
X66550000Y72714286D01*
X66692857Y72809524D01*
X66835714Y72857143D01*
X67121428Y72904762D01*
X67335714Y72904762D01*
X67621428Y72857143D01*
X67764285Y72809524D01*
X67907142Y72714286D01*
X67978571Y72571429D01*
X67978571Y72333334D01*
X67192857Y73333334D02*
X67192857Y73666667D01*
X67978571Y73809524D02*
X67978571Y73333334D01*
X66478571Y73333334D01*
X66478571Y73809524D01*
X67978571Y74714286D02*
X67978571Y74238096D01*
X66478571Y74238096D01*
X67550000Y75000000D02*
X67550000Y75476191D01*
X67978571Y74904762D02*
X66478571Y75238096D01*
X67978571Y75571429D01*
X67264285Y76095239D02*
X67978571Y76095239D01*
X66478571Y75761905D02*
X67264285Y76095239D01*
X66478571Y76428572D01*
X66978571Y77428572D02*
X67978571Y77666667D01*
X66978571Y77904762D01*
X66478571Y78714286D02*
X66478571Y78523810D01*
X66550000Y78428572D01*
X66621428Y78380953D01*
X66835714Y78285715D01*
X67121428Y78238096D01*
X67692857Y78238096D01*
X67835714Y78285715D01*
X67907142Y78333334D01*
X67978571Y78428572D01*
X67978571Y78619048D01*
X67907142Y78714286D01*
X67835714Y78761905D01*
X67692857Y78809524D01*
X67335714Y78809524D01*
X67192857Y78761905D01*
X67121428Y78714286D01*
X67050000Y78619048D01*
X67050000Y78428572D01*
X67121428Y78333334D01*
X67192857Y78285715D01*
X67335714Y78238096D01*
X67835714Y79238096D02*
X67907142Y79285715D01*
X67978571Y79238096D01*
X67907142Y79190477D01*
X67835714Y79238096D01*
X67978571Y79238096D01*
X66478571Y79904762D02*
X66478571Y80000000D01*
X66550000Y80095239D01*
X66621428Y80142858D01*
X66764285Y80190477D01*
X67050000Y80238096D01*
X67407142Y80238096D01*
X67692857Y80190477D01*
X67835714Y80142858D01*
X67907142Y80095239D01*
X67978571Y80000000D01*
X67978571Y79904762D01*
X67907142Y79809524D01*
X67835714Y79761905D01*
X67692857Y79714286D01*
X67407142Y79666667D01*
X67050000Y79666667D01*
X66764285Y79714286D01*
X66621428Y79761905D01*
X66550000Y79809524D01*
X66478571Y79904762D01*
X66478571Y81714286D02*
X67550000Y81714286D01*
X67764285Y81666667D01*
X67907142Y81571429D01*
X67978571Y81428572D01*
X67978571Y81333334D01*
X66978571Y82619048D02*
X67978571Y82619048D01*
X66978571Y82190477D02*
X67764285Y82190477D01*
X67907142Y82238096D01*
X67978571Y82333334D01*
X67978571Y82476191D01*
X67907142Y82571429D01*
X67835714Y82619048D01*
X66978571Y83095239D02*
X67978571Y83095239D01*
X67121428Y83095239D02*
X67050000Y83142858D01*
X66978571Y83238096D01*
X66978571Y83380953D01*
X67050000Y83476191D01*
X67192857Y83523810D01*
X67978571Y83523810D01*
X67907142Y84380953D02*
X67978571Y84285715D01*
X67978571Y84095239D01*
X67907142Y84000000D01*
X67764285Y83952381D01*
X67192857Y83952381D01*
X67050000Y84000000D01*
X66978571Y84095239D01*
X66978571Y84285715D01*
X67050000Y84380953D01*
X67192857Y84428572D01*
X67335714Y84428572D01*
X67478571Y83952381D01*
X66621428Y85571429D02*
X66550000Y85619048D01*
X66478571Y85714286D01*
X66478571Y85952381D01*
X66550000Y86047620D01*
X66621428Y86095239D01*
X66764285Y86142858D01*
X66907142Y86142858D01*
X67121428Y86095239D01*
X67978571Y85523810D01*
X67978571Y86142858D01*
X66478571Y86761905D02*
X66478571Y86857143D01*
X66550000Y86952381D01*
X66621428Y87000000D01*
X66764285Y87047620D01*
X67050000Y87095239D01*
X67407142Y87095239D01*
X67692857Y87047620D01*
X67835714Y87000000D01*
X67907142Y86952381D01*
X67978571Y86857143D01*
X67978571Y86761905D01*
X67907142Y86666667D01*
X67835714Y86619048D01*
X67692857Y86571429D01*
X67407142Y86523810D01*
X67050000Y86523810D01*
X66764285Y86571429D01*
X66621428Y86619048D01*
X66550000Y86666667D01*
X66478571Y86761905D01*
X67978571Y88047620D02*
X67978571Y87476191D01*
X67978571Y87761905D02*
X66478571Y87761905D01*
X66692857Y87666667D01*
X66835714Y87571429D01*
X66907142Y87476191D01*
X67121428Y88619048D02*
X67050000Y88523810D01*
X66978571Y88476191D01*
X66835714Y88428572D01*
X66764285Y88428572D01*
X66621428Y88476191D01*
X66550000Y88523810D01*
X66478571Y88619048D01*
X66478571Y88809524D01*
X66550000Y88904762D01*
X66621428Y88952381D01*
X66764285Y89000000D01*
X66835714Y89000000D01*
X66978571Y88952381D01*
X67050000Y88904762D01*
X67121428Y88809524D01*
X67121428Y88619048D01*
X67192857Y88523810D01*
X67264285Y88476191D01*
X67407142Y88428572D01*
X67692857Y88428572D01*
X67835714Y88476191D01*
X67907142Y88523810D01*
X67978571Y88619048D01*
X67978571Y88809524D01*
X67907142Y88904762D01*
X67835714Y88952381D01*
X67692857Y89000000D01*
X67407142Y89000000D01*
X67264285Y88952381D01*
X67192857Y88904762D01*
X67121428Y88809524D01*
D12*
X32952380Y101821429D02*
X33523809Y101821429D01*
X33238095Y100321429D02*
X33238095Y101821429D01*
X33857142Y100321429D02*
X33857142Y101821429D01*
X34333333Y100321429D02*
X34333333Y101821429D01*
X34666666Y100750000D01*
X35000000Y101821429D01*
X35000000Y100321429D01*
X35476190Y101107143D02*
X35809523Y101107143D01*
X35952380Y100321429D02*
X35476190Y100321429D01*
X35476190Y101821429D01*
X35952380Y101821429D01*
X54928571Y79892858D02*
X55071428Y79821429D01*
X55309523Y79821429D01*
X55404761Y79892858D01*
X55452380Y79964286D01*
X55500000Y80107143D01*
X55500000Y80250000D01*
X55452380Y80392858D01*
X55404761Y80464286D01*
X55309523Y80535715D01*
X55119047Y80607143D01*
X55023809Y80678572D01*
X54976190Y80750000D01*
X54928571Y80892858D01*
X54928571Y81035715D01*
X54976190Y81178572D01*
X55023809Y81250000D01*
X55119047Y81321429D01*
X55357142Y81321429D01*
X55500000Y81250000D01*
X56500000Y79964286D02*
X56452380Y79892858D01*
X56309523Y79821429D01*
X56214285Y79821429D01*
X56071428Y79892858D01*
X55976190Y80035715D01*
X55928571Y80178572D01*
X55880952Y80464286D01*
X55880952Y80678572D01*
X55928571Y80964286D01*
X55976190Y81107143D01*
X56071428Y81250000D01*
X56214285Y81321429D01*
X56309523Y81321429D01*
X56452380Y81250000D01*
X56500000Y81178572D01*
X56880952Y80250000D02*
X57357142Y80250000D01*
X56785714Y79821429D02*
X57119047Y81321429D01*
X57452380Y79821429D01*
X58261904Y79821429D02*
X57785714Y79821429D01*
X57785714Y81321429D01*
X58595238Y80607143D02*
X58928571Y80607143D01*
X59071428Y79821429D02*
X58595238Y79821429D01*
X58595238Y81321429D01*
X59071428Y81321429D01*
X53909523Y73407143D02*
X53576190Y73407143D01*
X53576190Y72621429D02*
X53576190Y74121429D01*
X54052380Y74121429D01*
X54433333Y73407143D02*
X54766666Y73407143D01*
X54909523Y72621429D02*
X54433333Y72621429D01*
X54433333Y74121429D01*
X54909523Y74121429D01*
X55338095Y73407143D02*
X55671428Y73407143D01*
X55814285Y72621429D02*
X55338095Y72621429D01*
X55338095Y74121429D01*
X55814285Y74121429D01*
X56242857Y72621429D02*
X56242857Y74121429D01*
X56480952Y74121429D01*
X56623809Y74050000D01*
X56719047Y73907143D01*
X56766666Y73764286D01*
X56814285Y73478572D01*
X56814285Y73264286D01*
X56766666Y72978572D01*
X56719047Y72835715D01*
X56623809Y72692858D01*
X56480952Y72621429D01*
X56242857Y72621429D01*
X57576190Y73407143D02*
X57719047Y73335715D01*
X57766666Y73264286D01*
X57814285Y73121429D01*
X57814285Y72907143D01*
X57766666Y72764286D01*
X57719047Y72692858D01*
X57623809Y72621429D01*
X57242857Y72621429D01*
X57242857Y74121429D01*
X57576190Y74121429D01*
X57671428Y74050000D01*
X57719047Y73978572D01*
X57766666Y73835715D01*
X57766666Y73692858D01*
X57719047Y73550000D01*
X57671428Y73478572D01*
X57576190Y73407143D01*
X57242857Y73407143D01*
X58195238Y73050000D02*
X58671428Y73050000D01*
X58100000Y72621429D02*
X58433333Y74121429D01*
X58766666Y72621429D01*
X59671428Y72764286D02*
X59623809Y72692858D01*
X59480952Y72621429D01*
X59385714Y72621429D01*
X59242857Y72692858D01*
X59147619Y72835715D01*
X59100000Y72978572D01*
X59052380Y73264286D01*
X59052380Y73478572D01*
X59100000Y73764286D01*
X59147619Y73907143D01*
X59242857Y74050000D01*
X59385714Y74121429D01*
X59480952Y74121429D01*
X59623809Y74050000D01*
X59671428Y73978572D01*
X60100000Y72621429D02*
X60100000Y74121429D01*
X60671428Y72621429D02*
X60242857Y73478572D01*
X60671428Y74121429D02*
X60100000Y73264286D01*
X18133333Y71175000D02*
X18609523Y71175000D01*
X18038095Y70746429D02*
X18371428Y72246429D01*
X18704761Y70746429D01*
X19038095Y72246429D02*
X19038095Y71032143D01*
X19085714Y70889286D01*
X19133333Y70817858D01*
X19228571Y70746429D01*
X19419047Y70746429D01*
X19514285Y70817858D01*
X19561904Y70889286D01*
X19609523Y71032143D01*
X19609523Y72246429D01*
X20085714Y70746429D02*
X20085714Y72246429D01*
X20323809Y72246429D01*
X20466666Y72175000D01*
X20561904Y72032143D01*
X20609523Y71889286D01*
X20657142Y71603572D01*
X20657142Y71389286D01*
X20609523Y71103572D01*
X20561904Y70960715D01*
X20466666Y70817858D01*
X20323809Y70746429D01*
X20085714Y70746429D01*
X21085714Y70746429D02*
X21085714Y72246429D01*
X21752380Y72246429D02*
X21942857Y72246429D01*
X22038095Y72175000D01*
X22133333Y72032143D01*
X22180952Y71746429D01*
X22180952Y71246429D01*
X22133333Y70960715D01*
X22038095Y70817858D01*
X21942857Y70746429D01*
X21752380Y70746429D01*
X21657142Y70817858D01*
X21561904Y70960715D01*
X21514285Y71246429D01*
X21514285Y71746429D01*
X21561904Y72032143D01*
X21657142Y72175000D01*
X21752380Y72246429D01*
X23371428Y70746429D02*
X23371428Y72246429D01*
X23847619Y70746429D02*
X23847619Y72246429D01*
X24419047Y70746429D01*
X24419047Y72246429D01*
X20776190Y68296429D02*
X20300000Y68296429D01*
X20300000Y69796429D01*
X20966666Y69796429D02*
X21300000Y68296429D01*
X21633333Y69796429D01*
X22442857Y68296429D02*
X21966666Y68296429D01*
X21966666Y69796429D01*
X33352380Y59921429D02*
X33352380Y61421429D01*
X33685714Y60350000D01*
X34019047Y61421429D01*
X34019047Y59921429D01*
X34495238Y59921429D02*
X34495238Y61421429D01*
X34876190Y61421429D02*
X35542857Y59921429D01*
X35542857Y61421429D02*
X34876190Y59921429D01*
X59585714Y22957143D02*
X60157142Y22957143D01*
X59871428Y21757143D02*
X59871428Y22957143D01*
X60442857Y22100000D02*
X60919047Y22100000D01*
X60347619Y21757143D02*
X60680952Y22957143D01*
X61014285Y21757143D01*
X61347619Y21757143D02*
X61347619Y22957143D01*
X61728571Y22957143D01*
X61823809Y22900000D01*
X61871428Y22842858D01*
X61919047Y22728572D01*
X61919047Y22557143D01*
X61871428Y22442858D01*
X61823809Y22385715D01*
X61728571Y22328572D01*
X61347619Y22328572D01*
X59061904Y19814286D02*
X59204761Y19757143D01*
X59442857Y19757143D01*
X59538095Y19814286D01*
X59585714Y19871429D01*
X59633333Y19985715D01*
X59633333Y20100000D01*
X59585714Y20214286D01*
X59538095Y20271429D01*
X59442857Y20328572D01*
X59252380Y20385715D01*
X59157142Y20442858D01*
X59109523Y20500000D01*
X59061904Y20614286D01*
X59061904Y20728572D01*
X59109523Y20842858D01*
X59157142Y20900000D01*
X59252380Y20957143D01*
X59490476Y20957143D01*
X59633333Y20900000D01*
X60252380Y20328572D02*
X60252380Y19757143D01*
X59919047Y20957143D02*
X60252380Y20328572D01*
X60585714Y20957143D01*
X60919047Y19757143D02*
X60919047Y20957143D01*
X61490476Y19757143D01*
X61490476Y20957143D01*
X62538095Y19871429D02*
X62490476Y19814286D01*
X62347619Y19757143D01*
X62252380Y19757143D01*
X62109523Y19814286D01*
X62014285Y19928572D01*
X61966666Y20042858D01*
X61919047Y20271429D01*
X61919047Y20442858D01*
X61966666Y20671429D01*
X62014285Y20785715D01*
X62109523Y20900000D01*
X62252380Y20957143D01*
X62347619Y20957143D01*
X62490476Y20900000D01*
X62538095Y20842858D01*
X32747619Y22757143D02*
X32414285Y23328572D01*
X32176190Y22757143D02*
X32176190Y23957143D01*
X32557142Y23957143D01*
X32652380Y23900000D01*
X32700000Y23842858D01*
X32747619Y23728572D01*
X32747619Y23557143D01*
X32700000Y23442858D01*
X32652380Y23385715D01*
X32557142Y23328572D01*
X32176190Y23328572D01*
X33176190Y23385715D02*
X33509523Y23385715D01*
X33652380Y22757143D02*
X33176190Y22757143D01*
X33176190Y23957143D01*
X33652380Y23957143D01*
X33938095Y23957143D02*
X34271428Y22757143D01*
X34604761Y23957143D01*
X34938095Y23385715D02*
X35271428Y23385715D01*
X35414285Y22757143D02*
X34938095Y22757143D01*
X34938095Y23957143D01*
X35414285Y23957143D01*
X36414285Y22757143D02*
X36080952Y23328572D01*
X35842857Y22757143D02*
X35842857Y23957143D01*
X36223809Y23957143D01*
X36319047Y23900000D01*
X36366666Y23842858D01*
X36414285Y23728572D01*
X36414285Y23557143D01*
X36366666Y23442858D01*
X36319047Y23385715D01*
X36223809Y23328572D01*
X35842857Y23328572D01*
X36795238Y22814286D02*
X36938095Y22757143D01*
X37176190Y22757143D01*
X37271428Y22814286D01*
X37319047Y22871429D01*
X37366666Y22985715D01*
X37366666Y23100000D01*
X37319047Y23214286D01*
X37271428Y23271429D01*
X37176190Y23328572D01*
X36985714Y23385715D01*
X36890476Y23442858D01*
X36842857Y23500000D01*
X36795238Y23614286D01*
X36795238Y23728572D01*
X36842857Y23842858D01*
X36890476Y23900000D01*
X36985714Y23957143D01*
X37223809Y23957143D01*
X37366666Y23900000D01*
X37795238Y23385715D02*
X38128571Y23385715D01*
X38271428Y22757143D02*
X37795238Y22757143D01*
X37795238Y23957143D01*
X38271428Y23957143D01*
X25385714Y21357143D02*
X25385714Y22557143D01*
X25385714Y21985715D02*
X25957142Y21985715D01*
X25957142Y21357143D02*
X25957142Y22557143D01*
X26623809Y22557143D02*
X26814285Y22557143D01*
X26909523Y22500000D01*
X27004761Y22385715D01*
X27052380Y22157143D01*
X27052380Y21757143D01*
X27004761Y21528572D01*
X26909523Y21414286D01*
X26814285Y21357143D01*
X26623809Y21357143D01*
X26528571Y21414286D01*
X26433333Y21528572D01*
X26385714Y21757143D01*
X26385714Y22157143D01*
X26433333Y22385715D01*
X26528571Y22500000D01*
X26623809Y22557143D01*
X27957142Y21357143D02*
X27480952Y21357143D01*
X27480952Y22557143D01*
X28290476Y21357143D02*
X28290476Y22557143D01*
X28528571Y22557143D01*
X28671428Y22500000D01*
X28766666Y22385715D01*
X28814285Y22271429D01*
X28861904Y22042858D01*
X28861904Y21871429D01*
X28814285Y21642858D01*
X28766666Y21528572D01*
X28671428Y21414286D01*
X28528571Y21357143D01*
X28290476Y21357143D01*
X3761904Y26300000D02*
X4238095Y26300000D01*
X3666666Y25957143D02*
X4000000Y27157143D01*
X4333333Y25957143D01*
X4666666Y25957143D02*
X4666666Y27157143D01*
X4904761Y27157143D01*
X5047619Y27100000D01*
X5142857Y26985715D01*
X5190476Y26871429D01*
X5238095Y26642858D01*
X5238095Y26471429D01*
X5190476Y26242858D01*
X5142857Y26128572D01*
X5047619Y26014286D01*
X4904761Y25957143D01*
X4666666Y25957143D01*
X5666666Y25957143D02*
X5666666Y27157143D01*
X5904761Y27157143D01*
X6047619Y27100000D01*
X6142857Y26985715D01*
X6190476Y26871429D01*
X6238095Y26642858D01*
X6238095Y26471429D01*
X6190476Y26242858D01*
X6142857Y26128572D01*
X6047619Y26014286D01*
X5904761Y25957143D01*
X5666666Y25957143D01*
X56800000Y3057143D02*
X56990476Y3057143D01*
X57085714Y3000000D01*
X57180952Y2885715D01*
X57228571Y2657143D01*
X57228571Y2257143D01*
X57180952Y2028572D01*
X57085714Y1914286D01*
X56990476Y1857143D01*
X56800000Y1857143D01*
X56704761Y1914286D01*
X56609523Y2028572D01*
X56561904Y2257143D01*
X56561904Y2657143D01*
X56609523Y2885715D01*
X56704761Y3000000D01*
X56800000Y3057143D01*
X57657142Y3057143D02*
X57657142Y2085715D01*
X57704761Y1971429D01*
X57752380Y1914286D01*
X57847619Y1857143D01*
X58038095Y1857143D01*
X58133333Y1914286D01*
X58180952Y1971429D01*
X58228571Y2085715D01*
X58228571Y3057143D01*
X58561904Y3057143D02*
X59133333Y3057143D01*
X58847619Y1857143D02*
X58847619Y3057143D01*
X44719047Y3385715D02*
X44385714Y3385715D01*
X44385714Y2757143D02*
X44385714Y3957143D01*
X44861904Y3957143D01*
X45242857Y3385715D02*
X45576190Y3385715D01*
X45719047Y2757143D02*
X45242857Y2757143D01*
X45242857Y3957143D01*
X45719047Y3957143D01*
X46147619Y3385715D02*
X46480952Y3385715D01*
X46623809Y2757143D02*
X46147619Y2757143D01*
X46147619Y3957143D01*
X46623809Y3957143D01*
X47052380Y2757143D02*
X47052380Y3957143D01*
X47290476Y3957143D01*
X47433333Y3900000D01*
X47528571Y3785715D01*
X47576190Y3671429D01*
X47623809Y3442858D01*
X47623809Y3271429D01*
X47576190Y3042858D01*
X47528571Y2928572D01*
X47433333Y2814286D01*
X47290476Y2757143D01*
X47052380Y2757143D01*
X48052380Y3214286D02*
X48814285Y3214286D01*
X43933333Y1385715D02*
X44076190Y1328572D01*
X44123809Y1271429D01*
X44171428Y1157143D01*
X44171428Y985715D01*
X44123809Y871429D01*
X44076190Y814286D01*
X43980952Y757143D01*
X43600000Y757143D01*
X43600000Y1957143D01*
X43933333Y1957143D01*
X44028571Y1900000D01*
X44076190Y1842858D01*
X44123809Y1728572D01*
X44123809Y1614286D01*
X44076190Y1500000D01*
X44028571Y1442858D01*
X43933333Y1385715D01*
X43600000Y1385715D01*
X44552380Y1100000D02*
X45028571Y1100000D01*
X44457142Y757143D02*
X44790476Y1957143D01*
X45123809Y757143D01*
X46028571Y871429D02*
X45980952Y814286D01*
X45838095Y757143D01*
X45742857Y757143D01*
X45600000Y814286D01*
X45504761Y928572D01*
X45457142Y1042858D01*
X45409523Y1271429D01*
X45409523Y1442858D01*
X45457142Y1671429D01*
X45504761Y1785715D01*
X45600000Y1900000D01*
X45742857Y1957143D01*
X45838095Y1957143D01*
X45980952Y1900000D01*
X46028571Y1842858D01*
X46457142Y757143D02*
X46457142Y1957143D01*
X47028571Y757143D02*
X46600000Y1442858D01*
X47028571Y1957143D02*
X46457142Y1271429D01*
X48790476Y871429D02*
X48742857Y814286D01*
X48600000Y757143D01*
X48504761Y757143D01*
X48361904Y814286D01*
X48266666Y928572D01*
X48219047Y1042858D01*
X48171428Y1271429D01*
X48171428Y1442858D01*
X48219047Y1671429D01*
X48266666Y1785715D01*
X48361904Y1900000D01*
X48504761Y1957143D01*
X48600000Y1957143D01*
X48742857Y1900000D01*
X48790476Y1842858D01*
X49076190Y1957143D02*
X49409523Y757143D01*
X49742857Y1957143D01*
X32280952Y2757143D02*
X32280952Y3957143D01*
X32519047Y3957143D01*
X32661904Y3900000D01*
X32757142Y3785715D01*
X32804761Y3671429D01*
X32852380Y3442858D01*
X32852380Y3271429D01*
X32804761Y3042858D01*
X32757142Y2928572D01*
X32661904Y2814286D01*
X32519047Y2757143D01*
X32280952Y2757143D01*
X33852380Y2757143D02*
X33519047Y3328572D01*
X33280952Y2757143D02*
X33280952Y3957143D01*
X33661904Y3957143D01*
X33757142Y3900000D01*
X33804761Y3842858D01*
X33852380Y3728572D01*
X33852380Y3557143D01*
X33804761Y3442858D01*
X33757142Y3385715D01*
X33661904Y3328572D01*
X33280952Y3328572D01*
X34471428Y3328572D02*
X34471428Y2757143D01*
X34138095Y3957143D02*
X34471428Y3328572D01*
X34804761Y3957143D01*
X35852380Y4014286D02*
X34995238Y2471429D01*
X36090476Y3957143D02*
X36328571Y2757143D01*
X36519047Y3614286D01*
X36709523Y2757143D01*
X36947619Y3957143D01*
X37328571Y3385715D02*
X37661904Y3385715D01*
X37804761Y2757143D02*
X37328571Y2757143D01*
X37328571Y3957143D01*
X37804761Y3957143D01*
X38090476Y3957143D02*
X38661904Y3957143D01*
X38376190Y2757143D02*
X38376190Y3957143D01*
X35661904Y871429D02*
X35614285Y814286D01*
X35471428Y757143D01*
X35376190Y757143D01*
X35233333Y814286D01*
X35138095Y928572D01*
X35090476Y1042858D01*
X35042857Y1271429D01*
X35042857Y1442858D01*
X35090476Y1671429D01*
X35138095Y1785715D01*
X35233333Y1900000D01*
X35376190Y1957143D01*
X35471428Y1957143D01*
X35614285Y1900000D01*
X35661904Y1842858D01*
X35947619Y1957143D02*
X36280952Y757143D01*
X36614285Y1957143D01*
D10*
X67750000Y93150000D02*
X68216666Y93283334D01*
X67883333Y93416667D01*
X68216666Y93550000D01*
X67750000Y93683334D01*
X67750000Y93883334D02*
X68216666Y94016667D01*
X67883333Y94150000D01*
X68216666Y94283334D01*
X67750000Y94416667D01*
X67750000Y94616667D02*
X68216666Y94750000D01*
X67883333Y94883334D01*
X68216666Y95016667D01*
X67750000Y95150000D01*
X68150000Y95416667D02*
X68183333Y95450000D01*
X68216666Y95416667D01*
X68183333Y95383334D01*
X68150000Y95416667D01*
X68216666Y95416667D01*
X68183333Y96016667D02*
X68216666Y95950000D01*
X68216666Y95816667D01*
X68183333Y95750000D01*
X68116666Y95716667D01*
X67850000Y95716667D01*
X67783333Y95750000D01*
X67750000Y95816667D01*
X67750000Y95950000D01*
X67783333Y96016667D01*
X67850000Y96050000D01*
X67916666Y96050000D01*
X67983333Y95716667D01*
X68216666Y96350000D02*
X67750000Y96350000D01*
X67883333Y96350000D02*
X67816666Y96383334D01*
X67783333Y96416667D01*
X67750000Y96483334D01*
X67750000Y96550000D01*
X68216666Y96783334D02*
X67750000Y96783334D01*
X67516666Y96783334D02*
X67550000Y96750000D01*
X67583333Y96783334D01*
X67550000Y96816667D01*
X67516666Y96783334D01*
X67583333Y96783334D01*
X68183333Y97416667D02*
X68216666Y97350000D01*
X68216666Y97216667D01*
X68183333Y97150000D01*
X68150000Y97116667D01*
X68083333Y97083334D01*
X67883333Y97083334D01*
X67816666Y97116667D01*
X67783333Y97150000D01*
X67750000Y97216667D01*
X67750000Y97350000D01*
X67783333Y97416667D01*
X68216666Y98016667D02*
X67850000Y98016667D01*
X67783333Y97983334D01*
X67750000Y97916667D01*
X67750000Y97783334D01*
X67783333Y97716667D01*
X68183333Y98016667D02*
X68216666Y97950000D01*
X68216666Y97783334D01*
X68183333Y97716667D01*
X68116666Y97683334D01*
X68050000Y97683334D01*
X67983333Y97716667D01*
X67950000Y97783334D01*
X67950000Y97950000D01*
X67916666Y98016667D01*
X68183333Y98316667D02*
X68216666Y98383334D01*
X68216666Y98516667D01*
X68183333Y98583334D01*
X68116666Y98616667D01*
X68083333Y98616667D01*
X68016666Y98583334D01*
X67983333Y98516667D01*
X67983333Y98416667D01*
X67950000Y98350000D01*
X67883333Y98316667D01*
X67850000Y98316667D01*
X67783333Y98350000D01*
X67750000Y98416667D01*
X67750000Y98516667D01*
X67783333Y98583334D01*
X67750000Y98850000D02*
X68216666Y99016667D01*
X67750000Y99183334D02*
X68216666Y99016667D01*
X68383333Y98950000D01*
X68416666Y98916667D01*
X68450000Y98850000D01*
X67750000Y99450000D02*
X68216666Y99450000D01*
X67816666Y99450000D02*
X67783333Y99483334D01*
X67750000Y99550000D01*
X67750000Y99650000D01*
X67783333Y99716667D01*
X67850000Y99750000D01*
X68216666Y99750000D01*
X67750000Y99983334D02*
X67750000Y100250000D01*
X67516666Y100083334D02*
X68116666Y100083334D01*
X68183333Y100116667D01*
X68216666Y100183334D01*
X68216666Y100250000D01*
X68216666Y100483334D02*
X67516666Y100483334D01*
X68216666Y100783334D02*
X67850000Y100783334D01*
X67783333Y100750000D01*
X67750000Y100683334D01*
X67750000Y100583334D01*
X67783333Y100516667D01*
X67816666Y100483334D01*
X68183333Y101083334D02*
X68216666Y101150000D01*
X68216666Y101283334D01*
X68183333Y101350000D01*
X68116666Y101383334D01*
X68083333Y101383334D01*
X68016666Y101350000D01*
X67983333Y101283334D01*
X67983333Y101183334D01*
X67950000Y101116667D01*
X67883333Y101083334D01*
X67850000Y101083334D01*
X67783333Y101116667D01*
X67750000Y101183334D01*
X67750000Y101283334D01*
X67783333Y101350000D01*
X68150000Y101683334D02*
X68183333Y101716667D01*
X68216666Y101683334D01*
X68183333Y101650000D01*
X68150000Y101683334D01*
X68216666Y101683334D01*
X68216666Y102116667D02*
X68183333Y102050000D01*
X68116666Y102016667D01*
X67516666Y102016667D01*
X67750000Y102316667D02*
X68216666Y102483334D01*
X67750000Y102650000D01*
D12*
X3376190Y1857143D02*
X3376190Y3057143D01*
X3852380Y1857143D02*
X3852380Y3057143D01*
X4423809Y1857143D01*
X4423809Y3057143D01*
X12661904Y1914286D02*
X12804761Y1857143D01*
X13042857Y1857143D01*
X13138095Y1914286D01*
X13185714Y1971429D01*
X13233333Y2085715D01*
X13233333Y2200000D01*
X13185714Y2314286D01*
X13138095Y2371429D01*
X13042857Y2428572D01*
X12852380Y2485715D01*
X12757142Y2542858D01*
X12709523Y2600000D01*
X12661904Y2714286D01*
X12661904Y2828572D01*
X12709523Y2942858D01*
X12757142Y3000000D01*
X12852380Y3057143D01*
X13090476Y3057143D01*
X13233333Y3000000D01*
X13852380Y2428572D02*
X13852380Y1857143D01*
X13519047Y3057143D02*
X13852380Y2428572D01*
X14185714Y3057143D01*
X14519047Y1857143D02*
X14519047Y3057143D01*
X15090476Y1857143D01*
X15090476Y3057143D01*
X16138095Y1971429D02*
X16090476Y1914286D01*
X15947619Y1857143D01*
X15852380Y1857143D01*
X15709523Y1914286D01*
X15614285Y2028572D01*
X15566666Y2142858D01*
X15519047Y2371429D01*
X15519047Y2542858D01*
X15566666Y2771429D01*
X15614285Y2885715D01*
X15709523Y3000000D01*
X15852380Y3057143D01*
X15947619Y3057143D01*
X16090476Y3000000D01*
X16138095Y2942858D01*
X23371428Y3757143D02*
X23942857Y3757143D01*
X23657142Y2557143D02*
X23657142Y3757143D01*
X24276190Y2557143D02*
X24276190Y3757143D01*
X24752380Y2557143D02*
X24752380Y3757143D01*
X25085714Y2900000D01*
X25419047Y3757143D01*
X25419047Y2557143D01*
X25895238Y3185715D02*
X26228571Y3185715D01*
X26371428Y2557143D02*
X25895238Y2557143D01*
X25895238Y3757143D01*
X26371428Y3757143D01*
X25180952Y671429D02*
X25133333Y614286D01*
X24990476Y557143D01*
X24895238Y557143D01*
X24752380Y614286D01*
X24657142Y728572D01*
X24609523Y842858D01*
X24561904Y1071429D01*
X24561904Y1242858D01*
X24609523Y1471429D01*
X24657142Y1585715D01*
X24752380Y1700000D01*
X24895238Y1757143D01*
X24990476Y1757143D01*
X25133333Y1700000D01*
X25180952Y1642858D01*
X25466666Y1757143D02*
X25800000Y557143D01*
X26133333Y1757143D01*
X61438095Y79792858D02*
X62200000Y79792858D01*
X63200000Y79221429D02*
X62628571Y79221429D01*
X62914285Y79221429D02*
X62914285Y80721429D01*
X62819047Y80507143D01*
X62723809Y80364286D01*
X62628571Y80292858D01*
X63580952Y80578572D02*
X63628571Y80650000D01*
X63723809Y80721429D01*
X63961904Y80721429D01*
X64057142Y80650000D01*
X64104761Y80578572D01*
X64152380Y80435715D01*
X64152380Y80292858D01*
X64104761Y80078572D01*
X63533333Y79221429D01*
X64152380Y79221429D01*
X64438095Y80721429D02*
X64771428Y79221429D01*
X65104761Y80721429D01*
X48038095Y76492858D02*
X48800000Y76492858D01*
X48419047Y75921429D02*
X48419047Y77064286D01*
X49800000Y75921429D02*
X49228571Y75921429D01*
X49514285Y75921429D02*
X49514285Y77421429D01*
X49419047Y77207143D01*
X49323809Y77064286D01*
X49228571Y76992858D01*
X50180952Y77278572D02*
X50228571Y77350000D01*
X50323809Y77421429D01*
X50561904Y77421429D01*
X50657142Y77350000D01*
X50704761Y77278572D01*
X50752380Y77135715D01*
X50752380Y76992858D01*
X50704761Y76778572D01*
X50133333Y75921429D01*
X50752380Y75921429D01*
X51038095Y77421429D02*
X51371428Y75921429D01*
X51704761Y77421429D01*
D10*
X10768000Y89065500D02*
X14832000Y89065500D01*
X9434500Y81318500D02*
X9434500Y87732000D01*
X16165500Y87732000D02*
X16165500Y81318500D01*
X10768000Y89065500D02*
G75*
G03X9434500Y87732000I0J-1333500D01*
G01*
X16165500Y87732000D02*
G75*
G03X14832000Y89065500I-1333500J0D01*
G01*
X9434500Y81318500D02*
X16165500Y81318500D01*
X39453000Y93349000D02*
X39453000Y88269000D01*
X39453000Y88269000D02*
X38056000Y88269000D01*
X29547000Y93349000D02*
X29547000Y88269000D01*
X29547000Y88269000D02*
X30944000Y88269000D01*
X29547000Y96651000D02*
X29547000Y100080000D01*
X29547000Y100080000D02*
X39453000Y100080000D01*
X39453000Y100080000D02*
X39453000Y96651000D01*
X16953000Y65349000D02*
X16953000Y60269000D01*
X16953000Y60269000D02*
X15556000Y60269000D01*
X7047000Y65349000D02*
X7047000Y60269000D01*
X7047000Y60269000D02*
X8444000Y60269000D01*
X7047000Y68651000D02*
X7047000Y72080000D01*
X7047000Y72080000D02*
X16953000Y72080000D01*
X16953000Y72080000D02*
X16953000Y68651000D01*
X61953000Y65349000D02*
X61953000Y60269000D01*
X61953000Y60269000D02*
X60556000Y60269000D01*
X52047000Y65349000D02*
X52047000Y60269000D01*
X52047000Y60269000D02*
X53444000Y60269000D01*
X52047000Y68651000D02*
X52047000Y72080000D01*
X52047000Y72080000D02*
X61953000Y72080000D01*
X61953000Y72080000D02*
X61953000Y68651000D01*
X39453000Y52849000D02*
X39453000Y47769000D01*
X39453000Y47769000D02*
X38056000Y47769000D01*
X29547000Y52849000D02*
X29547000Y47769000D01*
X29547000Y47769000D02*
X30944000Y47769000D01*
X29547000Y56151000D02*
X29547000Y59580000D01*
X29547000Y59580000D02*
X39453000Y59580000D01*
X39453000Y59580000D02*
X39453000Y56151000D01*
X30568000Y86465500D02*
X34632000Y86465500D01*
X29234500Y78718500D02*
X29234500Y85132000D01*
X35965500Y85132000D02*
X35965500Y78718500D01*
X30568000Y86465500D02*
G75*
G03X29234500Y85132000I0J-1333500D01*
G01*
X35965500Y85132000D02*
G75*
G03X34632000Y86465500I-1333500J0D01*
G01*
X29234500Y78718500D02*
X35965500Y78718500D01*
X6603639Y26392454D02*
G75*
G03X6600000Y31600000I5396361J2607546D01*
G01*
X6600000Y26400000D02*
X6600000Y31600000D01*
X21603639Y26392454D02*
G75*
G03X21600000Y31600000I5396361J2607546D01*
G01*
X21600000Y26400000D02*
X21600000Y31600000D01*
X36603639Y26392454D02*
G75*
G03X36600000Y31600000I5396361J2607546D01*
G01*
X36600000Y26400000D02*
X36600000Y31600000D01*
X51603639Y26392454D02*
G75*
G03X51600000Y31600000I5396361J2607546D01*
G01*
X51600000Y26400000D02*
X51600000Y31600000D01*
X54396500Y81872500D02*
X59603500Y81872500D01*
X59603500Y81872500D02*
X59603500Y90127500D01*
X59603500Y90127500D02*
X54396500Y90127500D01*
X54396500Y90127500D02*
X54396500Y81872500D01*
D11*
X5500000Y31800000D02*
G75*
G03X5500000Y31800000I-1000000J0D01*
G01*
X4300000Y30000000D02*
G75*
G03X4300000Y30000000I-1000000J0D01*
G01*
X25500000Y49700000D02*
G75*
G03X25500000Y49700000I-1000000J0D01*
G01*
X5000000Y56900000D02*
G75*
G03X5000000Y56900000I-1000000J0D01*
G01*
X24700000Y87900000D02*
G75*
G03X24700000Y87900000I-1000000J0D01*
G01*
X59000000Y55600000D02*
G75*
G03X59000000Y55600000I-1000000J0D01*
G01*
X63600000Y51100000D02*
G75*
G03X63600000Y51100000I-1000000J0D01*
G01*
X63700000Y42700000D02*
G75*
G03X63700000Y42700000I-1000000J0D01*
G01*
X36000000Y45000000D02*
G75*
G03X36000000Y45000000I-1000000J0D01*
G01*
X36000000Y42700000D02*
G75*
G03X36000000Y42700000I-1000000J0D01*
G01*
X5600000Y45000000D02*
G75*
G03X5600000Y45000000I-1000000J0D01*
G01*
X3000000Y45000000D02*
G75*
G03X3000000Y45000000I-1000000J0D01*
G01*
D10*
X28494900Y41018124D02*
G75*
G03X25320000Y40670000I-1494900J-1018124D01*
G01*
X25332173Y39315636D02*
G75*
G03X28500000Y39000000I1667827J684364D01*
G01*
X28500000Y41000000D02*
X28500000Y40650000D01*
X28500000Y39000000D02*
X28500000Y39350000D01*
X13494900Y41018124D02*
G75*
G03X10320000Y40670000I-1494900J-1018124D01*
G01*
X10332173Y39315636D02*
G75*
G03X13500000Y39000000I1667827J684364D01*
G01*
X13500000Y41000000D02*
X13500000Y40650000D01*
X13500000Y39000000D02*
X13500000Y39350000D01*
X58494900Y41018124D02*
G75*
G03X55320000Y40670000I-1494900J-1018124D01*
G01*
X55332173Y39315636D02*
G75*
G03X58500000Y39000000I1667827J684364D01*
G01*
X58500000Y41000000D02*
X58500000Y40650000D01*
X58500000Y39000000D02*
X58500000Y39350000D01*
X43494900Y41018124D02*
G75*
G03X40320000Y40670000I-1494900J-1018124D01*
G01*
X40332173Y39315636D02*
G75*
G03X43500000Y39000000I1667827J684364D01*
G01*
X43500000Y41000000D02*
X43500000Y40650000D01*
X43500000Y39000000D02*
X43500000Y39350000D01*
X6111000Y4301000D02*
X2301000Y4301000D01*
X2301000Y4301000D02*
X2301000Y15223000D01*
X2301000Y15223000D02*
X11699000Y15223000D01*
X11699000Y15223000D02*
X11699000Y4301000D01*
X11699000Y4301000D02*
X7889000Y4301000D01*
X17111000Y4301000D02*
X13301000Y4301000D01*
X13301000Y4301000D02*
X13301000Y15223000D01*
X13301000Y15223000D02*
X22699000Y15223000D01*
X22699000Y15223000D02*
X22699000Y4301000D01*
X22699000Y4301000D02*
X18889000Y4301000D01*
X28111000Y4301000D02*
X24301000Y4301000D01*
X24301000Y4301000D02*
X24301000Y15223000D01*
X24301000Y15223000D02*
X33699000Y15223000D01*
X33699000Y15223000D02*
X33699000Y4301000D01*
X33699000Y4301000D02*
X29889000Y4301000D01*
X39111000Y4301000D02*
X35301000Y4301000D01*
X35301000Y4301000D02*
X35301000Y15223000D01*
X35301000Y15223000D02*
X44699000Y15223000D01*
X44699000Y15223000D02*
X44699000Y4301000D01*
X44699000Y4301000D02*
X40889000Y4301000D01*
X50111000Y4301000D02*
X46301000Y4301000D01*
X46301000Y4301000D02*
X46301000Y15223000D01*
X46301000Y15223000D02*
X55699000Y15223000D01*
X55699000Y15223000D02*
X55699000Y4301000D01*
X55699000Y4301000D02*
X51889000Y4301000D01*
X61111000Y4301000D02*
X57301000Y4301000D01*
X57301000Y4301000D02*
X57301000Y15223000D01*
X57301000Y15223000D02*
X66699000Y15223000D01*
X66699000Y15223000D02*
X66699000Y4301000D01*
X66699000Y4301000D02*
X62889000Y4301000D01*
X13516666Y89483334D02*
X13283333Y89816667D01*
X13116666Y89483334D02*
X13116666Y90183334D01*
X13383333Y90183334D01*
X13450000Y90150000D01*
X13483333Y90116667D01*
X13516666Y90050000D01*
X13516666Y89950000D01*
X13483333Y89883334D01*
X13450000Y89850000D01*
X13383333Y89816667D01*
X13116666Y89816667D01*
X14183333Y89483334D02*
X13783333Y89483334D01*
X13983333Y89483334D02*
X13983333Y90183334D01*
X13916666Y90083334D01*
X13850000Y90016667D01*
X13783333Y89983334D01*
X14616666Y90183334D02*
X14683333Y90183334D01*
X14750000Y90150000D01*
X14783333Y90116667D01*
X14816666Y90050000D01*
X14850000Y89916667D01*
X14850000Y89750000D01*
X14816666Y89616667D01*
X14783333Y89550000D01*
X14750000Y89516667D01*
X14683333Y89483334D01*
X14616666Y89483334D01*
X14550000Y89516667D01*
X14516666Y89550000D01*
X14483333Y89616667D01*
X14450000Y89750000D01*
X14450000Y89916667D01*
X14483333Y90050000D01*
X14516666Y90116667D01*
X14550000Y90150000D01*
X14616666Y90183334D01*
X15083333Y90183334D02*
X15550000Y90183334D01*
X15250000Y89483334D01*
X41366666Y95250000D02*
X41466666Y95216667D01*
X41500000Y95183334D01*
X41533333Y95116667D01*
X41533333Y95016667D01*
X41500000Y94950000D01*
X41466666Y94916667D01*
X41400000Y94883334D01*
X41133333Y94883334D01*
X41133333Y95583334D01*
X41366666Y95583334D01*
X41433333Y95550000D01*
X41466666Y95516667D01*
X41500000Y95450000D01*
X41500000Y95383334D01*
X41466666Y95316667D01*
X41433333Y95283334D01*
X41366666Y95250000D01*
X41133333Y95250000D01*
X42200000Y94883334D02*
X41800000Y94883334D01*
X42000000Y94883334D02*
X42000000Y95583334D01*
X41933333Y95483334D01*
X41866666Y95416667D01*
X41800000Y95383334D01*
X42633333Y95583334D02*
X42700000Y95583334D01*
X42766666Y95550000D01*
X42800000Y95516667D01*
X42833333Y95450000D01*
X42866666Y95316667D01*
X42866666Y95150000D01*
X42833333Y95016667D01*
X42800000Y94950000D01*
X42766666Y94916667D01*
X42700000Y94883334D01*
X42633333Y94883334D01*
X42566666Y94916667D01*
X42533333Y94950000D01*
X42500000Y95016667D01*
X42466666Y95150000D01*
X42466666Y95316667D01*
X42500000Y95450000D01*
X42533333Y95516667D01*
X42566666Y95550000D01*
X42633333Y95583334D01*
X43300000Y95583334D02*
X43366666Y95583334D01*
X43433333Y95550000D01*
X43466666Y95516667D01*
X43500000Y95450000D01*
X43533333Y95316667D01*
X43533333Y95150000D01*
X43500000Y95016667D01*
X43466666Y94950000D01*
X43433333Y94916667D01*
X43366666Y94883334D01*
X43300000Y94883334D01*
X43233333Y94916667D01*
X43200000Y94950000D01*
X43166666Y95016667D01*
X43133333Y95150000D01*
X43133333Y95316667D01*
X43166666Y95450000D01*
X43200000Y95516667D01*
X43233333Y95550000D01*
X43300000Y95583334D01*
X43833333Y94883334D02*
X43833333Y95583334D01*
X43900000Y95150000D02*
X44100000Y94883334D01*
X44100000Y95350000D02*
X43833333Y95083334D01*
X41983333Y95983334D02*
X41750000Y96316667D01*
X41583333Y95983334D02*
X41583333Y96683334D01*
X41850000Y96683334D01*
X41916666Y96650000D01*
X41950000Y96616667D01*
X41983333Y96550000D01*
X41983333Y96450000D01*
X41950000Y96383334D01*
X41916666Y96350000D01*
X41850000Y96316667D01*
X41583333Y96316667D01*
X42650000Y95983334D02*
X42250000Y95983334D01*
X42450000Y95983334D02*
X42450000Y96683334D01*
X42383333Y96583334D01*
X42316666Y96516667D01*
X42250000Y96483334D01*
X2550000Y67883334D02*
X2883333Y67883334D01*
X2483333Y67683334D02*
X2716666Y68383334D01*
X2950000Y67683334D01*
X3550000Y67683334D02*
X3150000Y67683334D01*
X3350000Y67683334D02*
X3350000Y68383334D01*
X3283333Y68283334D01*
X3216666Y68216667D01*
X3150000Y68183334D01*
X3983333Y68383334D02*
X4050000Y68383334D01*
X4116666Y68350000D01*
X4150000Y68316667D01*
X4183333Y68250000D01*
X4216666Y68116667D01*
X4216666Y67950000D01*
X4183333Y67816667D01*
X4150000Y67750000D01*
X4116666Y67716667D01*
X4050000Y67683334D01*
X3983333Y67683334D01*
X3916666Y67716667D01*
X3883333Y67750000D01*
X3850000Y67816667D01*
X3816666Y67950000D01*
X3816666Y68116667D01*
X3850000Y68250000D01*
X3883333Y68316667D01*
X3916666Y68350000D01*
X3983333Y68383334D01*
X4650000Y68383334D02*
X4716666Y68383334D01*
X4783333Y68350000D01*
X4816666Y68316667D01*
X4850000Y68250000D01*
X4883333Y68116667D01*
X4883333Y67950000D01*
X4850000Y67816667D01*
X4816666Y67750000D01*
X4783333Y67716667D01*
X4716666Y67683334D01*
X4650000Y67683334D01*
X4583333Y67716667D01*
X4550000Y67750000D01*
X4516666Y67816667D01*
X4483333Y67950000D01*
X4483333Y68116667D01*
X4516666Y68250000D01*
X4550000Y68316667D01*
X4583333Y68350000D01*
X4650000Y68383334D01*
X5183333Y67683334D02*
X5183333Y68383334D01*
X5250000Y67950000D02*
X5450000Y67683334D01*
X5450000Y68150000D02*
X5183333Y67883334D01*
X4283333Y68683334D02*
X4050000Y69016667D01*
X3883333Y68683334D02*
X3883333Y69383334D01*
X4150000Y69383334D01*
X4216666Y69350000D01*
X4250000Y69316667D01*
X4283333Y69250000D01*
X4283333Y69150000D01*
X4250000Y69083334D01*
X4216666Y69050000D01*
X4150000Y69016667D01*
X3883333Y69016667D01*
X4550000Y69316667D02*
X4583333Y69350000D01*
X4650000Y69383334D01*
X4816666Y69383334D01*
X4883333Y69350000D01*
X4916666Y69316667D01*
X4950000Y69250000D01*
X4950000Y69183334D01*
X4916666Y69083334D01*
X4516666Y68683334D01*
X4950000Y68683334D01*
X62466666Y70950000D02*
X62566666Y70916667D01*
X62600000Y70883334D01*
X62633333Y70816667D01*
X62633333Y70716667D01*
X62600000Y70650000D01*
X62566666Y70616667D01*
X62500000Y70583334D01*
X62233333Y70583334D01*
X62233333Y71283334D01*
X62466666Y71283334D01*
X62533333Y71250000D01*
X62566666Y71216667D01*
X62600000Y71150000D01*
X62600000Y71083334D01*
X62566666Y71016667D01*
X62533333Y70983334D01*
X62466666Y70950000D01*
X62233333Y70950000D01*
X63300000Y70583334D02*
X62900000Y70583334D01*
X63100000Y70583334D02*
X63100000Y71283334D01*
X63033333Y71183334D01*
X62966666Y71116667D01*
X62900000Y71083334D01*
X63733333Y71283334D02*
X63800000Y71283334D01*
X63866666Y71250000D01*
X63900000Y71216667D01*
X63933333Y71150000D01*
X63966666Y71016667D01*
X63966666Y70850000D01*
X63933333Y70716667D01*
X63900000Y70650000D01*
X63866666Y70616667D01*
X63800000Y70583334D01*
X63733333Y70583334D01*
X63666666Y70616667D01*
X63633333Y70650000D01*
X63600000Y70716667D01*
X63566666Y70850000D01*
X63566666Y71016667D01*
X63600000Y71150000D01*
X63633333Y71216667D01*
X63666666Y71250000D01*
X63733333Y71283334D01*
X64400000Y71283334D02*
X64466666Y71283334D01*
X64533333Y71250000D01*
X64566666Y71216667D01*
X64600000Y71150000D01*
X64633333Y71016667D01*
X64633333Y70850000D01*
X64600000Y70716667D01*
X64566666Y70650000D01*
X64533333Y70616667D01*
X64466666Y70583334D01*
X64400000Y70583334D01*
X64333333Y70616667D01*
X64300000Y70650000D01*
X64266666Y70716667D01*
X64233333Y70850000D01*
X64233333Y71016667D01*
X64266666Y71150000D01*
X64300000Y71216667D01*
X64333333Y71250000D01*
X64400000Y71283334D01*
X64933333Y70583334D02*
X64933333Y71283334D01*
X65000000Y70850000D02*
X65200000Y70583334D01*
X65200000Y71050000D02*
X64933333Y70783334D01*
X62683333Y71683334D02*
X62450000Y72016667D01*
X62283333Y71683334D02*
X62283333Y72383334D01*
X62550000Y72383334D01*
X62616666Y72350000D01*
X62650000Y72316667D01*
X62683333Y72250000D01*
X62683333Y72150000D01*
X62650000Y72083334D01*
X62616666Y72050000D01*
X62550000Y72016667D01*
X62283333Y72016667D01*
X62916666Y72383334D02*
X63350000Y72383334D01*
X63116666Y72116667D01*
X63216666Y72116667D01*
X63283333Y72083334D01*
X63316666Y72050000D01*
X63350000Y71983334D01*
X63350000Y71816667D01*
X63316666Y71750000D01*
X63283333Y71716667D01*
X63216666Y71683334D01*
X63016666Y71683334D01*
X62950000Y71716667D01*
X62916666Y71750000D01*
X40466666Y58050000D02*
X40566666Y58016667D01*
X40600000Y57983334D01*
X40633333Y57916667D01*
X40633333Y57816667D01*
X40600000Y57750000D01*
X40566666Y57716667D01*
X40500000Y57683334D01*
X40233333Y57683334D01*
X40233333Y58383334D01*
X40466666Y58383334D01*
X40533333Y58350000D01*
X40566666Y58316667D01*
X40600000Y58250000D01*
X40600000Y58183334D01*
X40566666Y58116667D01*
X40533333Y58083334D01*
X40466666Y58050000D01*
X40233333Y58050000D01*
X41300000Y57683334D02*
X40900000Y57683334D01*
X41100000Y57683334D02*
X41100000Y58383334D01*
X41033333Y58283334D01*
X40966666Y58216667D01*
X40900000Y58183334D01*
X41733333Y58383334D02*
X41800000Y58383334D01*
X41866666Y58350000D01*
X41900000Y58316667D01*
X41933333Y58250000D01*
X41966666Y58116667D01*
X41966666Y57950000D01*
X41933333Y57816667D01*
X41900000Y57750000D01*
X41866666Y57716667D01*
X41800000Y57683334D01*
X41733333Y57683334D01*
X41666666Y57716667D01*
X41633333Y57750000D01*
X41600000Y57816667D01*
X41566666Y57950000D01*
X41566666Y58116667D01*
X41600000Y58250000D01*
X41633333Y58316667D01*
X41666666Y58350000D01*
X41733333Y58383334D01*
X42400000Y58383334D02*
X42466666Y58383334D01*
X42533333Y58350000D01*
X42566666Y58316667D01*
X42600000Y58250000D01*
X42633333Y58116667D01*
X42633333Y57950000D01*
X42600000Y57816667D01*
X42566666Y57750000D01*
X42533333Y57716667D01*
X42466666Y57683334D01*
X42400000Y57683334D01*
X42333333Y57716667D01*
X42300000Y57750000D01*
X42266666Y57816667D01*
X42233333Y57950000D01*
X42233333Y58116667D01*
X42266666Y58250000D01*
X42300000Y58316667D01*
X42333333Y58350000D01*
X42400000Y58383334D01*
X42933333Y57683334D02*
X42933333Y58383334D01*
X43000000Y57950000D02*
X43200000Y57683334D01*
X43200000Y58150000D02*
X42933333Y57883334D01*
X40883333Y58583334D02*
X40650000Y58916667D01*
X40483333Y58583334D02*
X40483333Y59283334D01*
X40750000Y59283334D01*
X40816666Y59250000D01*
X40850000Y59216667D01*
X40883333Y59150000D01*
X40883333Y59050000D01*
X40850000Y58983334D01*
X40816666Y58950000D01*
X40750000Y58916667D01*
X40483333Y58916667D01*
X41483333Y59050000D02*
X41483333Y58583334D01*
X41316666Y59316667D02*
X41150000Y58816667D01*
X41583333Y58816667D01*
X28716666Y86783334D02*
X28483333Y87116667D01*
X28316666Y86783334D02*
X28316666Y87483334D01*
X28583333Y87483334D01*
X28650000Y87450000D01*
X28683333Y87416667D01*
X28716666Y87350000D01*
X28716666Y87250000D01*
X28683333Y87183334D01*
X28650000Y87150000D01*
X28583333Y87116667D01*
X28316666Y87116667D01*
X29383333Y86783334D02*
X28983333Y86783334D01*
X29183333Y86783334D02*
X29183333Y87483334D01*
X29116666Y87383334D01*
X29050000Y87316667D01*
X28983333Y87283334D01*
X29816666Y87483334D02*
X29883333Y87483334D01*
X29950000Y87450000D01*
X29983333Y87416667D01*
X30016666Y87350000D01*
X30050000Y87216667D01*
X30050000Y87050000D01*
X30016666Y86916667D01*
X29983333Y86850000D01*
X29950000Y86816667D01*
X29883333Y86783334D01*
X29816666Y86783334D01*
X29750000Y86816667D01*
X29716666Y86850000D01*
X29683333Y86916667D01*
X29650000Y87050000D01*
X29650000Y87216667D01*
X29683333Y87350000D01*
X29716666Y87416667D01*
X29750000Y87450000D01*
X29816666Y87483334D01*
X30450000Y87183334D02*
X30383333Y87216667D01*
X30350000Y87250000D01*
X30316666Y87316667D01*
X30316666Y87350000D01*
X30350000Y87416667D01*
X30383333Y87450000D01*
X30450000Y87483334D01*
X30583333Y87483334D01*
X30650000Y87450000D01*
X30683333Y87416667D01*
X30716666Y87350000D01*
X30716666Y87316667D01*
X30683333Y87250000D01*
X30650000Y87216667D01*
X30583333Y87183334D01*
X30450000Y87183334D01*
X30383333Y87150000D01*
X30350000Y87116667D01*
X30316666Y87050000D01*
X30316666Y86916667D01*
X30350000Y86850000D01*
X30383333Y86816667D01*
X30450000Y86783334D01*
X30583333Y86783334D01*
X30650000Y86816667D01*
X30683333Y86850000D01*
X30716666Y86916667D01*
X30716666Y87050000D01*
X30683333Y87116667D01*
X30650000Y87150000D01*
X30583333Y87183334D01*
X11066666Y35416667D02*
X11166666Y35383334D01*
X11333333Y35383334D01*
X11400000Y35416667D01*
X11433333Y35450000D01*
X11466666Y35516667D01*
X11466666Y35583334D01*
X11433333Y35650000D01*
X11400000Y35683334D01*
X11333333Y35716667D01*
X11200000Y35750000D01*
X11133333Y35783334D01*
X11100000Y35816667D01*
X11066666Y35883334D01*
X11066666Y35950000D01*
X11100000Y36016667D01*
X11133333Y36050000D01*
X11200000Y36083334D01*
X11366666Y36083334D01*
X11466666Y36050000D01*
X11700000Y36083334D02*
X11866666Y35383334D01*
X12000000Y35883334D01*
X12133333Y35383334D01*
X12300000Y36083334D01*
X12933333Y35383334D02*
X12533333Y35383334D01*
X12733333Y35383334D02*
X12733333Y36083334D01*
X12666666Y35983334D01*
X12600000Y35916667D01*
X12533333Y35883334D01*
X29366666Y22516667D02*
X29466666Y22483334D01*
X29633333Y22483334D01*
X29700000Y22516667D01*
X29733333Y22550000D01*
X29766666Y22616667D01*
X29766666Y22683334D01*
X29733333Y22750000D01*
X29700000Y22783334D01*
X29633333Y22816667D01*
X29500000Y22850000D01*
X29433333Y22883334D01*
X29400000Y22916667D01*
X29366666Y22983334D01*
X29366666Y23050000D01*
X29400000Y23116667D01*
X29433333Y23150000D01*
X29500000Y23183334D01*
X29666666Y23183334D01*
X29766666Y23150000D01*
X30000000Y23183334D02*
X30166666Y22483334D01*
X30300000Y22983334D01*
X30433333Y22483334D01*
X30600000Y23183334D01*
X30833333Y23116667D02*
X30866666Y23150000D01*
X30933333Y23183334D01*
X31100000Y23183334D01*
X31166666Y23150000D01*
X31200000Y23116667D01*
X31233333Y23050000D01*
X31233333Y22983334D01*
X31200000Y22883334D01*
X30800000Y22483334D01*
X31233333Y22483334D01*
X39066666Y22116667D02*
X39166666Y22083334D01*
X39333333Y22083334D01*
X39400000Y22116667D01*
X39433333Y22150000D01*
X39466666Y22216667D01*
X39466666Y22283334D01*
X39433333Y22350000D01*
X39400000Y22383334D01*
X39333333Y22416667D01*
X39200000Y22450000D01*
X39133333Y22483334D01*
X39100000Y22516667D01*
X39066666Y22583334D01*
X39066666Y22650000D01*
X39100000Y22716667D01*
X39133333Y22750000D01*
X39200000Y22783334D01*
X39366666Y22783334D01*
X39466666Y22750000D01*
X39700000Y22783334D02*
X39866666Y22083334D01*
X40000000Y22583334D01*
X40133333Y22083334D01*
X40300000Y22783334D01*
X40500000Y22783334D02*
X40933333Y22783334D01*
X40700000Y22516667D01*
X40800000Y22516667D01*
X40866666Y22483334D01*
X40900000Y22450000D01*
X40933333Y22383334D01*
X40933333Y22216667D01*
X40900000Y22150000D01*
X40866666Y22116667D01*
X40800000Y22083334D01*
X40600000Y22083334D01*
X40533333Y22116667D01*
X40500000Y22150000D01*
X56066666Y21916667D02*
X56166666Y21883334D01*
X56333333Y21883334D01*
X56400000Y21916667D01*
X56433333Y21950000D01*
X56466666Y22016667D01*
X56466666Y22083334D01*
X56433333Y22150000D01*
X56400000Y22183334D01*
X56333333Y22216667D01*
X56200000Y22250000D01*
X56133333Y22283334D01*
X56100000Y22316667D01*
X56066666Y22383334D01*
X56066666Y22450000D01*
X56100000Y22516667D01*
X56133333Y22550000D01*
X56200000Y22583334D01*
X56366666Y22583334D01*
X56466666Y22550000D01*
X56700000Y22583334D02*
X56866666Y21883334D01*
X57000000Y22383334D01*
X57133333Y21883334D01*
X57300000Y22583334D01*
X57866666Y22350000D02*
X57866666Y21883334D01*
X57700000Y22616667D02*
X57533333Y22116667D01*
X57966666Y22116667D01*
X56066666Y90416667D02*
X56166666Y90383334D01*
X56333333Y90383334D01*
X56400000Y90416667D01*
X56433333Y90450000D01*
X56466666Y90516667D01*
X56466666Y90583334D01*
X56433333Y90650000D01*
X56400000Y90683334D01*
X56333333Y90716667D01*
X56200000Y90750000D01*
X56133333Y90783334D01*
X56100000Y90816667D01*
X56066666Y90883334D01*
X56066666Y90950000D01*
X56100000Y91016667D01*
X56133333Y91050000D01*
X56200000Y91083334D01*
X56366666Y91083334D01*
X56466666Y91050000D01*
X56700000Y91083334D02*
X56866666Y90383334D01*
X57000000Y90883334D01*
X57133333Y90383334D01*
X57300000Y91083334D01*
X57900000Y91083334D02*
X57566666Y91083334D01*
X57533333Y90750000D01*
X57566666Y90783334D01*
X57633333Y90816667D01*
X57800000Y90816667D01*
X57866666Y90783334D01*
X57900000Y90750000D01*
X57933333Y90683334D01*
X57933333Y90516667D01*
X57900000Y90450000D01*
X57866666Y90416667D01*
X57800000Y90383334D01*
X57633333Y90383334D01*
X57566666Y90416667D01*
X57533333Y90450000D01*
X3616666Y33733334D02*
X4016666Y33733334D01*
X3816666Y33033334D02*
X3816666Y33733334D01*
X4250000Y33033334D02*
X4250000Y33733334D01*
X4516666Y33733334D01*
X4583333Y33700000D01*
X4616666Y33666667D01*
X4650000Y33600000D01*
X4650000Y33500000D01*
X4616666Y33433334D01*
X4583333Y33400000D01*
X4516666Y33366667D01*
X4250000Y33366667D01*
X5316666Y33033334D02*
X4916666Y33033334D01*
X5116666Y33033334D02*
X5116666Y33733334D01*
X5050000Y33633334D01*
X4983333Y33566667D01*
X4916666Y33533334D01*
X2416666Y28683334D02*
X2816666Y28683334D01*
X2616666Y27983334D02*
X2616666Y28683334D01*
X3050000Y27983334D02*
X3050000Y28683334D01*
X3316666Y28683334D01*
X3383333Y28650000D01*
X3416666Y28616667D01*
X3450000Y28550000D01*
X3450000Y28450000D01*
X3416666Y28383334D01*
X3383333Y28350000D01*
X3316666Y28316667D01*
X3050000Y28316667D01*
X3716666Y28616667D02*
X3750000Y28650000D01*
X3816666Y28683334D01*
X3983333Y28683334D01*
X4050000Y28650000D01*
X4083333Y28616667D01*
X4116666Y28550000D01*
X4116666Y28483334D01*
X4083333Y28383334D01*
X3683333Y27983334D01*
X4116666Y27983334D01*
X25716666Y50083334D02*
X26116666Y50083334D01*
X25916666Y49383334D02*
X25916666Y50083334D01*
X26350000Y49383334D02*
X26350000Y50083334D01*
X26616666Y50083334D01*
X26683333Y50050000D01*
X26716666Y50016667D01*
X26750000Y49950000D01*
X26750000Y49850000D01*
X26716666Y49783334D01*
X26683333Y49750000D01*
X26616666Y49716667D01*
X26350000Y49716667D01*
X26983333Y50083334D02*
X27416666Y50083334D01*
X27183333Y49816667D01*
X27283333Y49816667D01*
X27350000Y49783334D01*
X27383333Y49750000D01*
X27416666Y49683334D01*
X27416666Y49516667D01*
X27383333Y49450000D01*
X27350000Y49416667D01*
X27283333Y49383334D01*
X27083333Y49383334D01*
X27016666Y49416667D01*
X26983333Y49450000D01*
X1016666Y57083334D02*
X1416666Y57083334D01*
X1216666Y56383334D02*
X1216666Y57083334D01*
X1650000Y56383334D02*
X1650000Y57083334D01*
X1916666Y57083334D01*
X1983333Y57050000D01*
X2016666Y57016667D01*
X2050000Y56950000D01*
X2050000Y56850000D01*
X2016666Y56783334D01*
X1983333Y56750000D01*
X1916666Y56716667D01*
X1650000Y56716667D01*
X2650000Y56850000D02*
X2650000Y56383334D01*
X2483333Y57116667D02*
X2316666Y56616667D01*
X2750000Y56616667D01*
X24616666Y89483334D02*
X25016666Y89483334D01*
X24816666Y88783334D02*
X24816666Y89483334D01*
X25250000Y88783334D02*
X25250000Y89483334D01*
X25516666Y89483334D01*
X25583333Y89450000D01*
X25616666Y89416667D01*
X25650000Y89350000D01*
X25650000Y89250000D01*
X25616666Y89183334D01*
X25583333Y89150000D01*
X25516666Y89116667D01*
X25250000Y89116667D01*
X26283333Y89483334D02*
X25950000Y89483334D01*
X25916666Y89150000D01*
X25950000Y89183334D01*
X26016666Y89216667D01*
X26183333Y89216667D01*
X26250000Y89183334D01*
X26283333Y89150000D01*
X26316666Y89083334D01*
X26316666Y88916667D01*
X26283333Y88850000D01*
X26250000Y88816667D01*
X26183333Y88783334D01*
X26016666Y88783334D01*
X25950000Y88816667D01*
X25916666Y88850000D01*
X59116666Y55783334D02*
X59516666Y55783334D01*
X59316666Y55083334D02*
X59316666Y55783334D01*
X59750000Y55083334D02*
X59750000Y55783334D01*
X60016666Y55783334D01*
X60083333Y55750000D01*
X60116666Y55716667D01*
X60150000Y55650000D01*
X60150000Y55550000D01*
X60116666Y55483334D01*
X60083333Y55450000D01*
X60016666Y55416667D01*
X59750000Y55416667D01*
X60550000Y55483334D02*
X60483333Y55516667D01*
X60450000Y55550000D01*
X60416666Y55616667D01*
X60416666Y55650000D01*
X60450000Y55716667D01*
X60483333Y55750000D01*
X60550000Y55783334D01*
X60683333Y55783334D01*
X60750000Y55750000D01*
X60783333Y55716667D01*
X60816666Y55650000D01*
X60816666Y55616667D01*
X60783333Y55550000D01*
X60750000Y55516667D01*
X60683333Y55483334D01*
X60550000Y55483334D01*
X60483333Y55450000D01*
X60450000Y55416667D01*
X60416666Y55350000D01*
X60416666Y55216667D01*
X60450000Y55150000D01*
X60483333Y55116667D01*
X60550000Y55083334D01*
X60683333Y55083334D01*
X60750000Y55116667D01*
X60783333Y55150000D01*
X60816666Y55216667D01*
X60816666Y55350000D01*
X60783333Y55416667D01*
X60750000Y55450000D01*
X60683333Y55483334D01*
X63483333Y52483334D02*
X63883333Y52483334D01*
X63683333Y51783334D02*
X63683333Y52483334D01*
X64116666Y51783334D02*
X64116666Y52483334D01*
X64383333Y52483334D01*
X64450000Y52450000D01*
X64483333Y52416667D01*
X64516666Y52350000D01*
X64516666Y52250000D01*
X64483333Y52183334D01*
X64450000Y52150000D01*
X64383333Y52116667D01*
X64116666Y52116667D01*
X65183333Y51783334D02*
X64783333Y51783334D01*
X64983333Y51783334D02*
X64983333Y52483334D01*
X64916666Y52383334D01*
X64850000Y52316667D01*
X64783333Y52283334D01*
X65616666Y52483334D02*
X65683333Y52483334D01*
X65750000Y52450000D01*
X65783333Y52416667D01*
X65816666Y52350000D01*
X65850000Y52216667D01*
X65850000Y52050000D01*
X65816666Y51916667D01*
X65783333Y51850000D01*
X65750000Y51816667D01*
X65683333Y51783334D01*
X65616666Y51783334D01*
X65550000Y51816667D01*
X65516666Y51850000D01*
X65483333Y51916667D01*
X65450000Y52050000D01*
X65450000Y52216667D01*
X65483333Y52350000D01*
X65516666Y52416667D01*
X65550000Y52450000D01*
X65616666Y52483334D01*
X64483333Y45583334D02*
X64883333Y45583334D01*
X64683333Y44883334D02*
X64683333Y45583334D01*
X65116666Y44883334D02*
X65116666Y45583334D01*
X65383333Y45583334D01*
X65450000Y45550000D01*
X65483333Y45516667D01*
X65516666Y45450000D01*
X65516666Y45350000D01*
X65483333Y45283334D01*
X65450000Y45250000D01*
X65383333Y45216667D01*
X65116666Y45216667D01*
X66183333Y44883334D02*
X65783333Y44883334D01*
X65983333Y44883334D02*
X65983333Y45583334D01*
X65916666Y45483334D01*
X65850000Y45416667D01*
X65783333Y45383334D01*
X66850000Y44883334D02*
X66450000Y44883334D01*
X66650000Y44883334D02*
X66650000Y45583334D01*
X66583333Y45483334D01*
X66516666Y45416667D01*
X66450000Y45383334D01*
X36183333Y45283334D02*
X36583333Y45283334D01*
X36383333Y44583334D02*
X36383333Y45283334D01*
X36816666Y44583334D02*
X36816666Y45283334D01*
X37083333Y45283334D01*
X37150000Y45250000D01*
X37183333Y45216667D01*
X37216666Y45150000D01*
X37216666Y45050000D01*
X37183333Y44983334D01*
X37150000Y44950000D01*
X37083333Y44916667D01*
X36816666Y44916667D01*
X37883333Y44583334D02*
X37483333Y44583334D01*
X37683333Y44583334D02*
X37683333Y45283334D01*
X37616666Y45183334D01*
X37550000Y45116667D01*
X37483333Y45083334D01*
X38283333Y44983334D02*
X38216666Y45016667D01*
X38183333Y45050000D01*
X38150000Y45116667D01*
X38150000Y45150000D01*
X38183333Y45216667D01*
X38216666Y45250000D01*
X38283333Y45283334D01*
X38416666Y45283334D01*
X38483333Y45250000D01*
X38516666Y45216667D01*
X38550000Y45150000D01*
X38550000Y45116667D01*
X38516666Y45050000D01*
X38483333Y45016667D01*
X38416666Y44983334D01*
X38283333Y44983334D01*
X38216666Y44950000D01*
X38183333Y44916667D01*
X38150000Y44850000D01*
X38150000Y44716667D01*
X38183333Y44650000D01*
X38216666Y44616667D01*
X38283333Y44583334D01*
X38416666Y44583334D01*
X38483333Y44616667D01*
X38516666Y44650000D01*
X38550000Y44716667D01*
X38550000Y44850000D01*
X38516666Y44916667D01*
X38483333Y44950000D01*
X38416666Y44983334D01*
X34483333Y41283334D02*
X34883333Y41283334D01*
X34683333Y40583334D02*
X34683333Y41283334D01*
X35116666Y40583334D02*
X35116666Y41283334D01*
X35383333Y41283334D01*
X35450000Y41250000D01*
X35483333Y41216667D01*
X35516666Y41150000D01*
X35516666Y41050000D01*
X35483333Y40983334D01*
X35450000Y40950000D01*
X35383333Y40916667D01*
X35116666Y40916667D01*
X36183333Y40583334D02*
X35783333Y40583334D01*
X35983333Y40583334D02*
X35983333Y41283334D01*
X35916666Y41183334D01*
X35850000Y41116667D01*
X35783333Y41083334D01*
X36516666Y40583334D02*
X36650000Y40583334D01*
X36716666Y40616667D01*
X36750000Y40650000D01*
X36816666Y40750000D01*
X36850000Y40883334D01*
X36850000Y41150000D01*
X36816666Y41216667D01*
X36783333Y41250000D01*
X36716666Y41283334D01*
X36583333Y41283334D01*
X36516666Y41250000D01*
X36483333Y41216667D01*
X36450000Y41150000D01*
X36450000Y40983334D01*
X36483333Y40916667D01*
X36516666Y40883334D01*
X36583333Y40850000D01*
X36716666Y40850000D01*
X36783333Y40883334D01*
X36816666Y40916667D01*
X36850000Y40983334D01*
X3383333Y46933334D02*
X3783333Y46933334D01*
X3583333Y46233334D02*
X3583333Y46933334D01*
X4016666Y46233334D02*
X4016666Y46933334D01*
X4283333Y46933334D01*
X4350000Y46900000D01*
X4383333Y46866667D01*
X4416666Y46800000D01*
X4416666Y46700000D01*
X4383333Y46633334D01*
X4350000Y46600000D01*
X4283333Y46566667D01*
X4016666Y46566667D01*
X4683333Y46866667D02*
X4716666Y46900000D01*
X4783333Y46933334D01*
X4950000Y46933334D01*
X5016666Y46900000D01*
X5050000Y46866667D01*
X5083333Y46800000D01*
X5083333Y46733334D01*
X5050000Y46633334D01*
X4650000Y46233334D01*
X5083333Y46233334D01*
X5516666Y46933334D02*
X5583333Y46933334D01*
X5650000Y46900000D01*
X5683333Y46866667D01*
X5716666Y46800000D01*
X5750000Y46666667D01*
X5750000Y46500000D01*
X5716666Y46366667D01*
X5683333Y46300000D01*
X5650000Y46266667D01*
X5583333Y46233334D01*
X5516666Y46233334D01*
X5450000Y46266667D01*
X5416666Y46300000D01*
X5383333Y46366667D01*
X5350000Y46500000D01*
X5350000Y46666667D01*
X5383333Y46800000D01*
X5416666Y46866667D01*
X5450000Y46900000D01*
X5516666Y46933334D01*
X783333Y46933334D02*
X1183333Y46933334D01*
X983333Y46233334D02*
X983333Y46933334D01*
X1416666Y46233334D02*
X1416666Y46933334D01*
X1683333Y46933334D01*
X1750000Y46900000D01*
X1783333Y46866667D01*
X1816666Y46800000D01*
X1816666Y46700000D01*
X1783333Y46633334D01*
X1750000Y46600000D01*
X1683333Y46566667D01*
X1416666Y46566667D01*
X2083333Y46866667D02*
X2116666Y46900000D01*
X2183333Y46933334D01*
X2350000Y46933334D01*
X2416666Y46900000D01*
X2450000Y46866667D01*
X2483333Y46800000D01*
X2483333Y46733334D01*
X2450000Y46633334D01*
X2050000Y46233334D01*
X2483333Y46233334D01*
X3150000Y46233334D02*
X2750000Y46233334D01*
X2950000Y46233334D02*
X2950000Y46933334D01*
X2883333Y46833334D01*
X2816666Y46766667D01*
X2750000Y46733334D01*
X29550000Y40583334D02*
X29783333Y39883334D01*
X30016666Y40583334D01*
X30250000Y39883334D02*
X30250000Y40583334D01*
X30416666Y40583334D01*
X30516666Y40550000D01*
X30583333Y40483334D01*
X30616666Y40416667D01*
X30650000Y40283334D01*
X30650000Y40183334D01*
X30616666Y40050000D01*
X30583333Y39983334D01*
X30516666Y39916667D01*
X30416666Y39883334D01*
X30250000Y39883334D01*
X31316666Y39883334D02*
X30916666Y39883334D01*
X31116666Y39883334D02*
X31116666Y40583334D01*
X31050000Y40483334D01*
X30983333Y40416667D01*
X30916666Y40383334D01*
X31983333Y39883334D02*
X31583333Y39883334D01*
X31783333Y39883334D02*
X31783333Y40583334D01*
X31716666Y40483334D01*
X31650000Y40416667D01*
X31583333Y40383334D01*
X10813500Y38033834D02*
X11046833Y37333834D01*
X11280166Y38033834D01*
X11513500Y37333834D02*
X11513500Y38033834D01*
X11680166Y38033834D01*
X11780166Y38000500D01*
X11846833Y37933834D01*
X11880166Y37867167D01*
X11913500Y37733834D01*
X11913500Y37633834D01*
X11880166Y37500500D01*
X11846833Y37433834D01*
X11780166Y37367167D01*
X11680166Y37333834D01*
X11513500Y37333834D01*
X12580166Y37333834D02*
X12180166Y37333834D01*
X12380166Y37333834D02*
X12380166Y38033834D01*
X12313500Y37933834D01*
X12246833Y37867167D01*
X12180166Y37833834D01*
X12913500Y37333834D02*
X13046833Y37333834D01*
X13113500Y37367167D01*
X13146833Y37400500D01*
X13213500Y37500500D01*
X13246833Y37633834D01*
X13246833Y37900500D01*
X13213500Y37967167D01*
X13180166Y38000500D01*
X13113500Y38033834D01*
X12980166Y38033834D01*
X12913500Y38000500D01*
X12880166Y37967167D01*
X12846833Y37900500D01*
X12846833Y37733834D01*
X12880166Y37667167D01*
X12913500Y37633834D01*
X12980166Y37600500D01*
X13113500Y37600500D01*
X13180166Y37633834D01*
X13213500Y37667167D01*
X13246833Y37733834D01*
X52250000Y39883334D02*
X52483333Y39183334D01*
X52716666Y39883334D01*
X52950000Y39183334D02*
X52950000Y39883334D01*
X53116666Y39883334D01*
X53216666Y39850000D01*
X53283333Y39783334D01*
X53316666Y39716667D01*
X53350000Y39583334D01*
X53350000Y39483334D01*
X53316666Y39350000D01*
X53283333Y39283334D01*
X53216666Y39216667D01*
X53116666Y39183334D01*
X52950000Y39183334D01*
X53616666Y39816667D02*
X53650000Y39850000D01*
X53716666Y39883334D01*
X53883333Y39883334D01*
X53950000Y39850000D01*
X53983333Y39816667D01*
X54016666Y39750000D01*
X54016666Y39683334D01*
X53983333Y39583334D01*
X53583333Y39183334D01*
X54016666Y39183334D01*
X54450000Y39883334D02*
X54516666Y39883334D01*
X54583333Y39850000D01*
X54616666Y39816667D01*
X54650000Y39750000D01*
X54683333Y39616667D01*
X54683333Y39450000D01*
X54650000Y39316667D01*
X54616666Y39250000D01*
X54583333Y39216667D01*
X54516666Y39183334D01*
X54450000Y39183334D01*
X54383333Y39216667D01*
X54350000Y39250000D01*
X54316666Y39316667D01*
X54283333Y39450000D01*
X54283333Y39616667D01*
X54316666Y39750000D01*
X54350000Y39816667D01*
X54383333Y39850000D01*
X54450000Y39883334D01*
X44350000Y39783334D02*
X44583333Y39083334D01*
X44816666Y39783334D01*
X45050000Y39083334D02*
X45050000Y39783334D01*
X45216666Y39783334D01*
X45316666Y39750000D01*
X45383333Y39683334D01*
X45416666Y39616667D01*
X45450000Y39483334D01*
X45450000Y39383334D01*
X45416666Y39250000D01*
X45383333Y39183334D01*
X45316666Y39116667D01*
X45216666Y39083334D01*
X45050000Y39083334D01*
X45716666Y39716667D02*
X45750000Y39750000D01*
X45816666Y39783334D01*
X45983333Y39783334D01*
X46050000Y39750000D01*
X46083333Y39716667D01*
X46116666Y39650000D01*
X46116666Y39583334D01*
X46083333Y39483334D01*
X45683333Y39083334D01*
X46116666Y39083334D01*
X46783333Y39083334D02*
X46383333Y39083334D01*
X46583333Y39083334D02*
X46583333Y39783334D01*
X46516666Y39683334D01*
X46450000Y39616667D01*
X46383333Y39583334D01*
X9402000Y4049334D02*
X9868666Y3349334D01*
X9868666Y4049334D02*
X9402000Y3349334D01*
X10102000Y3382667D02*
X10202000Y3349334D01*
X10368666Y3349334D01*
X10435333Y3382667D01*
X10468666Y3416000D01*
X10502000Y3482667D01*
X10502000Y3549334D01*
X10468666Y3616000D01*
X10435333Y3649334D01*
X10368666Y3682667D01*
X10235333Y3716000D01*
X10168666Y3749334D01*
X10135333Y3782667D01*
X10102000Y3849334D01*
X10102000Y3916000D01*
X10135333Y3982667D01*
X10168666Y4016000D01*
X10235333Y4049334D01*
X10402000Y4049334D01*
X10502000Y4016000D01*
X11168666Y3349334D02*
X10768666Y3349334D01*
X10968666Y3349334D02*
X10968666Y4049334D01*
X10902000Y3949334D01*
X10835333Y3882667D01*
X10768666Y3849334D01*
X20402000Y4049334D02*
X20868666Y3349334D01*
X20868666Y4049334D02*
X20402000Y3349334D01*
X21102000Y3382667D02*
X21202000Y3349334D01*
X21368666Y3349334D01*
X21435333Y3382667D01*
X21468666Y3416000D01*
X21502000Y3482667D01*
X21502000Y3549334D01*
X21468666Y3616000D01*
X21435333Y3649334D01*
X21368666Y3682667D01*
X21235333Y3716000D01*
X21168666Y3749334D01*
X21135333Y3782667D01*
X21102000Y3849334D01*
X21102000Y3916000D01*
X21135333Y3982667D01*
X21168666Y4016000D01*
X21235333Y4049334D01*
X21402000Y4049334D01*
X21502000Y4016000D01*
X21768666Y3982667D02*
X21802000Y4016000D01*
X21868666Y4049334D01*
X22035333Y4049334D01*
X22102000Y4016000D01*
X22135333Y3982667D01*
X22168666Y3916000D01*
X22168666Y3849334D01*
X22135333Y3749334D01*
X21735333Y3349334D01*
X22168666Y3349334D01*
X30100000Y4083334D02*
X30566666Y3383334D01*
X30566666Y4083334D02*
X30100000Y3383334D01*
X30800000Y3416667D02*
X30900000Y3383334D01*
X31066666Y3383334D01*
X31133333Y3416667D01*
X31166666Y3450000D01*
X31200000Y3516667D01*
X31200000Y3583334D01*
X31166666Y3650000D01*
X31133333Y3683334D01*
X31066666Y3716667D01*
X30933333Y3750000D01*
X30866666Y3783334D01*
X30833333Y3816667D01*
X30800000Y3883334D01*
X30800000Y3950000D01*
X30833333Y4016667D01*
X30866666Y4050000D01*
X30933333Y4083334D01*
X31100000Y4083334D01*
X31200000Y4050000D01*
X31433333Y4083334D02*
X31866666Y4083334D01*
X31633333Y3816667D01*
X31733333Y3816667D01*
X31800000Y3783334D01*
X31833333Y3750000D01*
X31866666Y3683334D01*
X31866666Y3516667D01*
X31833333Y3450000D01*
X31800000Y3416667D01*
X31733333Y3383334D01*
X31533333Y3383334D01*
X31466666Y3416667D01*
X31433333Y3450000D01*
X42100000Y3983334D02*
X42566666Y3283334D01*
X42566666Y3983334D02*
X42100000Y3283334D01*
X42800000Y3316667D02*
X42900000Y3283334D01*
X43066666Y3283334D01*
X43133333Y3316667D01*
X43166666Y3350000D01*
X43200000Y3416667D01*
X43200000Y3483334D01*
X43166666Y3550000D01*
X43133333Y3583334D01*
X43066666Y3616667D01*
X42933333Y3650000D01*
X42866666Y3683334D01*
X42833333Y3716667D01*
X42800000Y3783334D01*
X42800000Y3850000D01*
X42833333Y3916667D01*
X42866666Y3950000D01*
X42933333Y3983334D01*
X43100000Y3983334D01*
X43200000Y3950000D01*
X43800000Y3750000D02*
X43800000Y3283334D01*
X43633333Y4016667D02*
X43466666Y3516667D01*
X43900000Y3516667D01*
X53402000Y4049334D02*
X53868666Y3349334D01*
X53868666Y4049334D02*
X53402000Y3349334D01*
X54102000Y3382667D02*
X54202000Y3349334D01*
X54368666Y3349334D01*
X54435333Y3382667D01*
X54468666Y3416000D01*
X54502000Y3482667D01*
X54502000Y3549334D01*
X54468666Y3616000D01*
X54435333Y3649334D01*
X54368666Y3682667D01*
X54235333Y3716000D01*
X54168666Y3749334D01*
X54135333Y3782667D01*
X54102000Y3849334D01*
X54102000Y3916000D01*
X54135333Y3982667D01*
X54168666Y4016000D01*
X54235333Y4049334D01*
X54402000Y4049334D01*
X54502000Y4016000D01*
X55135333Y4049334D02*
X54802000Y4049334D01*
X54768666Y3716000D01*
X54802000Y3749334D01*
X54868666Y3782667D01*
X55035333Y3782667D01*
X55102000Y3749334D01*
X55135333Y3716000D01*
X55168666Y3649334D01*
X55168666Y3482667D01*
X55135333Y3416000D01*
X55102000Y3382667D01*
X55035333Y3349334D01*
X54868666Y3349334D01*
X54802000Y3382667D01*
X54768666Y3416000D01*
X64402000Y4049334D02*
X64868666Y3349334D01*
X64868666Y4049334D02*
X64402000Y3349334D01*
X65102000Y3382667D02*
X65202000Y3349334D01*
X65368666Y3349334D01*
X65435333Y3382667D01*
X65468666Y3416000D01*
X65502000Y3482667D01*
X65502000Y3549334D01*
X65468666Y3616000D01*
X65435333Y3649334D01*
X65368666Y3682667D01*
X65235333Y3716000D01*
X65168666Y3749334D01*
X65135333Y3782667D01*
X65102000Y3849334D01*
X65102000Y3916000D01*
X65135333Y3982667D01*
X65168666Y4016000D01*
X65235333Y4049334D01*
X65402000Y4049334D01*
X65502000Y4016000D01*
X66102000Y4049334D02*
X65968666Y4049334D01*
X65902000Y4016000D01*
X65868666Y3982667D01*
X65802000Y3882667D01*
X65768666Y3749334D01*
X65768666Y3482667D01*
X65802000Y3416000D01*
X65835333Y3382667D01*
X65902000Y3349334D01*
X66035333Y3349334D01*
X66102000Y3382667D01*
X66135333Y3416000D01*
X66168666Y3482667D01*
X66168666Y3649334D01*
X66135333Y3716000D01*
X66102000Y3749334D01*
X66035333Y3782667D01*
X65902000Y3782667D01*
X65835333Y3749334D01*
X65802000Y3716000D01*
X65768666Y3649334D01*
M02*
